M48
INCH,TZ
T1C0.031
T2C0.039
%
G90
G05
T1
X31750Y-40250
X32250Y-42750
X33500Y-32000
X33500Y-33500
X33750Y-37750
X34567Y-40984
X36004Y-39094
X38000Y-32000
X38000Y-33500
X39250Y-41500
X39500Y-39000
X40000Y-36500
X41250Y-32500
X42000Y-36500
X42874Y-41378
X45500Y-36000
X45750Y-39500
X47750Y-30500
X48750Y-32000
X50000Y-36558
X54500Y-35750
T2
X29500Y-32750
X29500Y-33750
X29500Y-36250
X29500Y-37250
X29500Y-40000
X44500Y-30500
X45500Y-30500
X47250Y-42000
X48250Y-42000
X49250Y-42000
X52000Y-42000
X53000Y-42000
X56000Y-32750
X56000Y-33750
T0
M30
