G04 #@! TF.FileFunction,Copper,L2,Bot,Signal*
%FSLAX46Y46*%
G04 Gerber Fmt 4.6, Leading zero omitted, Abs format (unit mm)*
G04 Created by KiCad (PCBNEW 4.0.5) date 2021 March 06, Saturday 14:32:17*
%MOMM*%
%LPD*%
G01*
G04 APERTURE LIST*
%ADD10C,0.100000*%
%ADD11R,1.700000X1.700000*%
%ADD12O,1.700000X1.700000*%
%ADD13C,1.600000*%
%ADD14C,0.500000*%
%ADD15C,0.254000*%
G04 APERTURE END LIST*
D10*
D11*
X74930000Y-83185000D03*
D12*
X74930000Y-85725000D03*
D11*
X113030000Y-77470000D03*
D12*
X115570000Y-77470000D03*
D11*
X74930000Y-92075000D03*
D12*
X74930000Y-94615000D03*
D11*
X132080000Y-106680000D03*
D12*
X134620000Y-106680000D03*
D11*
X142240000Y-85725000D03*
D12*
X142240000Y-83185000D03*
D11*
X125095000Y-106680000D03*
D12*
X122555000Y-106680000D03*
X120015000Y-106680000D03*
D11*
X74930000Y-101600000D03*
D13*
X121285000Y-77470000D03*
X138430000Y-90805000D03*
X96520000Y-85090000D03*
X99695000Y-105410000D03*
X85725000Y-95885000D03*
X85090000Y-85090000D03*
X85090000Y-81280000D03*
X96520000Y-81280000D03*
X101600000Y-92710000D03*
X104775000Y-82550000D03*
X106680000Y-92710000D03*
X80645000Y-102235000D03*
X87800000Y-104100000D03*
X81915000Y-108585000D03*
X116205000Y-100330000D03*
X100330000Y-99060000D03*
X115570000Y-91440000D03*
X123825000Y-81280000D03*
X127000000Y-92856511D03*
X108900000Y-105100000D03*
X91450000Y-99300000D03*
D14*
X85090000Y-81280000D02*
X96520000Y-81280000D01*
X101600000Y-92710000D02*
X104775000Y-89535000D01*
X104775000Y-89535000D02*
X104775000Y-82550000D01*
X89937765Y-94710001D02*
X82412766Y-102235000D01*
X104679999Y-94710001D02*
X89937765Y-94710001D01*
X106680000Y-92710000D02*
X104679999Y-94710001D01*
X82412766Y-102235000D02*
X80645000Y-102235000D01*
X87800000Y-104100000D02*
X83315000Y-108585000D01*
X83315000Y-108585000D02*
X81915000Y-108585000D01*
X116205000Y-100330000D02*
X127080000Y-100330000D01*
X127080000Y-100330000D02*
X132080000Y-105330000D01*
X132080000Y-105330000D02*
X132080000Y-106680000D01*
X115570000Y-95250000D02*
X111760000Y-99060000D01*
X111760000Y-99060000D02*
X100330000Y-99060000D01*
X115570000Y-91440000D02*
X115570000Y-95250000D01*
X123825000Y-81280000D02*
X122575001Y-82529999D01*
X122575001Y-82529999D02*
X122575001Y-88431512D01*
X122575001Y-88431512D02*
X127000000Y-92856511D01*
X91450000Y-99300000D02*
X91450000Y-100431370D01*
X91450000Y-100431370D02*
X97978631Y-106960001D01*
X97978631Y-106960001D02*
X107039999Y-106960001D01*
X107039999Y-106960001D02*
X108900000Y-105100000D01*
D15*
G36*
X145288000Y-112268000D02*
X71882000Y-112268000D01*
X71882000Y-109662619D01*
X72694613Y-109662619D01*
X73034155Y-110484372D01*
X73662321Y-111113636D01*
X74483481Y-111454611D01*
X75372619Y-111455387D01*
X76194372Y-111115845D01*
X76823636Y-110487679D01*
X77164611Y-109666519D01*
X77165306Y-108869187D01*
X80479752Y-108869187D01*
X80697757Y-109396800D01*
X81101077Y-109800824D01*
X81628309Y-110019750D01*
X82199187Y-110020248D01*
X82726800Y-109802243D01*
X82866667Y-109662619D01*
X140004613Y-109662619D01*
X140344155Y-110484372D01*
X140972321Y-111113636D01*
X141793481Y-111454611D01*
X142682619Y-111455387D01*
X143504372Y-111115845D01*
X144133636Y-110487679D01*
X144474611Y-109666519D01*
X144475387Y-108777381D01*
X144135845Y-107955628D01*
X143507679Y-107326364D01*
X142686519Y-106985389D01*
X141797381Y-106984613D01*
X140975628Y-107324155D01*
X140346364Y-107952321D01*
X140005389Y-108773481D01*
X140004613Y-109662619D01*
X82866667Y-109662619D01*
X83059623Y-109470000D01*
X83314995Y-109470000D01*
X83315000Y-109470001D01*
X83597484Y-109413810D01*
X83653675Y-109402633D01*
X83940790Y-109210790D01*
X87616739Y-105534840D01*
X88084187Y-105535248D01*
X88611800Y-105317243D01*
X89015824Y-104913923D01*
X89234750Y-104386691D01*
X89235248Y-103815813D01*
X89017243Y-103288200D01*
X88613923Y-102884176D01*
X88086691Y-102665250D01*
X87515813Y-102664752D01*
X86988200Y-102882757D01*
X86584176Y-103286077D01*
X86365250Y-103813309D01*
X86364840Y-104283581D01*
X83003844Y-107644576D01*
X82728923Y-107369176D01*
X82201691Y-107150250D01*
X81630813Y-107149752D01*
X81103200Y-107367757D01*
X80699176Y-107771077D01*
X80480250Y-108298309D01*
X80479752Y-108869187D01*
X77165306Y-108869187D01*
X77165387Y-108777381D01*
X76825845Y-107955628D01*
X76197679Y-107326364D01*
X75376519Y-106985389D01*
X74487381Y-106984613D01*
X73665628Y-107324155D01*
X73036364Y-107952321D01*
X72695389Y-108773481D01*
X72694613Y-109662619D01*
X71882000Y-109662619D01*
X71882000Y-100750000D01*
X73432560Y-100750000D01*
X73432560Y-102450000D01*
X73476838Y-102685317D01*
X73615910Y-102901441D01*
X73828110Y-103046431D01*
X74080000Y-103097440D01*
X75780000Y-103097440D01*
X76015317Y-103053162D01*
X76231441Y-102914090D01*
X76376431Y-102701890D01*
X76413429Y-102519187D01*
X79209752Y-102519187D01*
X79427757Y-103046800D01*
X79831077Y-103450824D01*
X80358309Y-103669750D01*
X80929187Y-103670248D01*
X81456800Y-103452243D01*
X81789623Y-103120000D01*
X82412761Y-103120000D01*
X82412766Y-103120001D01*
X82695250Y-103063810D01*
X82751441Y-103052633D01*
X83038556Y-102860790D01*
X86315158Y-99584187D01*
X90014752Y-99584187D01*
X90232757Y-100111800D01*
X90568291Y-100447920D01*
X90612203Y-100668674D01*
X90632367Y-100770045D01*
X90756477Y-100955790D01*
X90824210Y-101057160D01*
X97352839Y-107585788D01*
X97352841Y-107585791D01*
X97523768Y-107700000D01*
X97639957Y-107777635D01*
X97978631Y-107845002D01*
X97978636Y-107845001D01*
X107039994Y-107845001D01*
X107039999Y-107845002D01*
X107322483Y-107788811D01*
X107378674Y-107777634D01*
X107665789Y-107585791D01*
X108600672Y-106650907D01*
X118530000Y-106650907D01*
X118530000Y-106709093D01*
X118643039Y-107277378D01*
X118964946Y-107759147D01*
X119446715Y-108081054D01*
X120015000Y-108194093D01*
X120583285Y-108081054D01*
X121065054Y-107759147D01*
X121292702Y-107418447D01*
X121359817Y-107561358D01*
X121788076Y-107951645D01*
X122198110Y-108121476D01*
X122428000Y-108000155D01*
X122428000Y-106807000D01*
X122408000Y-106807000D01*
X122408000Y-106553000D01*
X122428000Y-106553000D01*
X122428000Y-105359845D01*
X122682000Y-105359845D01*
X122682000Y-106553000D01*
X122702000Y-106553000D01*
X122702000Y-106807000D01*
X122682000Y-106807000D01*
X122682000Y-108000155D01*
X122911890Y-108121476D01*
X123321924Y-107951645D01*
X123624937Y-107675499D01*
X123641838Y-107765317D01*
X123780910Y-107981441D01*
X123993110Y-108126431D01*
X124245000Y-108177440D01*
X125945000Y-108177440D01*
X126180317Y-108133162D01*
X126396441Y-107994090D01*
X126541431Y-107781890D01*
X126592440Y-107530000D01*
X126592440Y-105830000D01*
X126548162Y-105594683D01*
X126409090Y-105378559D01*
X126196890Y-105233569D01*
X125945000Y-105182560D01*
X124245000Y-105182560D01*
X124009683Y-105226838D01*
X123793559Y-105365910D01*
X123648569Y-105578110D01*
X123626699Y-105686107D01*
X123321924Y-105408355D01*
X122911890Y-105238524D01*
X122682000Y-105359845D01*
X122428000Y-105359845D01*
X122198110Y-105238524D01*
X121788076Y-105408355D01*
X121359817Y-105798642D01*
X121292702Y-105941553D01*
X121065054Y-105600853D01*
X120583285Y-105278946D01*
X120015000Y-105165907D01*
X119446715Y-105278946D01*
X118964946Y-105600853D01*
X118643039Y-106082622D01*
X118530000Y-106650907D01*
X108600672Y-106650907D01*
X108716739Y-106534840D01*
X109184187Y-106535248D01*
X109711800Y-106317243D01*
X110115824Y-105913923D01*
X110334750Y-105386691D01*
X110335248Y-104815813D01*
X110117243Y-104288200D01*
X109713923Y-103884176D01*
X109186691Y-103665250D01*
X108615813Y-103664752D01*
X108088200Y-103882757D01*
X107684176Y-104286077D01*
X107465250Y-104813309D01*
X107464840Y-105283581D01*
X106673419Y-106075001D01*
X98345210Y-106075001D01*
X92884397Y-100614187D01*
X114769752Y-100614187D01*
X114987757Y-101141800D01*
X115391077Y-101545824D01*
X115918309Y-101764750D01*
X116489187Y-101765248D01*
X117016800Y-101547243D01*
X117349623Y-101215000D01*
X126713420Y-101215000D01*
X130830748Y-105332327D01*
X130778559Y-105365910D01*
X130633569Y-105578110D01*
X130582560Y-105830000D01*
X130582560Y-107530000D01*
X130626838Y-107765317D01*
X130765910Y-107981441D01*
X130978110Y-108126431D01*
X131230000Y-108177440D01*
X132930000Y-108177440D01*
X133165317Y-108133162D01*
X133381441Y-107994090D01*
X133526431Y-107781890D01*
X133540086Y-107714459D01*
X133569946Y-107759147D01*
X134051715Y-108081054D01*
X134620000Y-108194093D01*
X135188285Y-108081054D01*
X135670054Y-107759147D01*
X135991961Y-107277378D01*
X136105000Y-106709093D01*
X136105000Y-106650907D01*
X135991961Y-106082622D01*
X135670054Y-105600853D01*
X135188285Y-105278946D01*
X134620000Y-105165907D01*
X134051715Y-105278946D01*
X133569946Y-105600853D01*
X133542150Y-105642452D01*
X133533162Y-105594683D01*
X133394090Y-105378559D01*
X133181890Y-105233569D01*
X132935911Y-105183757D01*
X132897633Y-104991326D01*
X132897633Y-104991325D01*
X132705790Y-104704210D01*
X132705787Y-104704208D01*
X127705790Y-99704210D01*
X127678222Y-99685790D01*
X127418675Y-99512367D01*
X127362484Y-99501190D01*
X127080000Y-99444999D01*
X127079995Y-99445000D01*
X117349171Y-99445000D01*
X117018923Y-99114176D01*
X116491691Y-98895250D01*
X115920813Y-98894752D01*
X115393200Y-99112757D01*
X114989176Y-99516077D01*
X114770250Y-100043309D01*
X114769752Y-100614187D01*
X92884397Y-100614187D01*
X92524856Y-100254646D01*
X92665824Y-100113923D01*
X92884750Y-99586691D01*
X92884961Y-99344187D01*
X98894752Y-99344187D01*
X99112757Y-99871800D01*
X99516077Y-100275824D01*
X100043309Y-100494750D01*
X100614187Y-100495248D01*
X101141800Y-100277243D01*
X101474623Y-99945000D01*
X111759995Y-99945000D01*
X111760000Y-99945001D01*
X112042484Y-99888810D01*
X112098675Y-99877633D01*
X112385790Y-99685790D01*
X116195787Y-95875792D01*
X116195790Y-95875790D01*
X116387633Y-95588675D01*
X116399775Y-95527634D01*
X116455001Y-95250000D01*
X116455000Y-95249995D01*
X116455000Y-92584171D01*
X116785824Y-92253923D01*
X117004750Y-91726691D01*
X117005248Y-91155813D01*
X116787243Y-90628200D01*
X116383923Y-90224176D01*
X115856691Y-90005250D01*
X115285813Y-90004752D01*
X114758200Y-90222757D01*
X114354176Y-90626077D01*
X114135250Y-91153309D01*
X114134752Y-91724187D01*
X114352757Y-92251800D01*
X114685000Y-92584623D01*
X114685000Y-94883421D01*
X111393420Y-98175000D01*
X101474171Y-98175000D01*
X101143923Y-97844176D01*
X100616691Y-97625250D01*
X100045813Y-97624752D01*
X99518200Y-97842757D01*
X99114176Y-98246077D01*
X98895250Y-98773309D01*
X98894752Y-99344187D01*
X92884961Y-99344187D01*
X92885248Y-99015813D01*
X92667243Y-98488200D01*
X92263923Y-98084176D01*
X91736691Y-97865250D01*
X91165813Y-97864752D01*
X90638200Y-98082757D01*
X90234176Y-98486077D01*
X90015250Y-99013309D01*
X90014752Y-99584187D01*
X86315158Y-99584187D01*
X90304344Y-95595001D01*
X104679994Y-95595001D01*
X104679999Y-95595002D01*
X104962483Y-95538811D01*
X105018674Y-95527634D01*
X105305789Y-95335791D01*
X105305790Y-95335790D01*
X106496739Y-94144840D01*
X106964187Y-94145248D01*
X107491800Y-93927243D01*
X107895824Y-93523923D01*
X108114750Y-92996691D01*
X108115248Y-92425813D01*
X107897243Y-91898200D01*
X107493923Y-91494176D01*
X106966691Y-91275250D01*
X106395813Y-91274752D01*
X105868200Y-91492757D01*
X105464176Y-91896077D01*
X105245250Y-92423309D01*
X105244840Y-92893581D01*
X104313419Y-93825001D01*
X102514220Y-93825001D01*
X102815824Y-93523923D01*
X103034750Y-92996691D01*
X103035160Y-92526420D01*
X105400787Y-90160792D01*
X105400790Y-90160790D01*
X105592633Y-89873675D01*
X105603810Y-89817484D01*
X105660001Y-89535000D01*
X105660000Y-89534995D01*
X105660000Y-83694171D01*
X105990824Y-83363923D01*
X106209750Y-82836691D01*
X106210017Y-82529999D01*
X121690000Y-82529999D01*
X121690001Y-82530004D01*
X121690001Y-88431507D01*
X121690000Y-88431512D01*
X121733461Y-88649999D01*
X121757368Y-88770187D01*
X121949211Y-89057302D01*
X125565160Y-92673250D01*
X125564752Y-93140698D01*
X125782757Y-93668311D01*
X126186077Y-94072335D01*
X126713309Y-94291261D01*
X127284187Y-94291759D01*
X127811800Y-94073754D01*
X128215824Y-93670434D01*
X128434750Y-93143202D01*
X128435248Y-92572324D01*
X128217243Y-92044711D01*
X127813923Y-91640687D01*
X127286691Y-91421761D01*
X126816419Y-91421351D01*
X123460001Y-88064932D01*
X123460001Y-84875000D01*
X140742560Y-84875000D01*
X140742560Y-86575000D01*
X140786838Y-86810317D01*
X140925910Y-87026441D01*
X141138110Y-87171431D01*
X141390000Y-87222440D01*
X143090000Y-87222440D01*
X143325317Y-87178162D01*
X143541441Y-87039090D01*
X143686431Y-86826890D01*
X143737440Y-86575000D01*
X143737440Y-84875000D01*
X143693162Y-84639683D01*
X143554090Y-84423559D01*
X143341890Y-84278569D01*
X143233893Y-84256699D01*
X143511645Y-83951924D01*
X143681476Y-83541890D01*
X143560155Y-83312000D01*
X142367000Y-83312000D01*
X142367000Y-83332000D01*
X142113000Y-83332000D01*
X142113000Y-83312000D01*
X140919845Y-83312000D01*
X140798524Y-83541890D01*
X140968355Y-83951924D01*
X141244501Y-84254937D01*
X141154683Y-84271838D01*
X140938559Y-84410910D01*
X140793569Y-84623110D01*
X140742560Y-84875000D01*
X123460001Y-84875000D01*
X123460001Y-82896579D01*
X123528469Y-82828110D01*
X140798524Y-82828110D01*
X140919845Y-83058000D01*
X142113000Y-83058000D01*
X142113000Y-81864181D01*
X142367000Y-81864181D01*
X142367000Y-83058000D01*
X143560155Y-83058000D01*
X143681476Y-82828110D01*
X143511645Y-82418076D01*
X143121358Y-81989817D01*
X142596892Y-81743514D01*
X142367000Y-81864181D01*
X142113000Y-81864181D01*
X141883108Y-81743514D01*
X141358642Y-81989817D01*
X140968355Y-82418076D01*
X140798524Y-82828110D01*
X123528469Y-82828110D01*
X123641739Y-82714840D01*
X124109187Y-82715248D01*
X124636800Y-82497243D01*
X125040824Y-82093923D01*
X125259750Y-81566691D01*
X125260248Y-80995813D01*
X125042243Y-80468200D01*
X124638923Y-80064176D01*
X124111691Y-79845250D01*
X123540813Y-79844752D01*
X123013200Y-80062757D01*
X122609176Y-80466077D01*
X122390250Y-80993309D01*
X122389840Y-81463581D01*
X121949211Y-81904209D01*
X121757368Y-82191324D01*
X121757368Y-82191325D01*
X121690000Y-82529999D01*
X106210017Y-82529999D01*
X106210248Y-82265813D01*
X105992243Y-81738200D01*
X105588923Y-81334176D01*
X105061691Y-81115250D01*
X104490813Y-81114752D01*
X103963200Y-81332757D01*
X103559176Y-81736077D01*
X103340250Y-82263309D01*
X103339752Y-82834187D01*
X103557757Y-83361800D01*
X103890000Y-83694623D01*
X103890000Y-89168421D01*
X101783260Y-91275160D01*
X101315813Y-91274752D01*
X100788200Y-91492757D01*
X100384176Y-91896077D01*
X100165250Y-92423309D01*
X100164752Y-92994187D01*
X100382757Y-93521800D01*
X100685430Y-93825001D01*
X89937770Y-93825001D01*
X89937765Y-93825000D01*
X89655281Y-93881191D01*
X89599090Y-93892368D01*
X89311975Y-94084211D01*
X89311973Y-94084214D01*
X82046186Y-101350000D01*
X81789171Y-101350000D01*
X81458923Y-101019176D01*
X80931691Y-100800250D01*
X80360813Y-100799752D01*
X79833200Y-101017757D01*
X79429176Y-101421077D01*
X79210250Y-101948309D01*
X79209752Y-102519187D01*
X76413429Y-102519187D01*
X76427440Y-102450000D01*
X76427440Y-100750000D01*
X76383162Y-100514683D01*
X76244090Y-100298559D01*
X76031890Y-100153569D01*
X75780000Y-100102560D01*
X74080000Y-100102560D01*
X73844683Y-100146838D01*
X73628559Y-100285910D01*
X73483569Y-100498110D01*
X73432560Y-100750000D01*
X71882000Y-100750000D01*
X71882000Y-94615000D01*
X73415907Y-94615000D01*
X73528946Y-95183285D01*
X73850853Y-95665054D01*
X74332622Y-95986961D01*
X74900907Y-96100000D01*
X74959093Y-96100000D01*
X75527378Y-95986961D01*
X76009147Y-95665054D01*
X76331054Y-95183285D01*
X76444093Y-94615000D01*
X76331054Y-94046715D01*
X76009147Y-93564946D01*
X75965223Y-93535597D01*
X76139698Y-93463327D01*
X76318327Y-93284699D01*
X76415000Y-93051310D01*
X76415000Y-92360750D01*
X76256250Y-92202000D01*
X75057000Y-92202000D01*
X75057000Y-92222000D01*
X74803000Y-92222000D01*
X74803000Y-92202000D01*
X73603750Y-92202000D01*
X73445000Y-92360750D01*
X73445000Y-93051310D01*
X73541673Y-93284699D01*
X73720302Y-93463327D01*
X73894777Y-93535597D01*
X73850853Y-93564946D01*
X73528946Y-94046715D01*
X73415907Y-94615000D01*
X71882000Y-94615000D01*
X71882000Y-91098690D01*
X73445000Y-91098690D01*
X73445000Y-91789250D01*
X73603750Y-91948000D01*
X74803000Y-91948000D01*
X74803000Y-90748750D01*
X75057000Y-90748750D01*
X75057000Y-91948000D01*
X76256250Y-91948000D01*
X76415000Y-91789250D01*
X76415000Y-91098690D01*
X76318327Y-90865301D01*
X76139698Y-90686673D01*
X75906309Y-90590000D01*
X75215750Y-90590000D01*
X75057000Y-90748750D01*
X74803000Y-90748750D01*
X74644250Y-90590000D01*
X73953691Y-90590000D01*
X73720302Y-90686673D01*
X73541673Y-90865301D01*
X73445000Y-91098690D01*
X71882000Y-91098690D01*
X71882000Y-86081890D01*
X73488524Y-86081890D01*
X73658355Y-86491924D01*
X74048642Y-86920183D01*
X74573108Y-87166486D01*
X74803000Y-87045819D01*
X74803000Y-85852000D01*
X75057000Y-85852000D01*
X75057000Y-87045819D01*
X75286892Y-87166486D01*
X75811358Y-86920183D01*
X76201645Y-86491924D01*
X76371476Y-86081890D01*
X76250155Y-85852000D01*
X75057000Y-85852000D01*
X74803000Y-85852000D01*
X73609845Y-85852000D01*
X73488524Y-86081890D01*
X71882000Y-86081890D01*
X71882000Y-82335000D01*
X73432560Y-82335000D01*
X73432560Y-84035000D01*
X73476838Y-84270317D01*
X73615910Y-84486441D01*
X73828110Y-84631431D01*
X73936107Y-84653301D01*
X73658355Y-84958076D01*
X73488524Y-85368110D01*
X73609845Y-85598000D01*
X74803000Y-85598000D01*
X74803000Y-85578000D01*
X75057000Y-85578000D01*
X75057000Y-85598000D01*
X76250155Y-85598000D01*
X76371476Y-85368110D01*
X76201645Y-84958076D01*
X75925499Y-84655063D01*
X76015317Y-84638162D01*
X76231441Y-84499090D01*
X76376431Y-84286890D01*
X76427440Y-84035000D01*
X76427440Y-82335000D01*
X76383162Y-82099683D01*
X76244090Y-81883559D01*
X76031890Y-81738569D01*
X75780000Y-81687560D01*
X74080000Y-81687560D01*
X73844683Y-81731838D01*
X73628559Y-81870910D01*
X73483569Y-82083110D01*
X73432560Y-82335000D01*
X71882000Y-82335000D01*
X71882000Y-81564187D01*
X83654752Y-81564187D01*
X83872757Y-82091800D01*
X84276077Y-82495824D01*
X84803309Y-82714750D01*
X85374187Y-82715248D01*
X85901800Y-82497243D01*
X86234623Y-82165000D01*
X95375829Y-82165000D01*
X95706077Y-82495824D01*
X96233309Y-82714750D01*
X96804187Y-82715248D01*
X97331800Y-82497243D01*
X97735824Y-82093923D01*
X97954750Y-81566691D01*
X97955248Y-80995813D01*
X97737243Y-80468200D01*
X97333923Y-80064176D01*
X96806691Y-79845250D01*
X96235813Y-79844752D01*
X95708200Y-80062757D01*
X95375377Y-80395000D01*
X86234171Y-80395000D01*
X85903923Y-80064176D01*
X85376691Y-79845250D01*
X84805813Y-79844752D01*
X84278200Y-80062757D01*
X83874176Y-80466077D01*
X83655250Y-80993309D01*
X83654752Y-81564187D01*
X71882000Y-81564187D01*
X71882000Y-76642619D01*
X72694613Y-76642619D01*
X73034155Y-77464372D01*
X73662321Y-78093636D01*
X74483481Y-78434611D01*
X75372619Y-78435387D01*
X76194372Y-78095845D01*
X76823636Y-77467679D01*
X77164611Y-76646519D01*
X77164634Y-76620000D01*
X111532560Y-76620000D01*
X111532560Y-78320000D01*
X111576838Y-78555317D01*
X111715910Y-78771441D01*
X111928110Y-78916431D01*
X112180000Y-78967440D01*
X113880000Y-78967440D01*
X114115317Y-78923162D01*
X114331441Y-78784090D01*
X114476431Y-78571890D01*
X114490086Y-78504459D01*
X114519946Y-78549147D01*
X115001715Y-78871054D01*
X115570000Y-78984093D01*
X116138285Y-78871054D01*
X116620054Y-78549147D01*
X116941961Y-78067378D01*
X117055000Y-77499093D01*
X117055000Y-77440907D01*
X116941961Y-76872622D01*
X116788279Y-76642619D01*
X140004613Y-76642619D01*
X140344155Y-77464372D01*
X140972321Y-78093636D01*
X141793481Y-78434611D01*
X142682619Y-78435387D01*
X143504372Y-78095845D01*
X144133636Y-77467679D01*
X144474611Y-76646519D01*
X144475387Y-75757381D01*
X144135845Y-74935628D01*
X143507679Y-74306364D01*
X142686519Y-73965389D01*
X141797381Y-73964613D01*
X140975628Y-74304155D01*
X140346364Y-74932321D01*
X140005389Y-75753481D01*
X140004613Y-76642619D01*
X116788279Y-76642619D01*
X116620054Y-76390853D01*
X116138285Y-76068946D01*
X115570000Y-75955907D01*
X115001715Y-76068946D01*
X114519946Y-76390853D01*
X114492150Y-76432452D01*
X114483162Y-76384683D01*
X114344090Y-76168559D01*
X114131890Y-76023569D01*
X113880000Y-75972560D01*
X112180000Y-75972560D01*
X111944683Y-76016838D01*
X111728559Y-76155910D01*
X111583569Y-76368110D01*
X111532560Y-76620000D01*
X77164634Y-76620000D01*
X77165387Y-75757381D01*
X76825845Y-74935628D01*
X76197679Y-74306364D01*
X75376519Y-73965389D01*
X74487381Y-73964613D01*
X73665628Y-74304155D01*
X73036364Y-74932321D01*
X72695389Y-75753481D01*
X72694613Y-76642619D01*
X71882000Y-76642619D01*
X71882000Y-73152000D01*
X145288000Y-73152000D01*
X145288000Y-112268000D01*
X145288000Y-112268000D01*
G37*
X145288000Y-112268000D02*
X71882000Y-112268000D01*
X71882000Y-109662619D01*
X72694613Y-109662619D01*
X73034155Y-110484372D01*
X73662321Y-111113636D01*
X74483481Y-111454611D01*
X75372619Y-111455387D01*
X76194372Y-111115845D01*
X76823636Y-110487679D01*
X77164611Y-109666519D01*
X77165306Y-108869187D01*
X80479752Y-108869187D01*
X80697757Y-109396800D01*
X81101077Y-109800824D01*
X81628309Y-110019750D01*
X82199187Y-110020248D01*
X82726800Y-109802243D01*
X82866667Y-109662619D01*
X140004613Y-109662619D01*
X140344155Y-110484372D01*
X140972321Y-111113636D01*
X141793481Y-111454611D01*
X142682619Y-111455387D01*
X143504372Y-111115845D01*
X144133636Y-110487679D01*
X144474611Y-109666519D01*
X144475387Y-108777381D01*
X144135845Y-107955628D01*
X143507679Y-107326364D01*
X142686519Y-106985389D01*
X141797381Y-106984613D01*
X140975628Y-107324155D01*
X140346364Y-107952321D01*
X140005389Y-108773481D01*
X140004613Y-109662619D01*
X82866667Y-109662619D01*
X83059623Y-109470000D01*
X83314995Y-109470000D01*
X83315000Y-109470001D01*
X83597484Y-109413810D01*
X83653675Y-109402633D01*
X83940790Y-109210790D01*
X87616739Y-105534840D01*
X88084187Y-105535248D01*
X88611800Y-105317243D01*
X89015824Y-104913923D01*
X89234750Y-104386691D01*
X89235248Y-103815813D01*
X89017243Y-103288200D01*
X88613923Y-102884176D01*
X88086691Y-102665250D01*
X87515813Y-102664752D01*
X86988200Y-102882757D01*
X86584176Y-103286077D01*
X86365250Y-103813309D01*
X86364840Y-104283581D01*
X83003844Y-107644576D01*
X82728923Y-107369176D01*
X82201691Y-107150250D01*
X81630813Y-107149752D01*
X81103200Y-107367757D01*
X80699176Y-107771077D01*
X80480250Y-108298309D01*
X80479752Y-108869187D01*
X77165306Y-108869187D01*
X77165387Y-108777381D01*
X76825845Y-107955628D01*
X76197679Y-107326364D01*
X75376519Y-106985389D01*
X74487381Y-106984613D01*
X73665628Y-107324155D01*
X73036364Y-107952321D01*
X72695389Y-108773481D01*
X72694613Y-109662619D01*
X71882000Y-109662619D01*
X71882000Y-100750000D01*
X73432560Y-100750000D01*
X73432560Y-102450000D01*
X73476838Y-102685317D01*
X73615910Y-102901441D01*
X73828110Y-103046431D01*
X74080000Y-103097440D01*
X75780000Y-103097440D01*
X76015317Y-103053162D01*
X76231441Y-102914090D01*
X76376431Y-102701890D01*
X76413429Y-102519187D01*
X79209752Y-102519187D01*
X79427757Y-103046800D01*
X79831077Y-103450824D01*
X80358309Y-103669750D01*
X80929187Y-103670248D01*
X81456800Y-103452243D01*
X81789623Y-103120000D01*
X82412761Y-103120000D01*
X82412766Y-103120001D01*
X82695250Y-103063810D01*
X82751441Y-103052633D01*
X83038556Y-102860790D01*
X86315158Y-99584187D01*
X90014752Y-99584187D01*
X90232757Y-100111800D01*
X90568291Y-100447920D01*
X90612203Y-100668674D01*
X90632367Y-100770045D01*
X90756477Y-100955790D01*
X90824210Y-101057160D01*
X97352839Y-107585788D01*
X97352841Y-107585791D01*
X97523768Y-107700000D01*
X97639957Y-107777635D01*
X97978631Y-107845002D01*
X97978636Y-107845001D01*
X107039994Y-107845001D01*
X107039999Y-107845002D01*
X107322483Y-107788811D01*
X107378674Y-107777634D01*
X107665789Y-107585791D01*
X108600672Y-106650907D01*
X118530000Y-106650907D01*
X118530000Y-106709093D01*
X118643039Y-107277378D01*
X118964946Y-107759147D01*
X119446715Y-108081054D01*
X120015000Y-108194093D01*
X120583285Y-108081054D01*
X121065054Y-107759147D01*
X121292702Y-107418447D01*
X121359817Y-107561358D01*
X121788076Y-107951645D01*
X122198110Y-108121476D01*
X122428000Y-108000155D01*
X122428000Y-106807000D01*
X122408000Y-106807000D01*
X122408000Y-106553000D01*
X122428000Y-106553000D01*
X122428000Y-105359845D01*
X122682000Y-105359845D01*
X122682000Y-106553000D01*
X122702000Y-106553000D01*
X122702000Y-106807000D01*
X122682000Y-106807000D01*
X122682000Y-108000155D01*
X122911890Y-108121476D01*
X123321924Y-107951645D01*
X123624937Y-107675499D01*
X123641838Y-107765317D01*
X123780910Y-107981441D01*
X123993110Y-108126431D01*
X124245000Y-108177440D01*
X125945000Y-108177440D01*
X126180317Y-108133162D01*
X126396441Y-107994090D01*
X126541431Y-107781890D01*
X126592440Y-107530000D01*
X126592440Y-105830000D01*
X126548162Y-105594683D01*
X126409090Y-105378559D01*
X126196890Y-105233569D01*
X125945000Y-105182560D01*
X124245000Y-105182560D01*
X124009683Y-105226838D01*
X123793559Y-105365910D01*
X123648569Y-105578110D01*
X123626699Y-105686107D01*
X123321924Y-105408355D01*
X122911890Y-105238524D01*
X122682000Y-105359845D01*
X122428000Y-105359845D01*
X122198110Y-105238524D01*
X121788076Y-105408355D01*
X121359817Y-105798642D01*
X121292702Y-105941553D01*
X121065054Y-105600853D01*
X120583285Y-105278946D01*
X120015000Y-105165907D01*
X119446715Y-105278946D01*
X118964946Y-105600853D01*
X118643039Y-106082622D01*
X118530000Y-106650907D01*
X108600672Y-106650907D01*
X108716739Y-106534840D01*
X109184187Y-106535248D01*
X109711800Y-106317243D01*
X110115824Y-105913923D01*
X110334750Y-105386691D01*
X110335248Y-104815813D01*
X110117243Y-104288200D01*
X109713923Y-103884176D01*
X109186691Y-103665250D01*
X108615813Y-103664752D01*
X108088200Y-103882757D01*
X107684176Y-104286077D01*
X107465250Y-104813309D01*
X107464840Y-105283581D01*
X106673419Y-106075001D01*
X98345210Y-106075001D01*
X92884397Y-100614187D01*
X114769752Y-100614187D01*
X114987757Y-101141800D01*
X115391077Y-101545824D01*
X115918309Y-101764750D01*
X116489187Y-101765248D01*
X117016800Y-101547243D01*
X117349623Y-101215000D01*
X126713420Y-101215000D01*
X130830748Y-105332327D01*
X130778559Y-105365910D01*
X130633569Y-105578110D01*
X130582560Y-105830000D01*
X130582560Y-107530000D01*
X130626838Y-107765317D01*
X130765910Y-107981441D01*
X130978110Y-108126431D01*
X131230000Y-108177440D01*
X132930000Y-108177440D01*
X133165317Y-108133162D01*
X133381441Y-107994090D01*
X133526431Y-107781890D01*
X133540086Y-107714459D01*
X133569946Y-107759147D01*
X134051715Y-108081054D01*
X134620000Y-108194093D01*
X135188285Y-108081054D01*
X135670054Y-107759147D01*
X135991961Y-107277378D01*
X136105000Y-106709093D01*
X136105000Y-106650907D01*
X135991961Y-106082622D01*
X135670054Y-105600853D01*
X135188285Y-105278946D01*
X134620000Y-105165907D01*
X134051715Y-105278946D01*
X133569946Y-105600853D01*
X133542150Y-105642452D01*
X133533162Y-105594683D01*
X133394090Y-105378559D01*
X133181890Y-105233569D01*
X132935911Y-105183757D01*
X132897633Y-104991326D01*
X132897633Y-104991325D01*
X132705790Y-104704210D01*
X132705787Y-104704208D01*
X127705790Y-99704210D01*
X127678222Y-99685790D01*
X127418675Y-99512367D01*
X127362484Y-99501190D01*
X127080000Y-99444999D01*
X127079995Y-99445000D01*
X117349171Y-99445000D01*
X117018923Y-99114176D01*
X116491691Y-98895250D01*
X115920813Y-98894752D01*
X115393200Y-99112757D01*
X114989176Y-99516077D01*
X114770250Y-100043309D01*
X114769752Y-100614187D01*
X92884397Y-100614187D01*
X92524856Y-100254646D01*
X92665824Y-100113923D01*
X92884750Y-99586691D01*
X92884961Y-99344187D01*
X98894752Y-99344187D01*
X99112757Y-99871800D01*
X99516077Y-100275824D01*
X100043309Y-100494750D01*
X100614187Y-100495248D01*
X101141800Y-100277243D01*
X101474623Y-99945000D01*
X111759995Y-99945000D01*
X111760000Y-99945001D01*
X112042484Y-99888810D01*
X112098675Y-99877633D01*
X112385790Y-99685790D01*
X116195787Y-95875792D01*
X116195790Y-95875790D01*
X116387633Y-95588675D01*
X116399775Y-95527634D01*
X116455001Y-95250000D01*
X116455000Y-95249995D01*
X116455000Y-92584171D01*
X116785824Y-92253923D01*
X117004750Y-91726691D01*
X117005248Y-91155813D01*
X116787243Y-90628200D01*
X116383923Y-90224176D01*
X115856691Y-90005250D01*
X115285813Y-90004752D01*
X114758200Y-90222757D01*
X114354176Y-90626077D01*
X114135250Y-91153309D01*
X114134752Y-91724187D01*
X114352757Y-92251800D01*
X114685000Y-92584623D01*
X114685000Y-94883421D01*
X111393420Y-98175000D01*
X101474171Y-98175000D01*
X101143923Y-97844176D01*
X100616691Y-97625250D01*
X100045813Y-97624752D01*
X99518200Y-97842757D01*
X99114176Y-98246077D01*
X98895250Y-98773309D01*
X98894752Y-99344187D01*
X92884961Y-99344187D01*
X92885248Y-99015813D01*
X92667243Y-98488200D01*
X92263923Y-98084176D01*
X91736691Y-97865250D01*
X91165813Y-97864752D01*
X90638200Y-98082757D01*
X90234176Y-98486077D01*
X90015250Y-99013309D01*
X90014752Y-99584187D01*
X86315158Y-99584187D01*
X90304344Y-95595001D01*
X104679994Y-95595001D01*
X104679999Y-95595002D01*
X104962483Y-95538811D01*
X105018674Y-95527634D01*
X105305789Y-95335791D01*
X105305790Y-95335790D01*
X106496739Y-94144840D01*
X106964187Y-94145248D01*
X107491800Y-93927243D01*
X107895824Y-93523923D01*
X108114750Y-92996691D01*
X108115248Y-92425813D01*
X107897243Y-91898200D01*
X107493923Y-91494176D01*
X106966691Y-91275250D01*
X106395813Y-91274752D01*
X105868200Y-91492757D01*
X105464176Y-91896077D01*
X105245250Y-92423309D01*
X105244840Y-92893581D01*
X104313419Y-93825001D01*
X102514220Y-93825001D01*
X102815824Y-93523923D01*
X103034750Y-92996691D01*
X103035160Y-92526420D01*
X105400787Y-90160792D01*
X105400790Y-90160790D01*
X105592633Y-89873675D01*
X105603810Y-89817484D01*
X105660001Y-89535000D01*
X105660000Y-89534995D01*
X105660000Y-83694171D01*
X105990824Y-83363923D01*
X106209750Y-82836691D01*
X106210017Y-82529999D01*
X121690000Y-82529999D01*
X121690001Y-82530004D01*
X121690001Y-88431507D01*
X121690000Y-88431512D01*
X121733461Y-88649999D01*
X121757368Y-88770187D01*
X121949211Y-89057302D01*
X125565160Y-92673250D01*
X125564752Y-93140698D01*
X125782757Y-93668311D01*
X126186077Y-94072335D01*
X126713309Y-94291261D01*
X127284187Y-94291759D01*
X127811800Y-94073754D01*
X128215824Y-93670434D01*
X128434750Y-93143202D01*
X128435248Y-92572324D01*
X128217243Y-92044711D01*
X127813923Y-91640687D01*
X127286691Y-91421761D01*
X126816419Y-91421351D01*
X123460001Y-88064932D01*
X123460001Y-84875000D01*
X140742560Y-84875000D01*
X140742560Y-86575000D01*
X140786838Y-86810317D01*
X140925910Y-87026441D01*
X141138110Y-87171431D01*
X141390000Y-87222440D01*
X143090000Y-87222440D01*
X143325317Y-87178162D01*
X143541441Y-87039090D01*
X143686431Y-86826890D01*
X143737440Y-86575000D01*
X143737440Y-84875000D01*
X143693162Y-84639683D01*
X143554090Y-84423559D01*
X143341890Y-84278569D01*
X143233893Y-84256699D01*
X143511645Y-83951924D01*
X143681476Y-83541890D01*
X143560155Y-83312000D01*
X142367000Y-83312000D01*
X142367000Y-83332000D01*
X142113000Y-83332000D01*
X142113000Y-83312000D01*
X140919845Y-83312000D01*
X140798524Y-83541890D01*
X140968355Y-83951924D01*
X141244501Y-84254937D01*
X141154683Y-84271838D01*
X140938559Y-84410910D01*
X140793569Y-84623110D01*
X140742560Y-84875000D01*
X123460001Y-84875000D01*
X123460001Y-82896579D01*
X123528469Y-82828110D01*
X140798524Y-82828110D01*
X140919845Y-83058000D01*
X142113000Y-83058000D01*
X142113000Y-81864181D01*
X142367000Y-81864181D01*
X142367000Y-83058000D01*
X143560155Y-83058000D01*
X143681476Y-82828110D01*
X143511645Y-82418076D01*
X143121358Y-81989817D01*
X142596892Y-81743514D01*
X142367000Y-81864181D01*
X142113000Y-81864181D01*
X141883108Y-81743514D01*
X141358642Y-81989817D01*
X140968355Y-82418076D01*
X140798524Y-82828110D01*
X123528469Y-82828110D01*
X123641739Y-82714840D01*
X124109187Y-82715248D01*
X124636800Y-82497243D01*
X125040824Y-82093923D01*
X125259750Y-81566691D01*
X125260248Y-80995813D01*
X125042243Y-80468200D01*
X124638923Y-80064176D01*
X124111691Y-79845250D01*
X123540813Y-79844752D01*
X123013200Y-80062757D01*
X122609176Y-80466077D01*
X122390250Y-80993309D01*
X122389840Y-81463581D01*
X121949211Y-81904209D01*
X121757368Y-82191324D01*
X121757368Y-82191325D01*
X121690000Y-82529999D01*
X106210017Y-82529999D01*
X106210248Y-82265813D01*
X105992243Y-81738200D01*
X105588923Y-81334176D01*
X105061691Y-81115250D01*
X104490813Y-81114752D01*
X103963200Y-81332757D01*
X103559176Y-81736077D01*
X103340250Y-82263309D01*
X103339752Y-82834187D01*
X103557757Y-83361800D01*
X103890000Y-83694623D01*
X103890000Y-89168421D01*
X101783260Y-91275160D01*
X101315813Y-91274752D01*
X100788200Y-91492757D01*
X100384176Y-91896077D01*
X100165250Y-92423309D01*
X100164752Y-92994187D01*
X100382757Y-93521800D01*
X100685430Y-93825001D01*
X89937770Y-93825001D01*
X89937765Y-93825000D01*
X89655281Y-93881191D01*
X89599090Y-93892368D01*
X89311975Y-94084211D01*
X89311973Y-94084214D01*
X82046186Y-101350000D01*
X81789171Y-101350000D01*
X81458923Y-101019176D01*
X80931691Y-100800250D01*
X80360813Y-100799752D01*
X79833200Y-101017757D01*
X79429176Y-101421077D01*
X79210250Y-101948309D01*
X79209752Y-102519187D01*
X76413429Y-102519187D01*
X76427440Y-102450000D01*
X76427440Y-100750000D01*
X76383162Y-100514683D01*
X76244090Y-100298559D01*
X76031890Y-100153569D01*
X75780000Y-100102560D01*
X74080000Y-100102560D01*
X73844683Y-100146838D01*
X73628559Y-100285910D01*
X73483569Y-100498110D01*
X73432560Y-100750000D01*
X71882000Y-100750000D01*
X71882000Y-94615000D01*
X73415907Y-94615000D01*
X73528946Y-95183285D01*
X73850853Y-95665054D01*
X74332622Y-95986961D01*
X74900907Y-96100000D01*
X74959093Y-96100000D01*
X75527378Y-95986961D01*
X76009147Y-95665054D01*
X76331054Y-95183285D01*
X76444093Y-94615000D01*
X76331054Y-94046715D01*
X76009147Y-93564946D01*
X75965223Y-93535597D01*
X76139698Y-93463327D01*
X76318327Y-93284699D01*
X76415000Y-93051310D01*
X76415000Y-92360750D01*
X76256250Y-92202000D01*
X75057000Y-92202000D01*
X75057000Y-92222000D01*
X74803000Y-92222000D01*
X74803000Y-92202000D01*
X73603750Y-92202000D01*
X73445000Y-92360750D01*
X73445000Y-93051310D01*
X73541673Y-93284699D01*
X73720302Y-93463327D01*
X73894777Y-93535597D01*
X73850853Y-93564946D01*
X73528946Y-94046715D01*
X73415907Y-94615000D01*
X71882000Y-94615000D01*
X71882000Y-91098690D01*
X73445000Y-91098690D01*
X73445000Y-91789250D01*
X73603750Y-91948000D01*
X74803000Y-91948000D01*
X74803000Y-90748750D01*
X75057000Y-90748750D01*
X75057000Y-91948000D01*
X76256250Y-91948000D01*
X76415000Y-91789250D01*
X76415000Y-91098690D01*
X76318327Y-90865301D01*
X76139698Y-90686673D01*
X75906309Y-90590000D01*
X75215750Y-90590000D01*
X75057000Y-90748750D01*
X74803000Y-90748750D01*
X74644250Y-90590000D01*
X73953691Y-90590000D01*
X73720302Y-90686673D01*
X73541673Y-90865301D01*
X73445000Y-91098690D01*
X71882000Y-91098690D01*
X71882000Y-86081890D01*
X73488524Y-86081890D01*
X73658355Y-86491924D01*
X74048642Y-86920183D01*
X74573108Y-87166486D01*
X74803000Y-87045819D01*
X74803000Y-85852000D01*
X75057000Y-85852000D01*
X75057000Y-87045819D01*
X75286892Y-87166486D01*
X75811358Y-86920183D01*
X76201645Y-86491924D01*
X76371476Y-86081890D01*
X76250155Y-85852000D01*
X75057000Y-85852000D01*
X74803000Y-85852000D01*
X73609845Y-85852000D01*
X73488524Y-86081890D01*
X71882000Y-86081890D01*
X71882000Y-82335000D01*
X73432560Y-82335000D01*
X73432560Y-84035000D01*
X73476838Y-84270317D01*
X73615910Y-84486441D01*
X73828110Y-84631431D01*
X73936107Y-84653301D01*
X73658355Y-84958076D01*
X73488524Y-85368110D01*
X73609845Y-85598000D01*
X74803000Y-85598000D01*
X74803000Y-85578000D01*
X75057000Y-85578000D01*
X75057000Y-85598000D01*
X76250155Y-85598000D01*
X76371476Y-85368110D01*
X76201645Y-84958076D01*
X75925499Y-84655063D01*
X76015317Y-84638162D01*
X76231441Y-84499090D01*
X76376431Y-84286890D01*
X76427440Y-84035000D01*
X76427440Y-82335000D01*
X76383162Y-82099683D01*
X76244090Y-81883559D01*
X76031890Y-81738569D01*
X75780000Y-81687560D01*
X74080000Y-81687560D01*
X73844683Y-81731838D01*
X73628559Y-81870910D01*
X73483569Y-82083110D01*
X73432560Y-82335000D01*
X71882000Y-82335000D01*
X71882000Y-81564187D01*
X83654752Y-81564187D01*
X83872757Y-82091800D01*
X84276077Y-82495824D01*
X84803309Y-82714750D01*
X85374187Y-82715248D01*
X85901800Y-82497243D01*
X86234623Y-82165000D01*
X95375829Y-82165000D01*
X95706077Y-82495824D01*
X96233309Y-82714750D01*
X96804187Y-82715248D01*
X97331800Y-82497243D01*
X97735824Y-82093923D01*
X97954750Y-81566691D01*
X97955248Y-80995813D01*
X97737243Y-80468200D01*
X97333923Y-80064176D01*
X96806691Y-79845250D01*
X96235813Y-79844752D01*
X95708200Y-80062757D01*
X95375377Y-80395000D01*
X86234171Y-80395000D01*
X85903923Y-80064176D01*
X85376691Y-79845250D01*
X84805813Y-79844752D01*
X84278200Y-80062757D01*
X83874176Y-80466077D01*
X83655250Y-80993309D01*
X83654752Y-81564187D01*
X71882000Y-81564187D01*
X71882000Y-76642619D01*
X72694613Y-76642619D01*
X73034155Y-77464372D01*
X73662321Y-78093636D01*
X74483481Y-78434611D01*
X75372619Y-78435387D01*
X76194372Y-78095845D01*
X76823636Y-77467679D01*
X77164611Y-76646519D01*
X77164634Y-76620000D01*
X111532560Y-76620000D01*
X111532560Y-78320000D01*
X111576838Y-78555317D01*
X111715910Y-78771441D01*
X111928110Y-78916431D01*
X112180000Y-78967440D01*
X113880000Y-78967440D01*
X114115317Y-78923162D01*
X114331441Y-78784090D01*
X114476431Y-78571890D01*
X114490086Y-78504459D01*
X114519946Y-78549147D01*
X115001715Y-78871054D01*
X115570000Y-78984093D01*
X116138285Y-78871054D01*
X116620054Y-78549147D01*
X116941961Y-78067378D01*
X117055000Y-77499093D01*
X117055000Y-77440907D01*
X116941961Y-76872622D01*
X116788279Y-76642619D01*
X140004613Y-76642619D01*
X140344155Y-77464372D01*
X140972321Y-78093636D01*
X141793481Y-78434611D01*
X142682619Y-78435387D01*
X143504372Y-78095845D01*
X144133636Y-77467679D01*
X144474611Y-76646519D01*
X144475387Y-75757381D01*
X144135845Y-74935628D01*
X143507679Y-74306364D01*
X142686519Y-73965389D01*
X141797381Y-73964613D01*
X140975628Y-74304155D01*
X140346364Y-74932321D01*
X140005389Y-75753481D01*
X140004613Y-76642619D01*
X116788279Y-76642619D01*
X116620054Y-76390853D01*
X116138285Y-76068946D01*
X115570000Y-75955907D01*
X115001715Y-76068946D01*
X114519946Y-76390853D01*
X114492150Y-76432452D01*
X114483162Y-76384683D01*
X114344090Y-76168559D01*
X114131890Y-76023569D01*
X113880000Y-75972560D01*
X112180000Y-75972560D01*
X111944683Y-76016838D01*
X111728559Y-76155910D01*
X111583569Y-76368110D01*
X111532560Y-76620000D01*
X77164634Y-76620000D01*
X77165387Y-75757381D01*
X76825845Y-74935628D01*
X76197679Y-74306364D01*
X75376519Y-73965389D01*
X74487381Y-73964613D01*
X73665628Y-74304155D01*
X73036364Y-74932321D01*
X72695389Y-75753481D01*
X72694613Y-76642619D01*
X71882000Y-76642619D01*
X71882000Y-73152000D01*
X145288000Y-73152000D01*
X145288000Y-112268000D01*
M02*
