G04 #@! TF.FileFunction,Copper,L1,Top,Signal*
%FSLAX46Y46*%
G04 Gerber Fmt 4.6, Leading zero omitted, Abs format (unit mm)*
G04 Created by KiCad (PCBNEW 4.0.5) date 2021 March 06, Saturday 14:32:17*
%MOMM*%
%LPD*%
G01*
G04 APERTURE LIST*
%ADD10C,0.100000*%
%ADD11R,2.000000X1.600000*%
%ADD12R,1.600000X2.000000*%
%ADD13R,1.700000X1.700000*%
%ADD14O,1.700000X1.700000*%
%ADD15R,2.000000X1.700000*%
%ADD16R,1.700000X2.000000*%
%ADD17R,0.508000X1.143000*%
%ADD18C,1.600000*%
%ADD19C,0.500000*%
%ADD20C,0.254000*%
G04 APERTURE END LIST*
D10*
D11*
X92805000Y-95885000D03*
X88805000Y-95885000D03*
D12*
X80645000Y-83090000D03*
X80645000Y-87090000D03*
X80645000Y-97885000D03*
X80645000Y-93885000D03*
X100330000Y-84360000D03*
X100330000Y-88360000D03*
D11*
X102330000Y-95885000D03*
X98330000Y-95885000D03*
X130270000Y-77470000D03*
X126270000Y-77470000D03*
D12*
X137160000Y-86455000D03*
X137160000Y-82455000D03*
D13*
X74930000Y-83185000D03*
D14*
X74930000Y-85725000D03*
D13*
X113030000Y-77470000D03*
D14*
X115570000Y-77470000D03*
D13*
X74930000Y-92075000D03*
D14*
X74930000Y-94615000D03*
D13*
X132080000Y-106680000D03*
D14*
X134620000Y-106680000D03*
D13*
X142240000Y-85725000D03*
D14*
X142240000Y-83185000D03*
D15*
X97060000Y-77470000D03*
X101060000Y-77470000D03*
X85820000Y-77470000D03*
X81820000Y-77470000D03*
D16*
X119380000Y-88360000D03*
X119380000Y-84360000D03*
D15*
X122015000Y-95885000D03*
X118015000Y-95885000D03*
X127540000Y-95885000D03*
X131540000Y-95885000D03*
X137065000Y-95885000D03*
X141065000Y-95885000D03*
D17*
X88900000Y-83185000D03*
X90170000Y-83185000D03*
X91440000Y-83185000D03*
X92710000Y-83185000D03*
X92710000Y-89535000D03*
X91440000Y-89535000D03*
X90170000Y-89535000D03*
X88900000Y-89535000D03*
X107950000Y-83185000D03*
X109220000Y-83185000D03*
X110490000Y-83185000D03*
X111760000Y-83185000D03*
X111760000Y-89535000D03*
X110490000Y-89535000D03*
X109220000Y-89535000D03*
X107950000Y-89535000D03*
X127000000Y-83185000D03*
X128270000Y-83185000D03*
X129540000Y-83185000D03*
X130810000Y-83185000D03*
X130810000Y-89535000D03*
X129540000Y-89535000D03*
X128270000Y-89535000D03*
X127000000Y-89535000D03*
D13*
X125095000Y-106680000D03*
D14*
X122555000Y-106680000D03*
X120015000Y-106680000D03*
D13*
X74930000Y-101600000D03*
D17*
X87630000Y-108077000D03*
X88900000Y-108077000D03*
X90170000Y-108077000D03*
X91440000Y-108077000D03*
X92710000Y-108077000D03*
X93980000Y-108077000D03*
X95250000Y-108077000D03*
X95250000Y-101727000D03*
X93980000Y-101727000D03*
X91440000Y-101727000D03*
X90170000Y-101727000D03*
X88900000Y-101727000D03*
X87630000Y-101727000D03*
X92710000Y-101727000D03*
X104140000Y-108077000D03*
X105410000Y-108077000D03*
X106680000Y-108077000D03*
X107950000Y-108077000D03*
X109220000Y-108077000D03*
X110490000Y-108077000D03*
X111760000Y-108077000D03*
X111760000Y-101727000D03*
X110490000Y-101727000D03*
X107950000Y-101727000D03*
X106680000Y-101727000D03*
X105410000Y-101727000D03*
X104140000Y-101727000D03*
X109220000Y-101727000D03*
D15*
X107855000Y-95885000D03*
X111855000Y-95885000D03*
D18*
X121285000Y-77470000D03*
X138430000Y-90805000D03*
X96520000Y-85090000D03*
X99695000Y-105410000D03*
X85725000Y-95885000D03*
X85090000Y-85090000D03*
X85090000Y-81280000D03*
X96520000Y-81280000D03*
X101600000Y-92710000D03*
X104775000Y-82550000D03*
X106680000Y-92710000D03*
X80645000Y-102235000D03*
X87800000Y-104100000D03*
X81915000Y-108585000D03*
X116205000Y-100330000D03*
X100330000Y-99060000D03*
X115570000Y-91440000D03*
X123825000Y-81280000D03*
X127000000Y-92856511D03*
X108900000Y-105100000D03*
X91450000Y-99300000D03*
D19*
X94615000Y-86161500D02*
X94615000Y-92775000D01*
X94615000Y-92775000D02*
X92805000Y-94585000D01*
X92805000Y-94585000D02*
X92805000Y-95885000D01*
X92710000Y-83185000D02*
X92710000Y-84256500D01*
X92710000Y-84256500D02*
X94615000Y-86161500D01*
X92710000Y-83185000D02*
X92710000Y-83502500D01*
X111760000Y-108077000D02*
X112514000Y-108077000D01*
X112514000Y-108077000D02*
X112717001Y-108280001D01*
X112717001Y-108280001D02*
X120954999Y-108280001D01*
X120954999Y-108280001D02*
X122555000Y-106680000D01*
X126270000Y-77470000D02*
X121285000Y-77470000D01*
X134620000Y-88900000D02*
X136525000Y-90805000D01*
X136525000Y-90805000D02*
X138430000Y-90805000D01*
X134620000Y-83695000D02*
X134620000Y-88900000D01*
X137160000Y-82455000D02*
X135860000Y-82455000D01*
X135860000Y-82455000D02*
X134620000Y-83695000D01*
X141065000Y-95885000D02*
X141065000Y-93440000D01*
X141065000Y-93440000D02*
X138430000Y-90805000D01*
X137160000Y-82455000D02*
X141510000Y-82455000D01*
X141510000Y-82455000D02*
X142240000Y-83185000D01*
X129540000Y-83185000D02*
X129540000Y-80540000D01*
X129540000Y-80540000D02*
X126470000Y-77470000D01*
X126470000Y-77470000D02*
X126270000Y-77470000D01*
X127000000Y-89535000D02*
X127000000Y-86630502D01*
X127000000Y-86630502D02*
X129540000Y-84090502D01*
X129540000Y-84090502D02*
X129540000Y-83185000D01*
X98330000Y-89060000D02*
X96520000Y-87250000D01*
X96520000Y-87250000D02*
X96520000Y-85090000D01*
X100330000Y-88360000D02*
X99030000Y-88360000D01*
X99030000Y-88360000D02*
X98330000Y-89060000D01*
X98330000Y-89060000D02*
X98330000Y-95885000D01*
X95250000Y-108077000D02*
X97028000Y-108077000D01*
X97028000Y-108077000D02*
X99695000Y-105410000D01*
X103600000Y-88360000D02*
X104775000Y-89535000D01*
X104775000Y-89535000D02*
X107950000Y-89535000D01*
X100330000Y-88360000D02*
X103600000Y-88360000D01*
X88805000Y-95885000D02*
X85725000Y-95885000D01*
X85090000Y-89535000D02*
X85090000Y-85090000D01*
X88900000Y-89535000D02*
X85090000Y-89535000D01*
X85090000Y-89535000D02*
X82890000Y-89535000D01*
X80645000Y-93885000D02*
X80645000Y-91780000D01*
X80645000Y-91780000D02*
X82890000Y-89535000D01*
X88805000Y-89630000D02*
X88900000Y-89535000D01*
X82890000Y-89535000D02*
X80645000Y-87290000D01*
X80645000Y-87290000D02*
X80645000Y-87090000D01*
X74930000Y-85725000D02*
X76295000Y-87090000D01*
X76295000Y-87090000D02*
X80645000Y-87090000D01*
X90170000Y-89535000D02*
X90170000Y-86774731D01*
X90170000Y-86774731D02*
X85090000Y-81694731D01*
X85090000Y-81694731D02*
X85090000Y-81280000D01*
X91440000Y-83185000D02*
X91440000Y-82279498D01*
X91440000Y-82279498D02*
X92439498Y-81280000D01*
X92439498Y-81280000D02*
X96520000Y-81280000D01*
X90170000Y-89535000D02*
X90170000Y-90606500D01*
X90170000Y-90606500D02*
X89919999Y-90856501D01*
X89919999Y-90856501D02*
X83768499Y-90856501D01*
X83768499Y-90856501D02*
X82550000Y-92075000D01*
X82550000Y-92075000D02*
X82550000Y-97280000D01*
X82550000Y-97280000D02*
X81945000Y-97885000D01*
X81945000Y-97885000D02*
X80645000Y-97885000D01*
X91440000Y-80645000D02*
X91440000Y-83185000D01*
X92075000Y-80010000D02*
X91440000Y-80645000D01*
X114300000Y-80010000D02*
X92075000Y-80010000D01*
X115570000Y-78740000D02*
X114300000Y-80010000D01*
X115570000Y-77470000D02*
X115570000Y-78740000D01*
X110291500Y-85725000D02*
X102995000Y-85725000D01*
X102995000Y-85725000D02*
X101630000Y-84360000D01*
X101630000Y-84360000D02*
X100330000Y-84360000D01*
X111760000Y-83185000D02*
X111760000Y-84256500D01*
X111760000Y-84256500D02*
X110291500Y-85725000D01*
X102330000Y-95885000D02*
X102330000Y-93440000D01*
X102330000Y-93440000D02*
X101600000Y-92710000D01*
X109220000Y-83185000D02*
X109220000Y-82113500D01*
X109220000Y-82113500D02*
X108969999Y-81863499D01*
X108969999Y-81863499D02*
X105461501Y-81863499D01*
X105461501Y-81863499D02*
X104775000Y-82550000D01*
X110490000Y-83185000D02*
X110490000Y-82113500D01*
X110490000Y-82113500D02*
X111323500Y-81280000D01*
X111323500Y-81280000D02*
X118110000Y-81280000D01*
X118110000Y-81280000D02*
X119380000Y-82550000D01*
X119380000Y-82550000D02*
X119380000Y-84360000D01*
X110490000Y-83185000D02*
X109220000Y-83185000D01*
X130270000Y-77470000D02*
X130270000Y-78770000D01*
X130270000Y-78770000D02*
X130810000Y-79310000D01*
X130810000Y-79310000D02*
X130810000Y-83185000D01*
X101060000Y-77470000D02*
X113030000Y-77470000D01*
X107855000Y-95885000D02*
X107855000Y-93885000D01*
X107855000Y-93885000D02*
X106680000Y-92710000D01*
X109220000Y-89535000D02*
X109220000Y-90170000D01*
X109220000Y-90170000D02*
X106680000Y-92710000D01*
X74930000Y-94615000D02*
X74930000Y-96520000D01*
X74930000Y-96520000D02*
X80645000Y-102235000D01*
X131540000Y-95885000D02*
X131540000Y-101585000D01*
X131540000Y-101585000D02*
X126445000Y-106680000D01*
X126445000Y-106680000D02*
X125095000Y-106680000D01*
X130810000Y-89535000D02*
X130810000Y-95155000D01*
X130810000Y-95155000D02*
X131540000Y-95885000D01*
X122503499Y-90856501D02*
X122015000Y-91345000D01*
X122015000Y-91345000D02*
X122015000Y-95885000D01*
X128270000Y-89535000D02*
X128270000Y-90606500D01*
X128270000Y-90606500D02*
X128019999Y-90856501D01*
X128019999Y-90856501D02*
X122503499Y-90856501D01*
X120015000Y-106680000D02*
X120015000Y-97735000D01*
X120015000Y-97735000D02*
X121865000Y-95885000D01*
X121865000Y-95885000D02*
X122015000Y-95885000D01*
X88900000Y-101727000D02*
X88900000Y-103000000D01*
X88900000Y-103000000D02*
X87800000Y-104100000D01*
X81915000Y-107235000D02*
X81915000Y-108585000D01*
X76280000Y-101600000D02*
X81915000Y-107235000D01*
X74930000Y-101600000D02*
X76280000Y-101600000D01*
X90170000Y-101727000D02*
X88900000Y-101727000D01*
X111760000Y-101727000D02*
X114808000Y-101727000D01*
X114808000Y-101727000D02*
X116205000Y-100330000D01*
X137065000Y-95885000D02*
X135890000Y-97060000D01*
X135890000Y-97060000D02*
X135890000Y-105410000D01*
X135890000Y-105410000D02*
X134620000Y-106680000D01*
X97060000Y-77470000D02*
X93020000Y-77470000D01*
X93020000Y-77470000D02*
X90170000Y-80320000D01*
X85820000Y-77470000D02*
X87320000Y-77470000D01*
X87320000Y-77470000D02*
X90170000Y-80320000D01*
X90170000Y-80320000D02*
X90170000Y-83185000D01*
X91440000Y-90805000D02*
X91440000Y-89535000D01*
X90170000Y-92075000D02*
X91440000Y-90805000D01*
X84455000Y-92075000D02*
X90170000Y-92075000D01*
X83724998Y-92805002D02*
X84455000Y-92075000D01*
X83724998Y-103100498D02*
X83724998Y-92805002D01*
X87630000Y-107005500D02*
X83724998Y-103100498D01*
X87630000Y-108077000D02*
X87630000Y-107005500D01*
X100330000Y-99060000D02*
X94615000Y-99060000D01*
X110490000Y-89535000D02*
X110490000Y-90440502D01*
X110490000Y-90440502D02*
X111489498Y-91440000D01*
X111489498Y-91440000D02*
X115570000Y-91440000D01*
X94615000Y-99060000D02*
X92710000Y-100965000D01*
X92710000Y-100965000D02*
X92710000Y-101727000D01*
X133985000Y-100840002D02*
X133985000Y-90534498D01*
X88900000Y-109148500D02*
X90150012Y-110398512D01*
X88900000Y-108077000D02*
X88900000Y-109148500D01*
X90150012Y-110398512D02*
X124426490Y-110398512D01*
X124426490Y-110398512D02*
X133985000Y-100840002D01*
X129540000Y-89535000D02*
X129540000Y-88463500D01*
X129540000Y-88463500D02*
X129790001Y-88213499D01*
X131664001Y-88213499D02*
X133985000Y-90534498D01*
X129790001Y-88213499D02*
X131664001Y-88213499D01*
X90170000Y-105410000D02*
X91440000Y-105410000D01*
X91440000Y-105410000D02*
X92075000Y-105410000D01*
X91440000Y-108077000D02*
X91440000Y-105410000D01*
X92710000Y-106045000D02*
X92710000Y-108077000D01*
X92075000Y-105410000D02*
X92710000Y-106045000D01*
X88900000Y-106680000D02*
X90170000Y-105410000D01*
X88900000Y-108077000D02*
X88900000Y-106680000D01*
X92710000Y-87900503D02*
X92710000Y-89535000D01*
X88900000Y-84090503D02*
X92710000Y-87900503D01*
X88900000Y-83185000D02*
X88900000Y-84090503D01*
X127000000Y-83185000D02*
X125730000Y-83185000D01*
X125730000Y-83185000D02*
X123825000Y-81280000D01*
X127540000Y-93396511D02*
X127000000Y-92856511D01*
X127540000Y-95885000D02*
X127540000Y-93396511D01*
X90555001Y-97404999D02*
X87630000Y-100330000D01*
X87630000Y-100330000D02*
X87630000Y-101727000D01*
X92710000Y-89535000D02*
X92710000Y-92829998D01*
X92710000Y-92829998D02*
X90555001Y-94984997D01*
X90555001Y-94984997D02*
X90555001Y-97404999D01*
X103386000Y-108077000D02*
X104140000Y-108077000D01*
X102064499Y-109398501D02*
X103386000Y-108077000D01*
X90564229Y-109398501D02*
X102064499Y-109398501D01*
X90170000Y-109004272D02*
X90564229Y-109398501D01*
X90170000Y-108077000D02*
X90170000Y-109004272D01*
X93980000Y-101727000D02*
X93980000Y-108077000D01*
X100131500Y-101727000D02*
X95250000Y-101727000D01*
X105410000Y-107005500D02*
X100131500Y-101727000D01*
X105410000Y-108077000D02*
X105410000Y-107005500D01*
X108900000Y-105100000D02*
X109220000Y-105420000D01*
X109220000Y-105420000D02*
X109220000Y-108077000D01*
X91440000Y-101727000D02*
X91440000Y-99310000D01*
X91440000Y-99310000D02*
X91450000Y-99300000D01*
X106680000Y-108077000D02*
X107950000Y-108077000D01*
X110490000Y-108077000D02*
X110490000Y-101727000D01*
X109220000Y-101727000D02*
X110490000Y-101727000D01*
D20*
G36*
X145288000Y-112268000D02*
X71882000Y-112268000D01*
X71882000Y-109662619D01*
X72694613Y-109662619D01*
X73034155Y-110484372D01*
X73662321Y-111113636D01*
X74483481Y-111454611D01*
X75372619Y-111455387D01*
X76194372Y-111115845D01*
X76823636Y-110487679D01*
X77164611Y-109666519D01*
X77165387Y-108777381D01*
X76825845Y-107955628D01*
X76197679Y-107326364D01*
X75376519Y-106985389D01*
X74487381Y-106984613D01*
X73665628Y-107324155D01*
X73036364Y-107952321D01*
X72695389Y-108773481D01*
X72694613Y-109662619D01*
X71882000Y-109662619D01*
X71882000Y-100750000D01*
X73432560Y-100750000D01*
X73432560Y-102450000D01*
X73476838Y-102685317D01*
X73615910Y-102901441D01*
X73828110Y-103046431D01*
X74080000Y-103097440D01*
X75780000Y-103097440D01*
X76015317Y-103053162D01*
X76231441Y-102914090D01*
X76276526Y-102848106D01*
X80949555Y-107521134D01*
X80699176Y-107771077D01*
X80480250Y-108298309D01*
X80479752Y-108869187D01*
X80697757Y-109396800D01*
X81101077Y-109800824D01*
X81628309Y-110019750D01*
X82199187Y-110020248D01*
X82726800Y-109802243D01*
X83130824Y-109398923D01*
X83349750Y-108871691D01*
X83350248Y-108300813D01*
X83132243Y-107773200D01*
X82800000Y-107440377D01*
X82800000Y-107235000D01*
X82732633Y-106896325D01*
X82540790Y-106609210D01*
X82540787Y-106609208D01*
X76905790Y-100974210D01*
X76800129Y-100903610D01*
X76618675Y-100782367D01*
X76562484Y-100771190D01*
X76426331Y-100744107D01*
X76383162Y-100514683D01*
X76244090Y-100298559D01*
X76031890Y-100153569D01*
X75780000Y-100102560D01*
X74080000Y-100102560D01*
X73844683Y-100146838D01*
X73628559Y-100285910D01*
X73483569Y-100498110D01*
X73432560Y-100750000D01*
X71882000Y-100750000D01*
X71882000Y-94615000D01*
X73415907Y-94615000D01*
X73528946Y-95183285D01*
X73850853Y-95665054D01*
X74045000Y-95794779D01*
X74045000Y-96519995D01*
X74044999Y-96520000D01*
X74101190Y-96802484D01*
X74112367Y-96858675D01*
X74198037Y-96986890D01*
X74304210Y-97145790D01*
X79210160Y-102051739D01*
X79209752Y-102519187D01*
X79427757Y-103046800D01*
X79831077Y-103450824D01*
X80358309Y-103669750D01*
X80929187Y-103670248D01*
X81456800Y-103452243D01*
X81860824Y-103048923D01*
X82079750Y-102521691D01*
X82080248Y-101950813D01*
X81862243Y-101423200D01*
X81458923Y-101019176D01*
X80931691Y-100800250D01*
X80461419Y-100799840D01*
X75815000Y-96153420D01*
X75815000Y-95794779D01*
X76009147Y-95665054D01*
X76331054Y-95183285D01*
X76444093Y-94615000D01*
X76331054Y-94046715D01*
X76009147Y-93564946D01*
X75967548Y-93537150D01*
X76015317Y-93528162D01*
X76231441Y-93389090D01*
X76376431Y-93176890D01*
X76427440Y-92925000D01*
X76427440Y-91225000D01*
X76383162Y-90989683D01*
X76244090Y-90773559D01*
X76031890Y-90628569D01*
X75780000Y-90577560D01*
X74080000Y-90577560D01*
X73844683Y-90621838D01*
X73628559Y-90760910D01*
X73483569Y-90973110D01*
X73432560Y-91225000D01*
X73432560Y-92925000D01*
X73476838Y-93160317D01*
X73615910Y-93376441D01*
X73828110Y-93521431D01*
X73895541Y-93535086D01*
X73850853Y-93564946D01*
X73528946Y-94046715D01*
X73415907Y-94615000D01*
X71882000Y-94615000D01*
X71882000Y-85725000D01*
X73415907Y-85725000D01*
X73528946Y-86293285D01*
X73850853Y-86775054D01*
X74332622Y-87096961D01*
X74900907Y-87210000D01*
X74959093Y-87210000D01*
X75129520Y-87176100D01*
X75669208Y-87715787D01*
X75669210Y-87715790D01*
X75817237Y-87814698D01*
X75956326Y-87907634D01*
X76295000Y-87975001D01*
X76295005Y-87975000D01*
X79197560Y-87975000D01*
X79197560Y-88090000D01*
X79241838Y-88325317D01*
X79380910Y-88541441D01*
X79593110Y-88686431D01*
X79845000Y-88737440D01*
X80840860Y-88737440D01*
X81638421Y-89535000D01*
X80019210Y-91154210D01*
X79827367Y-91441325D01*
X79816854Y-91494176D01*
X79759999Y-91780000D01*
X79760000Y-91780005D01*
X79760000Y-92253554D01*
X79609683Y-92281838D01*
X79393559Y-92420910D01*
X79248569Y-92633110D01*
X79197560Y-92885000D01*
X79197560Y-94885000D01*
X79241838Y-95120317D01*
X79380910Y-95336441D01*
X79593110Y-95481431D01*
X79845000Y-95532440D01*
X81445000Y-95532440D01*
X81665000Y-95491044D01*
X81665000Y-96282111D01*
X81445000Y-96237560D01*
X79845000Y-96237560D01*
X79609683Y-96281838D01*
X79393559Y-96420910D01*
X79248569Y-96633110D01*
X79197560Y-96885000D01*
X79197560Y-98885000D01*
X79241838Y-99120317D01*
X79380910Y-99336441D01*
X79593110Y-99481431D01*
X79845000Y-99532440D01*
X81445000Y-99532440D01*
X81680317Y-99488162D01*
X81896441Y-99349090D01*
X82041431Y-99136890D01*
X82092440Y-98885000D01*
X82092440Y-98740673D01*
X82227484Y-98713810D01*
X82283675Y-98702633D01*
X82570790Y-98510790D01*
X82839998Y-98241582D01*
X82839998Y-103100493D01*
X82839997Y-103100498D01*
X82896188Y-103382982D01*
X82907365Y-103439173D01*
X83099208Y-103726288D01*
X86745000Y-107372079D01*
X86745000Y-107424317D01*
X86728560Y-107505500D01*
X86728560Y-108648500D01*
X86772838Y-108883817D01*
X86911910Y-109099941D01*
X87124110Y-109244931D01*
X87376000Y-109295940D01*
X87884000Y-109295940D01*
X88038543Y-109266861D01*
X88064812Y-109398923D01*
X88082367Y-109487175D01*
X88202200Y-109666519D01*
X88274210Y-109774290D01*
X89524220Y-111024299D01*
X89524222Y-111024302D01*
X89811337Y-111216145D01*
X89867528Y-111227322D01*
X90150012Y-111283513D01*
X90150017Y-111283512D01*
X124426485Y-111283512D01*
X124426490Y-111283513D01*
X124708974Y-111227322D01*
X124765165Y-111216145D01*
X125052280Y-111024302D01*
X126413962Y-109662619D01*
X140004613Y-109662619D01*
X140344155Y-110484372D01*
X140972321Y-111113636D01*
X141793481Y-111454611D01*
X142682619Y-111455387D01*
X143504372Y-111115845D01*
X144133636Y-110487679D01*
X144474611Y-109666519D01*
X144475387Y-108777381D01*
X144135845Y-107955628D01*
X143507679Y-107326364D01*
X142686519Y-106985389D01*
X141797381Y-106984613D01*
X140975628Y-107324155D01*
X140346364Y-107952321D01*
X140005389Y-108773481D01*
X140004613Y-109662619D01*
X126413962Y-109662619D01*
X130246581Y-105830000D01*
X130582560Y-105830000D01*
X130582560Y-107530000D01*
X130626838Y-107765317D01*
X130765910Y-107981441D01*
X130978110Y-108126431D01*
X131230000Y-108177440D01*
X132930000Y-108177440D01*
X133165317Y-108133162D01*
X133381441Y-107994090D01*
X133526431Y-107781890D01*
X133540086Y-107714459D01*
X133569946Y-107759147D01*
X134051715Y-108081054D01*
X134620000Y-108194093D01*
X135188285Y-108081054D01*
X135670054Y-107759147D01*
X135991961Y-107277378D01*
X136105000Y-106709093D01*
X136105000Y-106650907D01*
X136071100Y-106480480D01*
X136515787Y-106035792D01*
X136515790Y-106035790D01*
X136707633Y-105748675D01*
X136717973Y-105696691D01*
X136775001Y-105410000D01*
X136775000Y-105409995D01*
X136775000Y-97426580D01*
X136819140Y-97382440D01*
X138065000Y-97382440D01*
X138300317Y-97338162D01*
X138516441Y-97199090D01*
X138661431Y-96986890D01*
X138712440Y-96735000D01*
X138712440Y-95035000D01*
X138668162Y-94799683D01*
X138529090Y-94583559D01*
X138316890Y-94438569D01*
X138065000Y-94387560D01*
X136065000Y-94387560D01*
X135829683Y-94431838D01*
X135613559Y-94570910D01*
X135468569Y-94783110D01*
X135417560Y-95035000D01*
X135417560Y-96280860D01*
X135264210Y-96434210D01*
X135072367Y-96721325D01*
X135072367Y-96721326D01*
X135004999Y-97060000D01*
X135005000Y-97060005D01*
X135005000Y-105043421D01*
X134838960Y-105209461D01*
X134620000Y-105165907D01*
X134051715Y-105278946D01*
X133569946Y-105600853D01*
X133542150Y-105642452D01*
X133533162Y-105594683D01*
X133394090Y-105378559D01*
X133181890Y-105233569D01*
X132930000Y-105182560D01*
X131230000Y-105182560D01*
X130994683Y-105226838D01*
X130778559Y-105365910D01*
X130633569Y-105578110D01*
X130582560Y-105830000D01*
X130246581Y-105830000D01*
X134610787Y-101465794D01*
X134610790Y-101465792D01*
X134802633Y-101178677D01*
X134870000Y-100840002D01*
X134870000Y-90534503D01*
X134870001Y-90534498D01*
X134836996Y-90368576D01*
X135899208Y-91430787D01*
X135899210Y-91430790D01*
X136186325Y-91622633D01*
X136242516Y-91633810D01*
X136525000Y-91690001D01*
X136525005Y-91690000D01*
X137285829Y-91690000D01*
X137616077Y-92020824D01*
X138143309Y-92239750D01*
X138613581Y-92240160D01*
X140180000Y-93806579D01*
X140180000Y-94387560D01*
X140065000Y-94387560D01*
X139829683Y-94431838D01*
X139613559Y-94570910D01*
X139468569Y-94783110D01*
X139417560Y-95035000D01*
X139417560Y-96735000D01*
X139461838Y-96970317D01*
X139600910Y-97186441D01*
X139813110Y-97331431D01*
X140065000Y-97382440D01*
X142065000Y-97382440D01*
X142300317Y-97338162D01*
X142516441Y-97199090D01*
X142661431Y-96986890D01*
X142712440Y-96735000D01*
X142712440Y-95035000D01*
X142668162Y-94799683D01*
X142529090Y-94583559D01*
X142316890Y-94438569D01*
X142065000Y-94387560D01*
X141950000Y-94387560D01*
X141950000Y-93440005D01*
X141950001Y-93440000D01*
X141888337Y-93130000D01*
X141882633Y-93101325D01*
X141690790Y-92814210D01*
X141690787Y-92814208D01*
X139864840Y-90988261D01*
X139865248Y-90520813D01*
X139647243Y-89993200D01*
X139243923Y-89589176D01*
X138716691Y-89370250D01*
X138145813Y-89369752D01*
X137618200Y-89587757D01*
X137285377Y-89920000D01*
X136891579Y-89920000D01*
X135505000Y-88533420D01*
X135505000Y-86740750D01*
X135725000Y-86740750D01*
X135725000Y-87581309D01*
X135821673Y-87814698D01*
X136000301Y-87993327D01*
X136233690Y-88090000D01*
X136874250Y-88090000D01*
X137033000Y-87931250D01*
X137033000Y-86582000D01*
X137287000Y-86582000D01*
X137287000Y-87931250D01*
X137445750Y-88090000D01*
X138086310Y-88090000D01*
X138319699Y-87993327D01*
X138498327Y-87814698D01*
X138595000Y-87581309D01*
X138595000Y-86740750D01*
X138436250Y-86582000D01*
X137287000Y-86582000D01*
X137033000Y-86582000D01*
X135883750Y-86582000D01*
X135725000Y-86740750D01*
X135505000Y-86740750D01*
X135505000Y-85328691D01*
X135725000Y-85328691D01*
X135725000Y-86169250D01*
X135883750Y-86328000D01*
X137033000Y-86328000D01*
X137033000Y-84978750D01*
X137287000Y-84978750D01*
X137287000Y-86328000D01*
X138436250Y-86328000D01*
X138595000Y-86169250D01*
X138595000Y-86010750D01*
X140755000Y-86010750D01*
X140755000Y-86701310D01*
X140851673Y-86934699D01*
X141030302Y-87113327D01*
X141263691Y-87210000D01*
X141954250Y-87210000D01*
X142113000Y-87051250D01*
X142113000Y-85852000D01*
X142367000Y-85852000D01*
X142367000Y-87051250D01*
X142525750Y-87210000D01*
X143216309Y-87210000D01*
X143449698Y-87113327D01*
X143628327Y-86934699D01*
X143725000Y-86701310D01*
X143725000Y-86010750D01*
X143566250Y-85852000D01*
X142367000Y-85852000D01*
X142113000Y-85852000D01*
X140913750Y-85852000D01*
X140755000Y-86010750D01*
X138595000Y-86010750D01*
X138595000Y-85328691D01*
X138498327Y-85095302D01*
X138319699Y-84916673D01*
X138086310Y-84820000D01*
X137445750Y-84820000D01*
X137287000Y-84978750D01*
X137033000Y-84978750D01*
X136874250Y-84820000D01*
X136233690Y-84820000D01*
X136000301Y-84916673D01*
X135821673Y-85095302D01*
X135725000Y-85328691D01*
X135505000Y-85328691D01*
X135505000Y-84061580D01*
X135803597Y-83762983D01*
X135895910Y-83906441D01*
X136108110Y-84051431D01*
X136360000Y-84102440D01*
X137960000Y-84102440D01*
X138195317Y-84058162D01*
X138411441Y-83919090D01*
X138556431Y-83706890D01*
X138607440Y-83455000D01*
X138607440Y-83340000D01*
X140756738Y-83340000D01*
X140838946Y-83753285D01*
X141160853Y-84235054D01*
X141204777Y-84264403D01*
X141030302Y-84336673D01*
X140851673Y-84515301D01*
X140755000Y-84748690D01*
X140755000Y-85439250D01*
X140913750Y-85598000D01*
X142113000Y-85598000D01*
X142113000Y-85578000D01*
X142367000Y-85578000D01*
X142367000Y-85598000D01*
X143566250Y-85598000D01*
X143725000Y-85439250D01*
X143725000Y-84748690D01*
X143628327Y-84515301D01*
X143449698Y-84336673D01*
X143275223Y-84264403D01*
X143319147Y-84235054D01*
X143641054Y-83753285D01*
X143754093Y-83185000D01*
X143641054Y-82616715D01*
X143319147Y-82134946D01*
X142837378Y-81813039D01*
X142269093Y-81700000D01*
X142210907Y-81700000D01*
X142004006Y-81741155D01*
X141848675Y-81637367D01*
X141792484Y-81626190D01*
X141510000Y-81569999D01*
X141509995Y-81570000D01*
X138607440Y-81570000D01*
X138607440Y-81455000D01*
X138563162Y-81219683D01*
X138424090Y-81003559D01*
X138211890Y-80858569D01*
X137960000Y-80807560D01*
X136360000Y-80807560D01*
X136124683Y-80851838D01*
X135908559Y-80990910D01*
X135763569Y-81203110D01*
X135712560Y-81455000D01*
X135712560Y-81599327D01*
X135577516Y-81626190D01*
X135521325Y-81637367D01*
X135234210Y-81829210D01*
X135234208Y-81829213D01*
X133994210Y-83069210D01*
X133802367Y-83356325D01*
X133802367Y-83356326D01*
X133734999Y-83695000D01*
X133735000Y-83695005D01*
X133735000Y-88899995D01*
X133734999Y-88900000D01*
X133766826Y-89060000D01*
X133768004Y-89065923D01*
X132289791Y-87587709D01*
X132276009Y-87578500D01*
X132002676Y-87395866D01*
X131946485Y-87384689D01*
X131664001Y-87328498D01*
X131663996Y-87328499D01*
X129790006Y-87328499D01*
X129790001Y-87328498D01*
X129507517Y-87384689D01*
X129451326Y-87395866D01*
X129164211Y-87587709D01*
X129164209Y-87587712D01*
X128914210Y-87837710D01*
X128722367Y-88124825D01*
X128722367Y-88124826D01*
X128678119Y-88347270D01*
X128524000Y-88316060D01*
X128016000Y-88316060D01*
X127885000Y-88340709D01*
X127885000Y-86997082D01*
X130165787Y-84716294D01*
X130165790Y-84716292D01*
X130357633Y-84429177D01*
X130370140Y-84366302D01*
X130556000Y-84403940D01*
X131064000Y-84403940D01*
X131299317Y-84359662D01*
X131515441Y-84220590D01*
X131660431Y-84008390D01*
X131711440Y-83756500D01*
X131711440Y-82613500D01*
X131695000Y-82526129D01*
X131695000Y-79310000D01*
X131627633Y-78971325D01*
X131544987Y-78847635D01*
X131721441Y-78734090D01*
X131866431Y-78521890D01*
X131917440Y-78270000D01*
X131917440Y-76670000D01*
X131912288Y-76642619D01*
X140004613Y-76642619D01*
X140344155Y-77464372D01*
X140972321Y-78093636D01*
X141793481Y-78434611D01*
X142682619Y-78435387D01*
X143504372Y-78095845D01*
X144133636Y-77467679D01*
X144474611Y-76646519D01*
X144475387Y-75757381D01*
X144135845Y-74935628D01*
X143507679Y-74306364D01*
X142686519Y-73965389D01*
X141797381Y-73964613D01*
X140975628Y-74304155D01*
X140346364Y-74932321D01*
X140005389Y-75753481D01*
X140004613Y-76642619D01*
X131912288Y-76642619D01*
X131873162Y-76434683D01*
X131734090Y-76218559D01*
X131521890Y-76073569D01*
X131270000Y-76022560D01*
X129270000Y-76022560D01*
X129034683Y-76066838D01*
X128818559Y-76205910D01*
X128673569Y-76418110D01*
X128622560Y-76670000D01*
X128622560Y-78270000D01*
X128645965Y-78394385D01*
X127917440Y-77665860D01*
X127917440Y-76670000D01*
X127873162Y-76434683D01*
X127734090Y-76218559D01*
X127521890Y-76073569D01*
X127270000Y-76022560D01*
X125270000Y-76022560D01*
X125034683Y-76066838D01*
X124818559Y-76205910D01*
X124673569Y-76418110D01*
X124639773Y-76585000D01*
X122429171Y-76585000D01*
X122098923Y-76254176D01*
X121571691Y-76035250D01*
X121000813Y-76034752D01*
X120473200Y-76252757D01*
X120069176Y-76656077D01*
X119850250Y-77183309D01*
X119849752Y-77754187D01*
X120067757Y-78281800D01*
X120471077Y-78685824D01*
X120998309Y-78904750D01*
X121569187Y-78905248D01*
X122096800Y-78687243D01*
X122429623Y-78355000D01*
X124638554Y-78355000D01*
X124666838Y-78505317D01*
X124805910Y-78721441D01*
X125018110Y-78866431D01*
X125270000Y-78917440D01*
X126665860Y-78917440D01*
X128655000Y-80906579D01*
X128655000Y-81992588D01*
X128524000Y-81966060D01*
X128016000Y-81966060D01*
X127780683Y-82010338D01*
X127639629Y-82101104D01*
X127613698Y-82075173D01*
X127380309Y-81978500D01*
X127285750Y-81978500D01*
X127127000Y-82137250D01*
X127127000Y-83058000D01*
X127147000Y-83058000D01*
X127147000Y-83312000D01*
X127127000Y-83312000D01*
X127127000Y-84232750D01*
X127285750Y-84391500D01*
X127380309Y-84391500D01*
X127613698Y-84294827D01*
X127640235Y-84268291D01*
X127764110Y-84352931D01*
X127981890Y-84397033D01*
X126374210Y-86004712D01*
X126182367Y-86291827D01*
X126182367Y-86291828D01*
X126114999Y-86630502D01*
X126115000Y-86630507D01*
X126115000Y-88882317D01*
X126098560Y-88963500D01*
X126098560Y-89971501D01*
X122503504Y-89971501D01*
X122503499Y-89971500D01*
X122221015Y-90027691D01*
X122164824Y-90038868D01*
X121877709Y-90230711D01*
X121877707Y-90230714D01*
X121389210Y-90719210D01*
X121197367Y-91006325D01*
X121197367Y-91006326D01*
X121129999Y-91345000D01*
X121130000Y-91345005D01*
X121130000Y-94387560D01*
X121015000Y-94387560D01*
X120779683Y-94431838D01*
X120563559Y-94570910D01*
X120418569Y-94783110D01*
X120367560Y-95035000D01*
X120367560Y-96130861D01*
X119650000Y-96848420D01*
X119650000Y-96170750D01*
X119491250Y-96012000D01*
X118142000Y-96012000D01*
X118142000Y-97211250D01*
X118300750Y-97370000D01*
X119141309Y-97370000D01*
X119243140Y-97327820D01*
X119197367Y-97396325D01*
X119186190Y-97452516D01*
X119129999Y-97735000D01*
X119130000Y-97735005D01*
X119130000Y-105490568D01*
X118964946Y-105600853D01*
X118643039Y-106082622D01*
X118530000Y-106650907D01*
X118530000Y-106709093D01*
X118643039Y-107277378D01*
X118721632Y-107395001D01*
X113055667Y-107395001D01*
X112852675Y-107259367D01*
X112796484Y-107248190D01*
X112574610Y-107204055D01*
X112478090Y-107054059D01*
X112265890Y-106909069D01*
X112014000Y-106858060D01*
X111506000Y-106858060D01*
X111375000Y-106882709D01*
X111375000Y-102919412D01*
X111506000Y-102945940D01*
X112014000Y-102945940D01*
X112249317Y-102901662D01*
X112465441Y-102762590D01*
X112568335Y-102612000D01*
X114807995Y-102612000D01*
X114808000Y-102612001D01*
X115090484Y-102555810D01*
X115146675Y-102544633D01*
X115433790Y-102352790D01*
X116021739Y-101764840D01*
X116489187Y-101765248D01*
X117016800Y-101547243D01*
X117420824Y-101143923D01*
X117639750Y-100616691D01*
X117640248Y-100045813D01*
X117422243Y-99518200D01*
X117018923Y-99114176D01*
X116491691Y-98895250D01*
X115920813Y-98894752D01*
X115393200Y-99112757D01*
X114989176Y-99516077D01*
X114770250Y-100043309D01*
X114769840Y-100513581D01*
X114441420Y-100842000D01*
X112566853Y-100842000D01*
X112478090Y-100704059D01*
X112265890Y-100559069D01*
X112014000Y-100508060D01*
X111506000Y-100508060D01*
X111270683Y-100552338D01*
X111124093Y-100646666D01*
X110995890Y-100559069D01*
X110744000Y-100508060D01*
X110236000Y-100508060D01*
X110000683Y-100552338D01*
X109854093Y-100646666D01*
X109725890Y-100559069D01*
X109474000Y-100508060D01*
X108966000Y-100508060D01*
X108730683Y-100552338D01*
X108584093Y-100646666D01*
X108455890Y-100559069D01*
X108204000Y-100508060D01*
X107696000Y-100508060D01*
X107460683Y-100552338D01*
X107314093Y-100646666D01*
X107185890Y-100559069D01*
X106934000Y-100508060D01*
X106426000Y-100508060D01*
X106190683Y-100552338D01*
X106044093Y-100646666D01*
X105915890Y-100559069D01*
X105664000Y-100508060D01*
X105156000Y-100508060D01*
X104920683Y-100552338D01*
X104779629Y-100643104D01*
X104753698Y-100617173D01*
X104520309Y-100520500D01*
X104425750Y-100520500D01*
X104267000Y-100679250D01*
X104267000Y-101600000D01*
X104287000Y-101600000D01*
X104287000Y-101854000D01*
X104267000Y-101854000D01*
X104267000Y-102774750D01*
X104425750Y-102933500D01*
X104520309Y-102933500D01*
X104753698Y-102836827D01*
X104780235Y-102810291D01*
X104904110Y-102894931D01*
X105156000Y-102945940D01*
X105664000Y-102945940D01*
X105899317Y-102901662D01*
X106045907Y-102807334D01*
X106174110Y-102894931D01*
X106426000Y-102945940D01*
X106934000Y-102945940D01*
X107169317Y-102901662D01*
X107315907Y-102807334D01*
X107444110Y-102894931D01*
X107696000Y-102945940D01*
X108204000Y-102945940D01*
X108439317Y-102901662D01*
X108585907Y-102807334D01*
X108714110Y-102894931D01*
X108966000Y-102945940D01*
X109474000Y-102945940D01*
X109605000Y-102921291D01*
X109605000Y-103838947D01*
X109186691Y-103665250D01*
X108615813Y-103664752D01*
X108088200Y-103882757D01*
X107684176Y-104286077D01*
X107465250Y-104813309D01*
X107464752Y-105384187D01*
X107682757Y-105911800D01*
X108086077Y-106315824D01*
X108335000Y-106419186D01*
X108335000Y-106884588D01*
X108204000Y-106858060D01*
X107696000Y-106858060D01*
X107460683Y-106902338D01*
X107314093Y-106996666D01*
X107185890Y-106909069D01*
X106934000Y-106858060D01*
X106426000Y-106858060D01*
X106271457Y-106887139D01*
X106227633Y-106666825D01*
X106189136Y-106609210D01*
X106035790Y-106379710D01*
X106035787Y-106379708D01*
X101668830Y-102012750D01*
X103251000Y-102012750D01*
X103251000Y-102424810D01*
X103347673Y-102658199D01*
X103526302Y-102836827D01*
X103759691Y-102933500D01*
X103854250Y-102933500D01*
X104013000Y-102774750D01*
X104013000Y-101854000D01*
X103409750Y-101854000D01*
X103251000Y-102012750D01*
X101668830Y-102012750D01*
X100757290Y-101101210D01*
X100649504Y-101029190D01*
X103251000Y-101029190D01*
X103251000Y-101441250D01*
X103409750Y-101600000D01*
X104013000Y-101600000D01*
X104013000Y-100679250D01*
X103854250Y-100520500D01*
X103759691Y-100520500D01*
X103526302Y-100617173D01*
X103347673Y-100795801D01*
X103251000Y-101029190D01*
X100649504Y-101029190D01*
X100470175Y-100909367D01*
X100413984Y-100898190D01*
X100131500Y-100841999D01*
X100131495Y-100842000D01*
X96056853Y-100842000D01*
X95968090Y-100704059D01*
X95755890Y-100559069D01*
X95504000Y-100508060D01*
X94996000Y-100508060D01*
X94760683Y-100552338D01*
X94614093Y-100646666D01*
X94485890Y-100559069D01*
X94387446Y-100539134D01*
X94981579Y-99945000D01*
X99185829Y-99945000D01*
X99516077Y-100275824D01*
X100043309Y-100494750D01*
X100614187Y-100495248D01*
X101141800Y-100277243D01*
X101545824Y-99873923D01*
X101764750Y-99346691D01*
X101765248Y-98775813D01*
X101547243Y-98248200D01*
X101143923Y-97844176D01*
X100616691Y-97625250D01*
X100045813Y-97624752D01*
X99518200Y-97842757D01*
X99185377Y-98175000D01*
X94615005Y-98175000D01*
X94615000Y-98174999D01*
X94332516Y-98231190D01*
X94276325Y-98242367D01*
X93989210Y-98434210D01*
X93989208Y-98434213D01*
X92884792Y-99538628D01*
X92885248Y-99015813D01*
X92667243Y-98488200D01*
X92263923Y-98084176D01*
X91736691Y-97865250D01*
X91165813Y-97864752D01*
X90638200Y-98082757D01*
X90234176Y-98486077D01*
X90015250Y-99013309D01*
X90014752Y-99584187D01*
X90232757Y-100111800D01*
X90555000Y-100434605D01*
X90555000Y-100534588D01*
X90424000Y-100508060D01*
X89916000Y-100508060D01*
X89680683Y-100552338D01*
X89534093Y-100646666D01*
X89405890Y-100559069D01*
X89154000Y-100508060D01*
X88646000Y-100508060D01*
X88410683Y-100552338D01*
X88269629Y-100643104D01*
X88243698Y-100617173D01*
X88010309Y-100520500D01*
X87915750Y-100520500D01*
X87757000Y-100679250D01*
X87757000Y-101600000D01*
X87777000Y-101600000D01*
X87777000Y-101854000D01*
X87757000Y-101854000D01*
X87757000Y-101874000D01*
X87503000Y-101874000D01*
X87503000Y-101854000D01*
X86899750Y-101854000D01*
X86741000Y-102012750D01*
X86741000Y-102424810D01*
X86837673Y-102658199D01*
X87016302Y-102836827D01*
X87057779Y-102854007D01*
X86988200Y-102882757D01*
X86584176Y-103286077D01*
X86365250Y-103813309D01*
X86364752Y-104384187D01*
X86438324Y-104562244D01*
X84609998Y-102733918D01*
X84609998Y-101029190D01*
X86741000Y-101029190D01*
X86741000Y-101441250D01*
X86899750Y-101600000D01*
X87503000Y-101600000D01*
X87503000Y-100679250D01*
X87344250Y-100520500D01*
X87249691Y-100520500D01*
X87016302Y-100617173D01*
X86837673Y-100795801D01*
X86741000Y-101029190D01*
X84609998Y-101029190D01*
X84609998Y-96799219D01*
X84911077Y-97100824D01*
X85438309Y-97319750D01*
X86009187Y-97320248D01*
X86536800Y-97102243D01*
X86869623Y-96770000D01*
X87173554Y-96770000D01*
X87201838Y-96920317D01*
X87340910Y-97136441D01*
X87553110Y-97281431D01*
X87805000Y-97332440D01*
X89805000Y-97332440D01*
X90040317Y-97288162D01*
X90256441Y-97149090D01*
X90401431Y-96936890D01*
X90452440Y-96685000D01*
X90452440Y-95085000D01*
X90408162Y-94849683D01*
X90269090Y-94633559D01*
X90056890Y-94488569D01*
X89805000Y-94437560D01*
X87805000Y-94437560D01*
X87569683Y-94481838D01*
X87353559Y-94620910D01*
X87208569Y-94833110D01*
X87174773Y-95000000D01*
X86869171Y-95000000D01*
X86538923Y-94669176D01*
X86011691Y-94450250D01*
X85440813Y-94449752D01*
X84913200Y-94667757D01*
X84609998Y-94970431D01*
X84609998Y-93171582D01*
X84821579Y-92960000D01*
X90169995Y-92960000D01*
X90170000Y-92960001D01*
X90452484Y-92903810D01*
X90508675Y-92892633D01*
X90795790Y-92700790D01*
X90795791Y-92700789D01*
X92065787Y-91430792D01*
X92065790Y-91430790D01*
X92257633Y-91143675D01*
X92267973Y-91091691D01*
X92325001Y-90805000D01*
X92325000Y-90804995D01*
X92325000Y-90739557D01*
X92329691Y-90741500D01*
X92424250Y-90741500D01*
X92583000Y-90582750D01*
X92583000Y-89662000D01*
X92837000Y-89662000D01*
X92837000Y-90582750D01*
X92995750Y-90741500D01*
X93090309Y-90741500D01*
X93323698Y-90644827D01*
X93502327Y-90466199D01*
X93599000Y-90232810D01*
X93599000Y-89820750D01*
X93440250Y-89662000D01*
X92837000Y-89662000D01*
X92583000Y-89662000D01*
X92563000Y-89662000D01*
X92563000Y-89408000D01*
X92583000Y-89408000D01*
X92583000Y-88487250D01*
X92837000Y-88487250D01*
X92837000Y-89408000D01*
X93440250Y-89408000D01*
X93599000Y-89249250D01*
X93599000Y-88837190D01*
X93502327Y-88603801D01*
X93323698Y-88425173D01*
X93090309Y-88328500D01*
X92995750Y-88328500D01*
X92837000Y-88487250D01*
X92583000Y-88487250D01*
X92424250Y-88328500D01*
X92329691Y-88328500D01*
X92096302Y-88425173D01*
X92069765Y-88451709D01*
X91945890Y-88367069D01*
X91694000Y-88316060D01*
X91186000Y-88316060D01*
X91055000Y-88340709D01*
X91055000Y-86774736D01*
X91055001Y-86774731D01*
X90987633Y-86436057D01*
X90987633Y-86436056D01*
X90795790Y-86148941D01*
X90795787Y-86148939D01*
X89027002Y-84380154D01*
X89027002Y-84232752D01*
X89185750Y-84391500D01*
X89280309Y-84391500D01*
X89513698Y-84294827D01*
X89540235Y-84268291D01*
X89664110Y-84352931D01*
X89916000Y-84403940D01*
X90424000Y-84403940D01*
X90659317Y-84359662D01*
X90805907Y-84265334D01*
X90934110Y-84352931D01*
X91186000Y-84403940D01*
X91694000Y-84403940D01*
X91848543Y-84374861D01*
X91866316Y-84464210D01*
X91892367Y-84595175D01*
X92055952Y-84839999D01*
X92084210Y-84882290D01*
X93730000Y-86528079D01*
X93730000Y-92408421D01*
X92179210Y-93959210D01*
X91987367Y-94246325D01*
X91987367Y-94246326D01*
X91949327Y-94437560D01*
X91805000Y-94437560D01*
X91569683Y-94481838D01*
X91353559Y-94620910D01*
X91208569Y-94833110D01*
X91157560Y-95085000D01*
X91157560Y-96685000D01*
X91201838Y-96920317D01*
X91340910Y-97136441D01*
X91553110Y-97281431D01*
X91805000Y-97332440D01*
X93805000Y-97332440D01*
X94040317Y-97288162D01*
X94256441Y-97149090D01*
X94401431Y-96936890D01*
X94452440Y-96685000D01*
X94452440Y-95085000D01*
X94408162Y-94849683D01*
X94269090Y-94633559D01*
X94113993Y-94527586D01*
X95240787Y-93400792D01*
X95240790Y-93400790D01*
X95432633Y-93113675D01*
X95432634Y-93113674D01*
X95500001Y-92775000D01*
X95500000Y-92774995D01*
X95500000Y-86161505D01*
X95500001Y-86161500D01*
X95484571Y-86083932D01*
X95635000Y-86234623D01*
X95635000Y-87249995D01*
X95634999Y-87250000D01*
X95687812Y-87515503D01*
X95702367Y-87588675D01*
X95853390Y-87814698D01*
X95894210Y-87875790D01*
X97445000Y-89426579D01*
X97445000Y-94437560D01*
X97330000Y-94437560D01*
X97094683Y-94481838D01*
X96878559Y-94620910D01*
X96733569Y-94833110D01*
X96682560Y-95085000D01*
X96682560Y-96685000D01*
X96726838Y-96920317D01*
X96865910Y-97136441D01*
X97078110Y-97281431D01*
X97330000Y-97332440D01*
X99330000Y-97332440D01*
X99565317Y-97288162D01*
X99781441Y-97149090D01*
X99926431Y-96936890D01*
X99977440Y-96685000D01*
X99977440Y-95085000D01*
X99933162Y-94849683D01*
X99794090Y-94633559D01*
X99581890Y-94488569D01*
X99330000Y-94437560D01*
X99215000Y-94437560D01*
X99215000Y-92994187D01*
X100164752Y-92994187D01*
X100382757Y-93521800D01*
X100786077Y-93925824D01*
X101313309Y-94144750D01*
X101445000Y-94144865D01*
X101445000Y-94437560D01*
X101330000Y-94437560D01*
X101094683Y-94481838D01*
X100878559Y-94620910D01*
X100733569Y-94833110D01*
X100682560Y-95085000D01*
X100682560Y-96685000D01*
X100726838Y-96920317D01*
X100865910Y-97136441D01*
X101078110Y-97281431D01*
X101330000Y-97332440D01*
X103330000Y-97332440D01*
X103565317Y-97288162D01*
X103781441Y-97149090D01*
X103926431Y-96936890D01*
X103977440Y-96685000D01*
X103977440Y-95085000D01*
X103933162Y-94849683D01*
X103794090Y-94633559D01*
X103581890Y-94488569D01*
X103330000Y-94437560D01*
X103215000Y-94437560D01*
X103215000Y-93440005D01*
X103215001Y-93440000D01*
X103153337Y-93130000D01*
X103147633Y-93101325D01*
X103034806Y-92932467D01*
X103035248Y-92425813D01*
X102817243Y-91898200D01*
X102413923Y-91494176D01*
X101886691Y-91275250D01*
X101315813Y-91274752D01*
X100788200Y-91492757D01*
X100384176Y-91896077D01*
X100165250Y-92423309D01*
X100164752Y-92994187D01*
X99215000Y-92994187D01*
X99215000Y-89913310D01*
X99278110Y-89956431D01*
X99530000Y-90007440D01*
X101130000Y-90007440D01*
X101365317Y-89963162D01*
X101581441Y-89824090D01*
X101726431Y-89611890D01*
X101777440Y-89360000D01*
X101777440Y-89245000D01*
X103233420Y-89245000D01*
X104149208Y-90160787D01*
X104149210Y-90160790D01*
X104436325Y-90352633D01*
X104492516Y-90363810D01*
X104775000Y-90420001D01*
X104775005Y-90420000D01*
X107143147Y-90420000D01*
X107231910Y-90557941D01*
X107438989Y-90699432D01*
X106863261Y-91275160D01*
X106395813Y-91274752D01*
X105868200Y-91492757D01*
X105464176Y-91896077D01*
X105245250Y-92423309D01*
X105244752Y-92994187D01*
X105462757Y-93521800D01*
X105866077Y-93925824D01*
X106393309Y-94144750D01*
X106863581Y-94145160D01*
X106970000Y-94251579D01*
X106970000Y-94387560D01*
X106855000Y-94387560D01*
X106619683Y-94431838D01*
X106403559Y-94570910D01*
X106258569Y-94783110D01*
X106207560Y-95035000D01*
X106207560Y-96735000D01*
X106251838Y-96970317D01*
X106390910Y-97186441D01*
X106603110Y-97331431D01*
X106855000Y-97382440D01*
X108855000Y-97382440D01*
X109090317Y-97338162D01*
X109306441Y-97199090D01*
X109451431Y-96986890D01*
X109502440Y-96735000D01*
X109502440Y-96170750D01*
X110220000Y-96170750D01*
X110220000Y-96861310D01*
X110316673Y-97094699D01*
X110495302Y-97273327D01*
X110728691Y-97370000D01*
X111569250Y-97370000D01*
X111728000Y-97211250D01*
X111728000Y-96012000D01*
X111982000Y-96012000D01*
X111982000Y-97211250D01*
X112140750Y-97370000D01*
X112981309Y-97370000D01*
X113214698Y-97273327D01*
X113393327Y-97094699D01*
X113490000Y-96861310D01*
X113490000Y-96170750D01*
X116380000Y-96170750D01*
X116380000Y-96861310D01*
X116476673Y-97094699D01*
X116655302Y-97273327D01*
X116888691Y-97370000D01*
X117729250Y-97370000D01*
X117888000Y-97211250D01*
X117888000Y-96012000D01*
X116538750Y-96012000D01*
X116380000Y-96170750D01*
X113490000Y-96170750D01*
X113331250Y-96012000D01*
X111982000Y-96012000D01*
X111728000Y-96012000D01*
X110378750Y-96012000D01*
X110220000Y-96170750D01*
X109502440Y-96170750D01*
X109502440Y-95035000D01*
X109478674Y-94908690D01*
X110220000Y-94908690D01*
X110220000Y-95599250D01*
X110378750Y-95758000D01*
X111728000Y-95758000D01*
X111728000Y-94558750D01*
X111982000Y-94558750D01*
X111982000Y-95758000D01*
X113331250Y-95758000D01*
X113490000Y-95599250D01*
X113490000Y-94908690D01*
X116380000Y-94908690D01*
X116380000Y-95599250D01*
X116538750Y-95758000D01*
X117888000Y-95758000D01*
X117888000Y-94558750D01*
X118142000Y-94558750D01*
X118142000Y-95758000D01*
X119491250Y-95758000D01*
X119650000Y-95599250D01*
X119650000Y-94908690D01*
X119553327Y-94675301D01*
X119374698Y-94496673D01*
X119141309Y-94400000D01*
X118300750Y-94400000D01*
X118142000Y-94558750D01*
X117888000Y-94558750D01*
X117729250Y-94400000D01*
X116888691Y-94400000D01*
X116655302Y-94496673D01*
X116476673Y-94675301D01*
X116380000Y-94908690D01*
X113490000Y-94908690D01*
X113393327Y-94675301D01*
X113214698Y-94496673D01*
X112981309Y-94400000D01*
X112140750Y-94400000D01*
X111982000Y-94558750D01*
X111728000Y-94558750D01*
X111569250Y-94400000D01*
X110728691Y-94400000D01*
X110495302Y-94496673D01*
X110316673Y-94675301D01*
X110220000Y-94908690D01*
X109478674Y-94908690D01*
X109458162Y-94799683D01*
X109319090Y-94583559D01*
X109106890Y-94438569D01*
X108855000Y-94387560D01*
X108740000Y-94387560D01*
X108740000Y-93885005D01*
X108740001Y-93885000D01*
X108672633Y-93546326D01*
X108672633Y-93546325D01*
X108480790Y-93259210D01*
X108480787Y-93259208D01*
X108114840Y-92893261D01*
X108115160Y-92526419D01*
X109748484Y-90893095D01*
X109749757Y-90895000D01*
X109864210Y-91066292D01*
X110863706Y-92065787D01*
X110863708Y-92065790D01*
X111150823Y-92257633D01*
X111207014Y-92268810D01*
X111489498Y-92325001D01*
X111489503Y-92325000D01*
X114425829Y-92325000D01*
X114756077Y-92655824D01*
X115283309Y-92874750D01*
X115854187Y-92875248D01*
X116381800Y-92657243D01*
X116785824Y-92253923D01*
X117004750Y-91726691D01*
X117005248Y-91155813D01*
X116787243Y-90628200D01*
X116383923Y-90224176D01*
X115856691Y-90005250D01*
X115285813Y-90004752D01*
X114758200Y-90222757D01*
X114425377Y-90555000D01*
X112463526Y-90555000D01*
X112552327Y-90466199D01*
X112649000Y-90232810D01*
X112649000Y-89820750D01*
X112490250Y-89662000D01*
X111887000Y-89662000D01*
X111887000Y-89682000D01*
X111633000Y-89682000D01*
X111633000Y-89662000D01*
X111613000Y-89662000D01*
X111613000Y-89408000D01*
X111633000Y-89408000D01*
X111633000Y-88487250D01*
X111887000Y-88487250D01*
X111887000Y-89408000D01*
X112490250Y-89408000D01*
X112649000Y-89249250D01*
X112649000Y-88837190D01*
X112569703Y-88645750D01*
X117895000Y-88645750D01*
X117895000Y-89486309D01*
X117991673Y-89719698D01*
X118170301Y-89898327D01*
X118403690Y-89995000D01*
X119094250Y-89995000D01*
X119253000Y-89836250D01*
X119253000Y-88487000D01*
X119507000Y-88487000D01*
X119507000Y-89836250D01*
X119665750Y-89995000D01*
X120356310Y-89995000D01*
X120589699Y-89898327D01*
X120768327Y-89719698D01*
X120865000Y-89486309D01*
X120865000Y-88645750D01*
X120706250Y-88487000D01*
X119507000Y-88487000D01*
X119253000Y-88487000D01*
X118053750Y-88487000D01*
X117895000Y-88645750D01*
X112569703Y-88645750D01*
X112552327Y-88603801D01*
X112373698Y-88425173D01*
X112140309Y-88328500D01*
X112045750Y-88328500D01*
X111887000Y-88487250D01*
X111633000Y-88487250D01*
X111474250Y-88328500D01*
X111379691Y-88328500D01*
X111146302Y-88425173D01*
X111119765Y-88451709D01*
X110995890Y-88367069D01*
X110744000Y-88316060D01*
X110236000Y-88316060D01*
X110000683Y-88360338D01*
X109854093Y-88454666D01*
X109725890Y-88367069D01*
X109474000Y-88316060D01*
X108966000Y-88316060D01*
X108730683Y-88360338D01*
X108584093Y-88454666D01*
X108455890Y-88367069D01*
X108204000Y-88316060D01*
X107696000Y-88316060D01*
X107460683Y-88360338D01*
X107244559Y-88499410D01*
X107141665Y-88650000D01*
X105141579Y-88650000D01*
X104225790Y-87734210D01*
X104114325Y-87659732D01*
X103938675Y-87542367D01*
X103882484Y-87531190D01*
X103600000Y-87474999D01*
X103599995Y-87475000D01*
X101777440Y-87475000D01*
X101777440Y-87360000D01*
X101753674Y-87233691D01*
X117895000Y-87233691D01*
X117895000Y-88074250D01*
X118053750Y-88233000D01*
X119253000Y-88233000D01*
X119253000Y-86883750D01*
X119507000Y-86883750D01*
X119507000Y-88233000D01*
X120706250Y-88233000D01*
X120865000Y-88074250D01*
X120865000Y-87233691D01*
X120768327Y-87000302D01*
X120589699Y-86821673D01*
X120356310Y-86725000D01*
X119665750Y-86725000D01*
X119507000Y-86883750D01*
X119253000Y-86883750D01*
X119094250Y-86725000D01*
X118403690Y-86725000D01*
X118170301Y-86821673D01*
X117991673Y-87000302D01*
X117895000Y-87233691D01*
X101753674Y-87233691D01*
X101733162Y-87124683D01*
X101594090Y-86908559D01*
X101381890Y-86763569D01*
X101130000Y-86712560D01*
X99530000Y-86712560D01*
X99294683Y-86756838D01*
X99078559Y-86895910D01*
X98933569Y-87108110D01*
X98882560Y-87360000D01*
X98882560Y-87504328D01*
X98691325Y-87542367D01*
X98404210Y-87734210D01*
X98404208Y-87734213D01*
X98330000Y-87808421D01*
X97405000Y-86883420D01*
X97405000Y-86234171D01*
X97735824Y-85903923D01*
X97954750Y-85376691D01*
X97955248Y-84805813D01*
X97737243Y-84278200D01*
X97333923Y-83874176D01*
X96806691Y-83655250D01*
X96235813Y-83654752D01*
X95708200Y-83872757D01*
X95304176Y-84276077D01*
X95085250Y-84803309D01*
X95084752Y-85374187D01*
X95088615Y-85383536D01*
X93595000Y-83889920D01*
X93595000Y-83837683D01*
X93611440Y-83756500D01*
X93611440Y-82613500D01*
X93567162Y-82378183D01*
X93429982Y-82165000D01*
X95375829Y-82165000D01*
X95706077Y-82495824D01*
X96233309Y-82714750D01*
X96804187Y-82715248D01*
X97331800Y-82497243D01*
X97735824Y-82093923D01*
X97954750Y-81566691D01*
X97955248Y-80995813D01*
X97913593Y-80895000D01*
X110456921Y-80895000D01*
X109864210Y-81487710D01*
X109855000Y-81501494D01*
X109845790Y-81487710D01*
X109845787Y-81487708D01*
X109595789Y-81237709D01*
X109546838Y-81205001D01*
X109308674Y-81045866D01*
X109252483Y-81034689D01*
X108969999Y-80978498D01*
X108969994Y-80978499D01*
X105461506Y-80978499D01*
X105461501Y-80978498D01*
X105179017Y-81034689D01*
X105122826Y-81045866D01*
X105019041Y-81115213D01*
X104490813Y-81114752D01*
X103963200Y-81332757D01*
X103559176Y-81736077D01*
X103340250Y-82263309D01*
X103339752Y-82834187D01*
X103557757Y-83361800D01*
X103961077Y-83765824D01*
X104488309Y-83984750D01*
X105059187Y-83985248D01*
X105586800Y-83767243D01*
X105883810Y-83470750D01*
X107061000Y-83470750D01*
X107061000Y-83882810D01*
X107157673Y-84116199D01*
X107336302Y-84294827D01*
X107569691Y-84391500D01*
X107664250Y-84391500D01*
X107823000Y-84232750D01*
X107823000Y-83312000D01*
X107219750Y-83312000D01*
X107061000Y-83470750D01*
X105883810Y-83470750D01*
X105990824Y-83363923D01*
X106209750Y-82836691D01*
X106209827Y-82748499D01*
X107061000Y-82748499D01*
X107061000Y-82899250D01*
X107219750Y-83058000D01*
X107823000Y-83058000D01*
X107823000Y-83038000D01*
X108077000Y-83038000D01*
X108077000Y-83058000D01*
X108097000Y-83058000D01*
X108097000Y-83312000D01*
X108077000Y-83312000D01*
X108077000Y-84232750D01*
X108235750Y-84391500D01*
X108330309Y-84391500D01*
X108563698Y-84294827D01*
X108590235Y-84268291D01*
X108714110Y-84352931D01*
X108966000Y-84403940D01*
X109474000Y-84403940D01*
X109709317Y-84359662D01*
X109855907Y-84265334D01*
X109984110Y-84352931D01*
X110236000Y-84403940D01*
X110360980Y-84403940D01*
X109924920Y-84840000D01*
X103361579Y-84840000D01*
X102255790Y-83734210D01*
X102100890Y-83630710D01*
X101968675Y-83542367D01*
X101912484Y-83531190D01*
X101777440Y-83504327D01*
X101777440Y-83360000D01*
X101733162Y-83124683D01*
X101594090Y-82908559D01*
X101381890Y-82763569D01*
X101130000Y-82712560D01*
X99530000Y-82712560D01*
X99294683Y-82756838D01*
X99078559Y-82895910D01*
X98933569Y-83108110D01*
X98882560Y-83360000D01*
X98882560Y-85360000D01*
X98926838Y-85595317D01*
X99065910Y-85811441D01*
X99278110Y-85956431D01*
X99530000Y-86007440D01*
X101130000Y-86007440D01*
X101365317Y-85963162D01*
X101581441Y-85824090D01*
X101687414Y-85668993D01*
X102369208Y-86350787D01*
X102369210Y-86350790D01*
X102496822Y-86436057D01*
X102656326Y-86542634D01*
X102995000Y-86610001D01*
X102995005Y-86610000D01*
X110291495Y-86610000D01*
X110291500Y-86610001D01*
X110573984Y-86553810D01*
X110630175Y-86542633D01*
X110917290Y-86350790D01*
X112385787Y-84882292D01*
X112385790Y-84882290D01*
X112577633Y-84595175D01*
X112603684Y-84464210D01*
X112645001Y-84256500D01*
X112645000Y-84256495D01*
X112645000Y-83837683D01*
X112661440Y-83756500D01*
X112661440Y-82613500D01*
X112617162Y-82378183D01*
X112479982Y-82165000D01*
X117743420Y-82165000D01*
X118328833Y-82750412D01*
X118294683Y-82756838D01*
X118078559Y-82895910D01*
X117933569Y-83108110D01*
X117882560Y-83360000D01*
X117882560Y-85360000D01*
X117926838Y-85595317D01*
X118065910Y-85811441D01*
X118278110Y-85956431D01*
X118530000Y-86007440D01*
X120230000Y-86007440D01*
X120465317Y-85963162D01*
X120681441Y-85824090D01*
X120826431Y-85611890D01*
X120877440Y-85360000D01*
X120877440Y-83470750D01*
X126111000Y-83470750D01*
X126111000Y-83882810D01*
X126207673Y-84116199D01*
X126386302Y-84294827D01*
X126619691Y-84391500D01*
X126714250Y-84391500D01*
X126873000Y-84232750D01*
X126873000Y-83312000D01*
X126269750Y-83312000D01*
X126111000Y-83470750D01*
X120877440Y-83470750D01*
X120877440Y-83360000D01*
X120833162Y-83124683D01*
X120694090Y-82908559D01*
X120481890Y-82763569D01*
X120265000Y-82719648D01*
X120265000Y-82550005D01*
X120265001Y-82550000D01*
X120252508Y-82487190D01*
X126111000Y-82487190D01*
X126111000Y-82899250D01*
X126269750Y-83058000D01*
X126873000Y-83058000D01*
X126873000Y-82137250D01*
X126714250Y-81978500D01*
X126619691Y-81978500D01*
X126386302Y-82075173D01*
X126207673Y-82253801D01*
X126111000Y-82487190D01*
X120252508Y-82487190D01*
X120197633Y-82211325D01*
X120134156Y-82116325D01*
X120005790Y-81924210D01*
X120005787Y-81924208D01*
X118735790Y-80654210D01*
X118708221Y-80635789D01*
X118448675Y-80462367D01*
X118392484Y-80451190D01*
X118110000Y-80394999D01*
X118109995Y-80395000D01*
X115166580Y-80395000D01*
X116195787Y-79365792D01*
X116195790Y-79365790D01*
X116387633Y-79078675D01*
X116406447Y-78984093D01*
X116455001Y-78740000D01*
X116455000Y-78739995D01*
X116455000Y-78659432D01*
X116620054Y-78549147D01*
X116941961Y-78067378D01*
X117055000Y-77499093D01*
X117055000Y-77440907D01*
X116941961Y-76872622D01*
X116620054Y-76390853D01*
X116138285Y-76068946D01*
X115570000Y-75955907D01*
X115001715Y-76068946D01*
X114519946Y-76390853D01*
X114492150Y-76432452D01*
X114483162Y-76384683D01*
X114344090Y-76168559D01*
X114131890Y-76023569D01*
X113880000Y-75972560D01*
X112180000Y-75972560D01*
X111944683Y-76016838D01*
X111728559Y-76155910D01*
X111583569Y-76368110D01*
X111539648Y-76585000D01*
X102700854Y-76585000D01*
X102663162Y-76384683D01*
X102524090Y-76168559D01*
X102311890Y-76023569D01*
X102060000Y-75972560D01*
X100060000Y-75972560D01*
X99824683Y-76016838D01*
X99608559Y-76155910D01*
X99463569Y-76368110D01*
X99412560Y-76620000D01*
X99412560Y-78320000D01*
X99456838Y-78555317D01*
X99595910Y-78771441D01*
X99808110Y-78916431D01*
X100060000Y-78967440D01*
X102060000Y-78967440D01*
X102295317Y-78923162D01*
X102511441Y-78784090D01*
X102656431Y-78571890D01*
X102700352Y-78355000D01*
X111539146Y-78355000D01*
X111576838Y-78555317D01*
X111715910Y-78771441D01*
X111928110Y-78916431D01*
X112180000Y-78967440D01*
X113880000Y-78967440D01*
X114115317Y-78923162D01*
X114171251Y-78887170D01*
X113933420Y-79125000D01*
X92616579Y-79125000D01*
X93386579Y-78355000D01*
X95419146Y-78355000D01*
X95456838Y-78555317D01*
X95595910Y-78771441D01*
X95808110Y-78916431D01*
X96060000Y-78967440D01*
X98060000Y-78967440D01*
X98295317Y-78923162D01*
X98511441Y-78784090D01*
X98656431Y-78571890D01*
X98707440Y-78320000D01*
X98707440Y-76620000D01*
X98663162Y-76384683D01*
X98524090Y-76168559D01*
X98311890Y-76023569D01*
X98060000Y-75972560D01*
X96060000Y-75972560D01*
X95824683Y-76016838D01*
X95608559Y-76155910D01*
X95463569Y-76368110D01*
X95419648Y-76585000D01*
X93020005Y-76585000D01*
X93020000Y-76584999D01*
X92737516Y-76641190D01*
X92681325Y-76652367D01*
X92394210Y-76844210D01*
X92394208Y-76844213D01*
X90170000Y-79068420D01*
X87945790Y-76844210D01*
X87658675Y-76652367D01*
X87602484Y-76641190D01*
X87466331Y-76614107D01*
X87423162Y-76384683D01*
X87284090Y-76168559D01*
X87071890Y-76023569D01*
X86820000Y-75972560D01*
X84820000Y-75972560D01*
X84584683Y-76016838D01*
X84368559Y-76155910D01*
X84223569Y-76368110D01*
X84172560Y-76620000D01*
X84172560Y-78320000D01*
X84216838Y-78555317D01*
X84355910Y-78771441D01*
X84568110Y-78916431D01*
X84820000Y-78967440D01*
X86820000Y-78967440D01*
X87055317Y-78923162D01*
X87271441Y-78784090D01*
X87316526Y-78718106D01*
X89285000Y-80686579D01*
X89285000Y-81980443D01*
X89280309Y-81978500D01*
X89185750Y-81978500D01*
X89027000Y-82137250D01*
X89027000Y-83058000D01*
X89047000Y-83058000D01*
X89047000Y-83312000D01*
X89027000Y-83312000D01*
X89027000Y-83332000D01*
X88773000Y-83332000D01*
X88773000Y-83312000D01*
X88169750Y-83312000D01*
X88064299Y-83417451D01*
X87134039Y-82487190D01*
X88011000Y-82487190D01*
X88011000Y-82899250D01*
X88169750Y-83058000D01*
X88773000Y-83058000D01*
X88773000Y-82137250D01*
X88614250Y-81978500D01*
X88519691Y-81978500D01*
X88286302Y-82075173D01*
X88107673Y-82253801D01*
X88011000Y-82487190D01*
X87134039Y-82487190D01*
X86433440Y-81786591D01*
X86524750Y-81566691D01*
X86525248Y-80995813D01*
X86307243Y-80468200D01*
X85903923Y-80064176D01*
X85376691Y-79845250D01*
X84805813Y-79844752D01*
X84278200Y-80062757D01*
X83874176Y-80466077D01*
X83655250Y-80993309D01*
X83654752Y-81564187D01*
X83872757Y-82091800D01*
X84276077Y-82495824D01*
X84803309Y-82714750D01*
X84858487Y-82714798D01*
X89285000Y-87141310D01*
X89285000Y-88342588D01*
X89154000Y-88316060D01*
X88646000Y-88316060D01*
X88410683Y-88360338D01*
X88194559Y-88499410D01*
X88091665Y-88650000D01*
X85975000Y-88650000D01*
X85975000Y-86234171D01*
X86305824Y-85903923D01*
X86524750Y-85376691D01*
X86525248Y-84805813D01*
X86307243Y-84278200D01*
X85903923Y-83874176D01*
X85376691Y-83655250D01*
X84805813Y-83654752D01*
X84278200Y-83872757D01*
X83874176Y-84276077D01*
X83655250Y-84803309D01*
X83654752Y-85374187D01*
X83872757Y-85901800D01*
X84205000Y-86234623D01*
X84205000Y-88650000D01*
X83256579Y-88650000D01*
X82092440Y-87485860D01*
X82092440Y-86090000D01*
X82048162Y-85854683D01*
X81909090Y-85638559D01*
X81696890Y-85493569D01*
X81445000Y-85442560D01*
X79845000Y-85442560D01*
X79609683Y-85486838D01*
X79393559Y-85625910D01*
X79248569Y-85838110D01*
X79197560Y-86090000D01*
X79197560Y-86205000D01*
X76661579Y-86205000D01*
X76400539Y-85943960D01*
X76444093Y-85725000D01*
X76331054Y-85156715D01*
X76009147Y-84674946D01*
X75965223Y-84645597D01*
X76139698Y-84573327D01*
X76318327Y-84394699D01*
X76415000Y-84161310D01*
X76415000Y-83470750D01*
X76320000Y-83375750D01*
X79210000Y-83375750D01*
X79210000Y-84216309D01*
X79306673Y-84449698D01*
X79485301Y-84628327D01*
X79718690Y-84725000D01*
X80359250Y-84725000D01*
X80518000Y-84566250D01*
X80518000Y-83217000D01*
X80772000Y-83217000D01*
X80772000Y-84566250D01*
X80930750Y-84725000D01*
X81571310Y-84725000D01*
X81804699Y-84628327D01*
X81983327Y-84449698D01*
X82080000Y-84216309D01*
X82080000Y-83375750D01*
X81921250Y-83217000D01*
X80772000Y-83217000D01*
X80518000Y-83217000D01*
X79368750Y-83217000D01*
X79210000Y-83375750D01*
X76320000Y-83375750D01*
X76256250Y-83312000D01*
X75057000Y-83312000D01*
X75057000Y-83332000D01*
X74803000Y-83332000D01*
X74803000Y-83312000D01*
X73603750Y-83312000D01*
X73445000Y-83470750D01*
X73445000Y-84161310D01*
X73541673Y-84394699D01*
X73720302Y-84573327D01*
X73894777Y-84645597D01*
X73850853Y-84674946D01*
X73528946Y-85156715D01*
X73415907Y-85725000D01*
X71882000Y-85725000D01*
X71882000Y-82208690D01*
X73445000Y-82208690D01*
X73445000Y-82899250D01*
X73603750Y-83058000D01*
X74803000Y-83058000D01*
X74803000Y-81858750D01*
X75057000Y-81858750D01*
X75057000Y-83058000D01*
X76256250Y-83058000D01*
X76415000Y-82899250D01*
X76415000Y-82208690D01*
X76318327Y-81975301D01*
X76306717Y-81963691D01*
X79210000Y-81963691D01*
X79210000Y-82804250D01*
X79368750Y-82963000D01*
X80518000Y-82963000D01*
X80518000Y-81613750D01*
X80772000Y-81613750D01*
X80772000Y-82963000D01*
X81921250Y-82963000D01*
X82080000Y-82804250D01*
X82080000Y-81963691D01*
X81983327Y-81730302D01*
X81804699Y-81551673D01*
X81571310Y-81455000D01*
X80930750Y-81455000D01*
X80772000Y-81613750D01*
X80518000Y-81613750D01*
X80359250Y-81455000D01*
X79718690Y-81455000D01*
X79485301Y-81551673D01*
X79306673Y-81730302D01*
X79210000Y-81963691D01*
X76306717Y-81963691D01*
X76139698Y-81796673D01*
X75906309Y-81700000D01*
X75215750Y-81700000D01*
X75057000Y-81858750D01*
X74803000Y-81858750D01*
X74644250Y-81700000D01*
X73953691Y-81700000D01*
X73720302Y-81796673D01*
X73541673Y-81975301D01*
X73445000Y-82208690D01*
X71882000Y-82208690D01*
X71882000Y-76642619D01*
X72694613Y-76642619D01*
X73034155Y-77464372D01*
X73662321Y-78093636D01*
X74483481Y-78434611D01*
X75372619Y-78435387D01*
X76194372Y-78095845D01*
X76535061Y-77755750D01*
X80185000Y-77755750D01*
X80185000Y-78446310D01*
X80281673Y-78679699D01*
X80460302Y-78858327D01*
X80693691Y-78955000D01*
X81534250Y-78955000D01*
X81693000Y-78796250D01*
X81693000Y-77597000D01*
X81947000Y-77597000D01*
X81947000Y-78796250D01*
X82105750Y-78955000D01*
X82946309Y-78955000D01*
X83179698Y-78858327D01*
X83358327Y-78679699D01*
X83455000Y-78446310D01*
X83455000Y-77755750D01*
X83296250Y-77597000D01*
X81947000Y-77597000D01*
X81693000Y-77597000D01*
X80343750Y-77597000D01*
X80185000Y-77755750D01*
X76535061Y-77755750D01*
X76823636Y-77467679D01*
X77164611Y-76646519D01*
X77164744Y-76493690D01*
X80185000Y-76493690D01*
X80185000Y-77184250D01*
X80343750Y-77343000D01*
X81693000Y-77343000D01*
X81693000Y-76143750D01*
X81947000Y-76143750D01*
X81947000Y-77343000D01*
X83296250Y-77343000D01*
X83455000Y-77184250D01*
X83455000Y-76493690D01*
X83358327Y-76260301D01*
X83179698Y-76081673D01*
X82946309Y-75985000D01*
X82105750Y-75985000D01*
X81947000Y-76143750D01*
X81693000Y-76143750D01*
X81534250Y-75985000D01*
X80693691Y-75985000D01*
X80460302Y-76081673D01*
X80281673Y-76260301D01*
X80185000Y-76493690D01*
X77164744Y-76493690D01*
X77165387Y-75757381D01*
X76825845Y-74935628D01*
X76197679Y-74306364D01*
X75376519Y-73965389D01*
X74487381Y-73964613D01*
X73665628Y-74304155D01*
X73036364Y-74932321D01*
X72695389Y-75753481D01*
X72694613Y-76642619D01*
X71882000Y-76642619D01*
X71882000Y-73152000D01*
X145288000Y-73152000D01*
X145288000Y-112268000D01*
X145288000Y-112268000D01*
G37*
X145288000Y-112268000D02*
X71882000Y-112268000D01*
X71882000Y-109662619D01*
X72694613Y-109662619D01*
X73034155Y-110484372D01*
X73662321Y-111113636D01*
X74483481Y-111454611D01*
X75372619Y-111455387D01*
X76194372Y-111115845D01*
X76823636Y-110487679D01*
X77164611Y-109666519D01*
X77165387Y-108777381D01*
X76825845Y-107955628D01*
X76197679Y-107326364D01*
X75376519Y-106985389D01*
X74487381Y-106984613D01*
X73665628Y-107324155D01*
X73036364Y-107952321D01*
X72695389Y-108773481D01*
X72694613Y-109662619D01*
X71882000Y-109662619D01*
X71882000Y-100750000D01*
X73432560Y-100750000D01*
X73432560Y-102450000D01*
X73476838Y-102685317D01*
X73615910Y-102901441D01*
X73828110Y-103046431D01*
X74080000Y-103097440D01*
X75780000Y-103097440D01*
X76015317Y-103053162D01*
X76231441Y-102914090D01*
X76276526Y-102848106D01*
X80949555Y-107521134D01*
X80699176Y-107771077D01*
X80480250Y-108298309D01*
X80479752Y-108869187D01*
X80697757Y-109396800D01*
X81101077Y-109800824D01*
X81628309Y-110019750D01*
X82199187Y-110020248D01*
X82726800Y-109802243D01*
X83130824Y-109398923D01*
X83349750Y-108871691D01*
X83350248Y-108300813D01*
X83132243Y-107773200D01*
X82800000Y-107440377D01*
X82800000Y-107235000D01*
X82732633Y-106896325D01*
X82540790Y-106609210D01*
X82540787Y-106609208D01*
X76905790Y-100974210D01*
X76800129Y-100903610D01*
X76618675Y-100782367D01*
X76562484Y-100771190D01*
X76426331Y-100744107D01*
X76383162Y-100514683D01*
X76244090Y-100298559D01*
X76031890Y-100153569D01*
X75780000Y-100102560D01*
X74080000Y-100102560D01*
X73844683Y-100146838D01*
X73628559Y-100285910D01*
X73483569Y-100498110D01*
X73432560Y-100750000D01*
X71882000Y-100750000D01*
X71882000Y-94615000D01*
X73415907Y-94615000D01*
X73528946Y-95183285D01*
X73850853Y-95665054D01*
X74045000Y-95794779D01*
X74045000Y-96519995D01*
X74044999Y-96520000D01*
X74101190Y-96802484D01*
X74112367Y-96858675D01*
X74198037Y-96986890D01*
X74304210Y-97145790D01*
X79210160Y-102051739D01*
X79209752Y-102519187D01*
X79427757Y-103046800D01*
X79831077Y-103450824D01*
X80358309Y-103669750D01*
X80929187Y-103670248D01*
X81456800Y-103452243D01*
X81860824Y-103048923D01*
X82079750Y-102521691D01*
X82080248Y-101950813D01*
X81862243Y-101423200D01*
X81458923Y-101019176D01*
X80931691Y-100800250D01*
X80461419Y-100799840D01*
X75815000Y-96153420D01*
X75815000Y-95794779D01*
X76009147Y-95665054D01*
X76331054Y-95183285D01*
X76444093Y-94615000D01*
X76331054Y-94046715D01*
X76009147Y-93564946D01*
X75967548Y-93537150D01*
X76015317Y-93528162D01*
X76231441Y-93389090D01*
X76376431Y-93176890D01*
X76427440Y-92925000D01*
X76427440Y-91225000D01*
X76383162Y-90989683D01*
X76244090Y-90773559D01*
X76031890Y-90628569D01*
X75780000Y-90577560D01*
X74080000Y-90577560D01*
X73844683Y-90621838D01*
X73628559Y-90760910D01*
X73483569Y-90973110D01*
X73432560Y-91225000D01*
X73432560Y-92925000D01*
X73476838Y-93160317D01*
X73615910Y-93376441D01*
X73828110Y-93521431D01*
X73895541Y-93535086D01*
X73850853Y-93564946D01*
X73528946Y-94046715D01*
X73415907Y-94615000D01*
X71882000Y-94615000D01*
X71882000Y-85725000D01*
X73415907Y-85725000D01*
X73528946Y-86293285D01*
X73850853Y-86775054D01*
X74332622Y-87096961D01*
X74900907Y-87210000D01*
X74959093Y-87210000D01*
X75129520Y-87176100D01*
X75669208Y-87715787D01*
X75669210Y-87715790D01*
X75817237Y-87814698D01*
X75956326Y-87907634D01*
X76295000Y-87975001D01*
X76295005Y-87975000D01*
X79197560Y-87975000D01*
X79197560Y-88090000D01*
X79241838Y-88325317D01*
X79380910Y-88541441D01*
X79593110Y-88686431D01*
X79845000Y-88737440D01*
X80840860Y-88737440D01*
X81638421Y-89535000D01*
X80019210Y-91154210D01*
X79827367Y-91441325D01*
X79816854Y-91494176D01*
X79759999Y-91780000D01*
X79760000Y-91780005D01*
X79760000Y-92253554D01*
X79609683Y-92281838D01*
X79393559Y-92420910D01*
X79248569Y-92633110D01*
X79197560Y-92885000D01*
X79197560Y-94885000D01*
X79241838Y-95120317D01*
X79380910Y-95336441D01*
X79593110Y-95481431D01*
X79845000Y-95532440D01*
X81445000Y-95532440D01*
X81665000Y-95491044D01*
X81665000Y-96282111D01*
X81445000Y-96237560D01*
X79845000Y-96237560D01*
X79609683Y-96281838D01*
X79393559Y-96420910D01*
X79248569Y-96633110D01*
X79197560Y-96885000D01*
X79197560Y-98885000D01*
X79241838Y-99120317D01*
X79380910Y-99336441D01*
X79593110Y-99481431D01*
X79845000Y-99532440D01*
X81445000Y-99532440D01*
X81680317Y-99488162D01*
X81896441Y-99349090D01*
X82041431Y-99136890D01*
X82092440Y-98885000D01*
X82092440Y-98740673D01*
X82227484Y-98713810D01*
X82283675Y-98702633D01*
X82570790Y-98510790D01*
X82839998Y-98241582D01*
X82839998Y-103100493D01*
X82839997Y-103100498D01*
X82896188Y-103382982D01*
X82907365Y-103439173D01*
X83099208Y-103726288D01*
X86745000Y-107372079D01*
X86745000Y-107424317D01*
X86728560Y-107505500D01*
X86728560Y-108648500D01*
X86772838Y-108883817D01*
X86911910Y-109099941D01*
X87124110Y-109244931D01*
X87376000Y-109295940D01*
X87884000Y-109295940D01*
X88038543Y-109266861D01*
X88064812Y-109398923D01*
X88082367Y-109487175D01*
X88202200Y-109666519D01*
X88274210Y-109774290D01*
X89524220Y-111024299D01*
X89524222Y-111024302D01*
X89811337Y-111216145D01*
X89867528Y-111227322D01*
X90150012Y-111283513D01*
X90150017Y-111283512D01*
X124426485Y-111283512D01*
X124426490Y-111283513D01*
X124708974Y-111227322D01*
X124765165Y-111216145D01*
X125052280Y-111024302D01*
X126413962Y-109662619D01*
X140004613Y-109662619D01*
X140344155Y-110484372D01*
X140972321Y-111113636D01*
X141793481Y-111454611D01*
X142682619Y-111455387D01*
X143504372Y-111115845D01*
X144133636Y-110487679D01*
X144474611Y-109666519D01*
X144475387Y-108777381D01*
X144135845Y-107955628D01*
X143507679Y-107326364D01*
X142686519Y-106985389D01*
X141797381Y-106984613D01*
X140975628Y-107324155D01*
X140346364Y-107952321D01*
X140005389Y-108773481D01*
X140004613Y-109662619D01*
X126413962Y-109662619D01*
X130246581Y-105830000D01*
X130582560Y-105830000D01*
X130582560Y-107530000D01*
X130626838Y-107765317D01*
X130765910Y-107981441D01*
X130978110Y-108126431D01*
X131230000Y-108177440D01*
X132930000Y-108177440D01*
X133165317Y-108133162D01*
X133381441Y-107994090D01*
X133526431Y-107781890D01*
X133540086Y-107714459D01*
X133569946Y-107759147D01*
X134051715Y-108081054D01*
X134620000Y-108194093D01*
X135188285Y-108081054D01*
X135670054Y-107759147D01*
X135991961Y-107277378D01*
X136105000Y-106709093D01*
X136105000Y-106650907D01*
X136071100Y-106480480D01*
X136515787Y-106035792D01*
X136515790Y-106035790D01*
X136707633Y-105748675D01*
X136717973Y-105696691D01*
X136775001Y-105410000D01*
X136775000Y-105409995D01*
X136775000Y-97426580D01*
X136819140Y-97382440D01*
X138065000Y-97382440D01*
X138300317Y-97338162D01*
X138516441Y-97199090D01*
X138661431Y-96986890D01*
X138712440Y-96735000D01*
X138712440Y-95035000D01*
X138668162Y-94799683D01*
X138529090Y-94583559D01*
X138316890Y-94438569D01*
X138065000Y-94387560D01*
X136065000Y-94387560D01*
X135829683Y-94431838D01*
X135613559Y-94570910D01*
X135468569Y-94783110D01*
X135417560Y-95035000D01*
X135417560Y-96280860D01*
X135264210Y-96434210D01*
X135072367Y-96721325D01*
X135072367Y-96721326D01*
X135004999Y-97060000D01*
X135005000Y-97060005D01*
X135005000Y-105043421D01*
X134838960Y-105209461D01*
X134620000Y-105165907D01*
X134051715Y-105278946D01*
X133569946Y-105600853D01*
X133542150Y-105642452D01*
X133533162Y-105594683D01*
X133394090Y-105378559D01*
X133181890Y-105233569D01*
X132930000Y-105182560D01*
X131230000Y-105182560D01*
X130994683Y-105226838D01*
X130778559Y-105365910D01*
X130633569Y-105578110D01*
X130582560Y-105830000D01*
X130246581Y-105830000D01*
X134610787Y-101465794D01*
X134610790Y-101465792D01*
X134802633Y-101178677D01*
X134870000Y-100840002D01*
X134870000Y-90534503D01*
X134870001Y-90534498D01*
X134836996Y-90368576D01*
X135899208Y-91430787D01*
X135899210Y-91430790D01*
X136186325Y-91622633D01*
X136242516Y-91633810D01*
X136525000Y-91690001D01*
X136525005Y-91690000D01*
X137285829Y-91690000D01*
X137616077Y-92020824D01*
X138143309Y-92239750D01*
X138613581Y-92240160D01*
X140180000Y-93806579D01*
X140180000Y-94387560D01*
X140065000Y-94387560D01*
X139829683Y-94431838D01*
X139613559Y-94570910D01*
X139468569Y-94783110D01*
X139417560Y-95035000D01*
X139417560Y-96735000D01*
X139461838Y-96970317D01*
X139600910Y-97186441D01*
X139813110Y-97331431D01*
X140065000Y-97382440D01*
X142065000Y-97382440D01*
X142300317Y-97338162D01*
X142516441Y-97199090D01*
X142661431Y-96986890D01*
X142712440Y-96735000D01*
X142712440Y-95035000D01*
X142668162Y-94799683D01*
X142529090Y-94583559D01*
X142316890Y-94438569D01*
X142065000Y-94387560D01*
X141950000Y-94387560D01*
X141950000Y-93440005D01*
X141950001Y-93440000D01*
X141888337Y-93130000D01*
X141882633Y-93101325D01*
X141690790Y-92814210D01*
X141690787Y-92814208D01*
X139864840Y-90988261D01*
X139865248Y-90520813D01*
X139647243Y-89993200D01*
X139243923Y-89589176D01*
X138716691Y-89370250D01*
X138145813Y-89369752D01*
X137618200Y-89587757D01*
X137285377Y-89920000D01*
X136891579Y-89920000D01*
X135505000Y-88533420D01*
X135505000Y-86740750D01*
X135725000Y-86740750D01*
X135725000Y-87581309D01*
X135821673Y-87814698D01*
X136000301Y-87993327D01*
X136233690Y-88090000D01*
X136874250Y-88090000D01*
X137033000Y-87931250D01*
X137033000Y-86582000D01*
X137287000Y-86582000D01*
X137287000Y-87931250D01*
X137445750Y-88090000D01*
X138086310Y-88090000D01*
X138319699Y-87993327D01*
X138498327Y-87814698D01*
X138595000Y-87581309D01*
X138595000Y-86740750D01*
X138436250Y-86582000D01*
X137287000Y-86582000D01*
X137033000Y-86582000D01*
X135883750Y-86582000D01*
X135725000Y-86740750D01*
X135505000Y-86740750D01*
X135505000Y-85328691D01*
X135725000Y-85328691D01*
X135725000Y-86169250D01*
X135883750Y-86328000D01*
X137033000Y-86328000D01*
X137033000Y-84978750D01*
X137287000Y-84978750D01*
X137287000Y-86328000D01*
X138436250Y-86328000D01*
X138595000Y-86169250D01*
X138595000Y-86010750D01*
X140755000Y-86010750D01*
X140755000Y-86701310D01*
X140851673Y-86934699D01*
X141030302Y-87113327D01*
X141263691Y-87210000D01*
X141954250Y-87210000D01*
X142113000Y-87051250D01*
X142113000Y-85852000D01*
X142367000Y-85852000D01*
X142367000Y-87051250D01*
X142525750Y-87210000D01*
X143216309Y-87210000D01*
X143449698Y-87113327D01*
X143628327Y-86934699D01*
X143725000Y-86701310D01*
X143725000Y-86010750D01*
X143566250Y-85852000D01*
X142367000Y-85852000D01*
X142113000Y-85852000D01*
X140913750Y-85852000D01*
X140755000Y-86010750D01*
X138595000Y-86010750D01*
X138595000Y-85328691D01*
X138498327Y-85095302D01*
X138319699Y-84916673D01*
X138086310Y-84820000D01*
X137445750Y-84820000D01*
X137287000Y-84978750D01*
X137033000Y-84978750D01*
X136874250Y-84820000D01*
X136233690Y-84820000D01*
X136000301Y-84916673D01*
X135821673Y-85095302D01*
X135725000Y-85328691D01*
X135505000Y-85328691D01*
X135505000Y-84061580D01*
X135803597Y-83762983D01*
X135895910Y-83906441D01*
X136108110Y-84051431D01*
X136360000Y-84102440D01*
X137960000Y-84102440D01*
X138195317Y-84058162D01*
X138411441Y-83919090D01*
X138556431Y-83706890D01*
X138607440Y-83455000D01*
X138607440Y-83340000D01*
X140756738Y-83340000D01*
X140838946Y-83753285D01*
X141160853Y-84235054D01*
X141204777Y-84264403D01*
X141030302Y-84336673D01*
X140851673Y-84515301D01*
X140755000Y-84748690D01*
X140755000Y-85439250D01*
X140913750Y-85598000D01*
X142113000Y-85598000D01*
X142113000Y-85578000D01*
X142367000Y-85578000D01*
X142367000Y-85598000D01*
X143566250Y-85598000D01*
X143725000Y-85439250D01*
X143725000Y-84748690D01*
X143628327Y-84515301D01*
X143449698Y-84336673D01*
X143275223Y-84264403D01*
X143319147Y-84235054D01*
X143641054Y-83753285D01*
X143754093Y-83185000D01*
X143641054Y-82616715D01*
X143319147Y-82134946D01*
X142837378Y-81813039D01*
X142269093Y-81700000D01*
X142210907Y-81700000D01*
X142004006Y-81741155D01*
X141848675Y-81637367D01*
X141792484Y-81626190D01*
X141510000Y-81569999D01*
X141509995Y-81570000D01*
X138607440Y-81570000D01*
X138607440Y-81455000D01*
X138563162Y-81219683D01*
X138424090Y-81003559D01*
X138211890Y-80858569D01*
X137960000Y-80807560D01*
X136360000Y-80807560D01*
X136124683Y-80851838D01*
X135908559Y-80990910D01*
X135763569Y-81203110D01*
X135712560Y-81455000D01*
X135712560Y-81599327D01*
X135577516Y-81626190D01*
X135521325Y-81637367D01*
X135234210Y-81829210D01*
X135234208Y-81829213D01*
X133994210Y-83069210D01*
X133802367Y-83356325D01*
X133802367Y-83356326D01*
X133734999Y-83695000D01*
X133735000Y-83695005D01*
X133735000Y-88899995D01*
X133734999Y-88900000D01*
X133766826Y-89060000D01*
X133768004Y-89065923D01*
X132289791Y-87587709D01*
X132276009Y-87578500D01*
X132002676Y-87395866D01*
X131946485Y-87384689D01*
X131664001Y-87328498D01*
X131663996Y-87328499D01*
X129790006Y-87328499D01*
X129790001Y-87328498D01*
X129507517Y-87384689D01*
X129451326Y-87395866D01*
X129164211Y-87587709D01*
X129164209Y-87587712D01*
X128914210Y-87837710D01*
X128722367Y-88124825D01*
X128722367Y-88124826D01*
X128678119Y-88347270D01*
X128524000Y-88316060D01*
X128016000Y-88316060D01*
X127885000Y-88340709D01*
X127885000Y-86997082D01*
X130165787Y-84716294D01*
X130165790Y-84716292D01*
X130357633Y-84429177D01*
X130370140Y-84366302D01*
X130556000Y-84403940D01*
X131064000Y-84403940D01*
X131299317Y-84359662D01*
X131515441Y-84220590D01*
X131660431Y-84008390D01*
X131711440Y-83756500D01*
X131711440Y-82613500D01*
X131695000Y-82526129D01*
X131695000Y-79310000D01*
X131627633Y-78971325D01*
X131544987Y-78847635D01*
X131721441Y-78734090D01*
X131866431Y-78521890D01*
X131917440Y-78270000D01*
X131917440Y-76670000D01*
X131912288Y-76642619D01*
X140004613Y-76642619D01*
X140344155Y-77464372D01*
X140972321Y-78093636D01*
X141793481Y-78434611D01*
X142682619Y-78435387D01*
X143504372Y-78095845D01*
X144133636Y-77467679D01*
X144474611Y-76646519D01*
X144475387Y-75757381D01*
X144135845Y-74935628D01*
X143507679Y-74306364D01*
X142686519Y-73965389D01*
X141797381Y-73964613D01*
X140975628Y-74304155D01*
X140346364Y-74932321D01*
X140005389Y-75753481D01*
X140004613Y-76642619D01*
X131912288Y-76642619D01*
X131873162Y-76434683D01*
X131734090Y-76218559D01*
X131521890Y-76073569D01*
X131270000Y-76022560D01*
X129270000Y-76022560D01*
X129034683Y-76066838D01*
X128818559Y-76205910D01*
X128673569Y-76418110D01*
X128622560Y-76670000D01*
X128622560Y-78270000D01*
X128645965Y-78394385D01*
X127917440Y-77665860D01*
X127917440Y-76670000D01*
X127873162Y-76434683D01*
X127734090Y-76218559D01*
X127521890Y-76073569D01*
X127270000Y-76022560D01*
X125270000Y-76022560D01*
X125034683Y-76066838D01*
X124818559Y-76205910D01*
X124673569Y-76418110D01*
X124639773Y-76585000D01*
X122429171Y-76585000D01*
X122098923Y-76254176D01*
X121571691Y-76035250D01*
X121000813Y-76034752D01*
X120473200Y-76252757D01*
X120069176Y-76656077D01*
X119850250Y-77183309D01*
X119849752Y-77754187D01*
X120067757Y-78281800D01*
X120471077Y-78685824D01*
X120998309Y-78904750D01*
X121569187Y-78905248D01*
X122096800Y-78687243D01*
X122429623Y-78355000D01*
X124638554Y-78355000D01*
X124666838Y-78505317D01*
X124805910Y-78721441D01*
X125018110Y-78866431D01*
X125270000Y-78917440D01*
X126665860Y-78917440D01*
X128655000Y-80906579D01*
X128655000Y-81992588D01*
X128524000Y-81966060D01*
X128016000Y-81966060D01*
X127780683Y-82010338D01*
X127639629Y-82101104D01*
X127613698Y-82075173D01*
X127380309Y-81978500D01*
X127285750Y-81978500D01*
X127127000Y-82137250D01*
X127127000Y-83058000D01*
X127147000Y-83058000D01*
X127147000Y-83312000D01*
X127127000Y-83312000D01*
X127127000Y-84232750D01*
X127285750Y-84391500D01*
X127380309Y-84391500D01*
X127613698Y-84294827D01*
X127640235Y-84268291D01*
X127764110Y-84352931D01*
X127981890Y-84397033D01*
X126374210Y-86004712D01*
X126182367Y-86291827D01*
X126182367Y-86291828D01*
X126114999Y-86630502D01*
X126115000Y-86630507D01*
X126115000Y-88882317D01*
X126098560Y-88963500D01*
X126098560Y-89971501D01*
X122503504Y-89971501D01*
X122503499Y-89971500D01*
X122221015Y-90027691D01*
X122164824Y-90038868D01*
X121877709Y-90230711D01*
X121877707Y-90230714D01*
X121389210Y-90719210D01*
X121197367Y-91006325D01*
X121197367Y-91006326D01*
X121129999Y-91345000D01*
X121130000Y-91345005D01*
X121130000Y-94387560D01*
X121015000Y-94387560D01*
X120779683Y-94431838D01*
X120563559Y-94570910D01*
X120418569Y-94783110D01*
X120367560Y-95035000D01*
X120367560Y-96130861D01*
X119650000Y-96848420D01*
X119650000Y-96170750D01*
X119491250Y-96012000D01*
X118142000Y-96012000D01*
X118142000Y-97211250D01*
X118300750Y-97370000D01*
X119141309Y-97370000D01*
X119243140Y-97327820D01*
X119197367Y-97396325D01*
X119186190Y-97452516D01*
X119129999Y-97735000D01*
X119130000Y-97735005D01*
X119130000Y-105490568D01*
X118964946Y-105600853D01*
X118643039Y-106082622D01*
X118530000Y-106650907D01*
X118530000Y-106709093D01*
X118643039Y-107277378D01*
X118721632Y-107395001D01*
X113055667Y-107395001D01*
X112852675Y-107259367D01*
X112796484Y-107248190D01*
X112574610Y-107204055D01*
X112478090Y-107054059D01*
X112265890Y-106909069D01*
X112014000Y-106858060D01*
X111506000Y-106858060D01*
X111375000Y-106882709D01*
X111375000Y-102919412D01*
X111506000Y-102945940D01*
X112014000Y-102945940D01*
X112249317Y-102901662D01*
X112465441Y-102762590D01*
X112568335Y-102612000D01*
X114807995Y-102612000D01*
X114808000Y-102612001D01*
X115090484Y-102555810D01*
X115146675Y-102544633D01*
X115433790Y-102352790D01*
X116021739Y-101764840D01*
X116489187Y-101765248D01*
X117016800Y-101547243D01*
X117420824Y-101143923D01*
X117639750Y-100616691D01*
X117640248Y-100045813D01*
X117422243Y-99518200D01*
X117018923Y-99114176D01*
X116491691Y-98895250D01*
X115920813Y-98894752D01*
X115393200Y-99112757D01*
X114989176Y-99516077D01*
X114770250Y-100043309D01*
X114769840Y-100513581D01*
X114441420Y-100842000D01*
X112566853Y-100842000D01*
X112478090Y-100704059D01*
X112265890Y-100559069D01*
X112014000Y-100508060D01*
X111506000Y-100508060D01*
X111270683Y-100552338D01*
X111124093Y-100646666D01*
X110995890Y-100559069D01*
X110744000Y-100508060D01*
X110236000Y-100508060D01*
X110000683Y-100552338D01*
X109854093Y-100646666D01*
X109725890Y-100559069D01*
X109474000Y-100508060D01*
X108966000Y-100508060D01*
X108730683Y-100552338D01*
X108584093Y-100646666D01*
X108455890Y-100559069D01*
X108204000Y-100508060D01*
X107696000Y-100508060D01*
X107460683Y-100552338D01*
X107314093Y-100646666D01*
X107185890Y-100559069D01*
X106934000Y-100508060D01*
X106426000Y-100508060D01*
X106190683Y-100552338D01*
X106044093Y-100646666D01*
X105915890Y-100559069D01*
X105664000Y-100508060D01*
X105156000Y-100508060D01*
X104920683Y-100552338D01*
X104779629Y-100643104D01*
X104753698Y-100617173D01*
X104520309Y-100520500D01*
X104425750Y-100520500D01*
X104267000Y-100679250D01*
X104267000Y-101600000D01*
X104287000Y-101600000D01*
X104287000Y-101854000D01*
X104267000Y-101854000D01*
X104267000Y-102774750D01*
X104425750Y-102933500D01*
X104520309Y-102933500D01*
X104753698Y-102836827D01*
X104780235Y-102810291D01*
X104904110Y-102894931D01*
X105156000Y-102945940D01*
X105664000Y-102945940D01*
X105899317Y-102901662D01*
X106045907Y-102807334D01*
X106174110Y-102894931D01*
X106426000Y-102945940D01*
X106934000Y-102945940D01*
X107169317Y-102901662D01*
X107315907Y-102807334D01*
X107444110Y-102894931D01*
X107696000Y-102945940D01*
X108204000Y-102945940D01*
X108439317Y-102901662D01*
X108585907Y-102807334D01*
X108714110Y-102894931D01*
X108966000Y-102945940D01*
X109474000Y-102945940D01*
X109605000Y-102921291D01*
X109605000Y-103838947D01*
X109186691Y-103665250D01*
X108615813Y-103664752D01*
X108088200Y-103882757D01*
X107684176Y-104286077D01*
X107465250Y-104813309D01*
X107464752Y-105384187D01*
X107682757Y-105911800D01*
X108086077Y-106315824D01*
X108335000Y-106419186D01*
X108335000Y-106884588D01*
X108204000Y-106858060D01*
X107696000Y-106858060D01*
X107460683Y-106902338D01*
X107314093Y-106996666D01*
X107185890Y-106909069D01*
X106934000Y-106858060D01*
X106426000Y-106858060D01*
X106271457Y-106887139D01*
X106227633Y-106666825D01*
X106189136Y-106609210D01*
X106035790Y-106379710D01*
X106035787Y-106379708D01*
X101668830Y-102012750D01*
X103251000Y-102012750D01*
X103251000Y-102424810D01*
X103347673Y-102658199D01*
X103526302Y-102836827D01*
X103759691Y-102933500D01*
X103854250Y-102933500D01*
X104013000Y-102774750D01*
X104013000Y-101854000D01*
X103409750Y-101854000D01*
X103251000Y-102012750D01*
X101668830Y-102012750D01*
X100757290Y-101101210D01*
X100649504Y-101029190D01*
X103251000Y-101029190D01*
X103251000Y-101441250D01*
X103409750Y-101600000D01*
X104013000Y-101600000D01*
X104013000Y-100679250D01*
X103854250Y-100520500D01*
X103759691Y-100520500D01*
X103526302Y-100617173D01*
X103347673Y-100795801D01*
X103251000Y-101029190D01*
X100649504Y-101029190D01*
X100470175Y-100909367D01*
X100413984Y-100898190D01*
X100131500Y-100841999D01*
X100131495Y-100842000D01*
X96056853Y-100842000D01*
X95968090Y-100704059D01*
X95755890Y-100559069D01*
X95504000Y-100508060D01*
X94996000Y-100508060D01*
X94760683Y-100552338D01*
X94614093Y-100646666D01*
X94485890Y-100559069D01*
X94387446Y-100539134D01*
X94981579Y-99945000D01*
X99185829Y-99945000D01*
X99516077Y-100275824D01*
X100043309Y-100494750D01*
X100614187Y-100495248D01*
X101141800Y-100277243D01*
X101545824Y-99873923D01*
X101764750Y-99346691D01*
X101765248Y-98775813D01*
X101547243Y-98248200D01*
X101143923Y-97844176D01*
X100616691Y-97625250D01*
X100045813Y-97624752D01*
X99518200Y-97842757D01*
X99185377Y-98175000D01*
X94615005Y-98175000D01*
X94615000Y-98174999D01*
X94332516Y-98231190D01*
X94276325Y-98242367D01*
X93989210Y-98434210D01*
X93989208Y-98434213D01*
X92884792Y-99538628D01*
X92885248Y-99015813D01*
X92667243Y-98488200D01*
X92263923Y-98084176D01*
X91736691Y-97865250D01*
X91165813Y-97864752D01*
X90638200Y-98082757D01*
X90234176Y-98486077D01*
X90015250Y-99013309D01*
X90014752Y-99584187D01*
X90232757Y-100111800D01*
X90555000Y-100434605D01*
X90555000Y-100534588D01*
X90424000Y-100508060D01*
X89916000Y-100508060D01*
X89680683Y-100552338D01*
X89534093Y-100646666D01*
X89405890Y-100559069D01*
X89154000Y-100508060D01*
X88646000Y-100508060D01*
X88410683Y-100552338D01*
X88269629Y-100643104D01*
X88243698Y-100617173D01*
X88010309Y-100520500D01*
X87915750Y-100520500D01*
X87757000Y-100679250D01*
X87757000Y-101600000D01*
X87777000Y-101600000D01*
X87777000Y-101854000D01*
X87757000Y-101854000D01*
X87757000Y-101874000D01*
X87503000Y-101874000D01*
X87503000Y-101854000D01*
X86899750Y-101854000D01*
X86741000Y-102012750D01*
X86741000Y-102424810D01*
X86837673Y-102658199D01*
X87016302Y-102836827D01*
X87057779Y-102854007D01*
X86988200Y-102882757D01*
X86584176Y-103286077D01*
X86365250Y-103813309D01*
X86364752Y-104384187D01*
X86438324Y-104562244D01*
X84609998Y-102733918D01*
X84609998Y-101029190D01*
X86741000Y-101029190D01*
X86741000Y-101441250D01*
X86899750Y-101600000D01*
X87503000Y-101600000D01*
X87503000Y-100679250D01*
X87344250Y-100520500D01*
X87249691Y-100520500D01*
X87016302Y-100617173D01*
X86837673Y-100795801D01*
X86741000Y-101029190D01*
X84609998Y-101029190D01*
X84609998Y-96799219D01*
X84911077Y-97100824D01*
X85438309Y-97319750D01*
X86009187Y-97320248D01*
X86536800Y-97102243D01*
X86869623Y-96770000D01*
X87173554Y-96770000D01*
X87201838Y-96920317D01*
X87340910Y-97136441D01*
X87553110Y-97281431D01*
X87805000Y-97332440D01*
X89805000Y-97332440D01*
X90040317Y-97288162D01*
X90256441Y-97149090D01*
X90401431Y-96936890D01*
X90452440Y-96685000D01*
X90452440Y-95085000D01*
X90408162Y-94849683D01*
X90269090Y-94633559D01*
X90056890Y-94488569D01*
X89805000Y-94437560D01*
X87805000Y-94437560D01*
X87569683Y-94481838D01*
X87353559Y-94620910D01*
X87208569Y-94833110D01*
X87174773Y-95000000D01*
X86869171Y-95000000D01*
X86538923Y-94669176D01*
X86011691Y-94450250D01*
X85440813Y-94449752D01*
X84913200Y-94667757D01*
X84609998Y-94970431D01*
X84609998Y-93171582D01*
X84821579Y-92960000D01*
X90169995Y-92960000D01*
X90170000Y-92960001D01*
X90452484Y-92903810D01*
X90508675Y-92892633D01*
X90795790Y-92700790D01*
X90795791Y-92700789D01*
X92065787Y-91430792D01*
X92065790Y-91430790D01*
X92257633Y-91143675D01*
X92267973Y-91091691D01*
X92325001Y-90805000D01*
X92325000Y-90804995D01*
X92325000Y-90739557D01*
X92329691Y-90741500D01*
X92424250Y-90741500D01*
X92583000Y-90582750D01*
X92583000Y-89662000D01*
X92837000Y-89662000D01*
X92837000Y-90582750D01*
X92995750Y-90741500D01*
X93090309Y-90741500D01*
X93323698Y-90644827D01*
X93502327Y-90466199D01*
X93599000Y-90232810D01*
X93599000Y-89820750D01*
X93440250Y-89662000D01*
X92837000Y-89662000D01*
X92583000Y-89662000D01*
X92563000Y-89662000D01*
X92563000Y-89408000D01*
X92583000Y-89408000D01*
X92583000Y-88487250D01*
X92837000Y-88487250D01*
X92837000Y-89408000D01*
X93440250Y-89408000D01*
X93599000Y-89249250D01*
X93599000Y-88837190D01*
X93502327Y-88603801D01*
X93323698Y-88425173D01*
X93090309Y-88328500D01*
X92995750Y-88328500D01*
X92837000Y-88487250D01*
X92583000Y-88487250D01*
X92424250Y-88328500D01*
X92329691Y-88328500D01*
X92096302Y-88425173D01*
X92069765Y-88451709D01*
X91945890Y-88367069D01*
X91694000Y-88316060D01*
X91186000Y-88316060D01*
X91055000Y-88340709D01*
X91055000Y-86774736D01*
X91055001Y-86774731D01*
X90987633Y-86436057D01*
X90987633Y-86436056D01*
X90795790Y-86148941D01*
X90795787Y-86148939D01*
X89027002Y-84380154D01*
X89027002Y-84232752D01*
X89185750Y-84391500D01*
X89280309Y-84391500D01*
X89513698Y-84294827D01*
X89540235Y-84268291D01*
X89664110Y-84352931D01*
X89916000Y-84403940D01*
X90424000Y-84403940D01*
X90659317Y-84359662D01*
X90805907Y-84265334D01*
X90934110Y-84352931D01*
X91186000Y-84403940D01*
X91694000Y-84403940D01*
X91848543Y-84374861D01*
X91866316Y-84464210D01*
X91892367Y-84595175D01*
X92055952Y-84839999D01*
X92084210Y-84882290D01*
X93730000Y-86528079D01*
X93730000Y-92408421D01*
X92179210Y-93959210D01*
X91987367Y-94246325D01*
X91987367Y-94246326D01*
X91949327Y-94437560D01*
X91805000Y-94437560D01*
X91569683Y-94481838D01*
X91353559Y-94620910D01*
X91208569Y-94833110D01*
X91157560Y-95085000D01*
X91157560Y-96685000D01*
X91201838Y-96920317D01*
X91340910Y-97136441D01*
X91553110Y-97281431D01*
X91805000Y-97332440D01*
X93805000Y-97332440D01*
X94040317Y-97288162D01*
X94256441Y-97149090D01*
X94401431Y-96936890D01*
X94452440Y-96685000D01*
X94452440Y-95085000D01*
X94408162Y-94849683D01*
X94269090Y-94633559D01*
X94113993Y-94527586D01*
X95240787Y-93400792D01*
X95240790Y-93400790D01*
X95432633Y-93113675D01*
X95432634Y-93113674D01*
X95500001Y-92775000D01*
X95500000Y-92774995D01*
X95500000Y-86161505D01*
X95500001Y-86161500D01*
X95484571Y-86083932D01*
X95635000Y-86234623D01*
X95635000Y-87249995D01*
X95634999Y-87250000D01*
X95687812Y-87515503D01*
X95702367Y-87588675D01*
X95853390Y-87814698D01*
X95894210Y-87875790D01*
X97445000Y-89426579D01*
X97445000Y-94437560D01*
X97330000Y-94437560D01*
X97094683Y-94481838D01*
X96878559Y-94620910D01*
X96733569Y-94833110D01*
X96682560Y-95085000D01*
X96682560Y-96685000D01*
X96726838Y-96920317D01*
X96865910Y-97136441D01*
X97078110Y-97281431D01*
X97330000Y-97332440D01*
X99330000Y-97332440D01*
X99565317Y-97288162D01*
X99781441Y-97149090D01*
X99926431Y-96936890D01*
X99977440Y-96685000D01*
X99977440Y-95085000D01*
X99933162Y-94849683D01*
X99794090Y-94633559D01*
X99581890Y-94488569D01*
X99330000Y-94437560D01*
X99215000Y-94437560D01*
X99215000Y-92994187D01*
X100164752Y-92994187D01*
X100382757Y-93521800D01*
X100786077Y-93925824D01*
X101313309Y-94144750D01*
X101445000Y-94144865D01*
X101445000Y-94437560D01*
X101330000Y-94437560D01*
X101094683Y-94481838D01*
X100878559Y-94620910D01*
X100733569Y-94833110D01*
X100682560Y-95085000D01*
X100682560Y-96685000D01*
X100726838Y-96920317D01*
X100865910Y-97136441D01*
X101078110Y-97281431D01*
X101330000Y-97332440D01*
X103330000Y-97332440D01*
X103565317Y-97288162D01*
X103781441Y-97149090D01*
X103926431Y-96936890D01*
X103977440Y-96685000D01*
X103977440Y-95085000D01*
X103933162Y-94849683D01*
X103794090Y-94633559D01*
X103581890Y-94488569D01*
X103330000Y-94437560D01*
X103215000Y-94437560D01*
X103215000Y-93440005D01*
X103215001Y-93440000D01*
X103153337Y-93130000D01*
X103147633Y-93101325D01*
X103034806Y-92932467D01*
X103035248Y-92425813D01*
X102817243Y-91898200D01*
X102413923Y-91494176D01*
X101886691Y-91275250D01*
X101315813Y-91274752D01*
X100788200Y-91492757D01*
X100384176Y-91896077D01*
X100165250Y-92423309D01*
X100164752Y-92994187D01*
X99215000Y-92994187D01*
X99215000Y-89913310D01*
X99278110Y-89956431D01*
X99530000Y-90007440D01*
X101130000Y-90007440D01*
X101365317Y-89963162D01*
X101581441Y-89824090D01*
X101726431Y-89611890D01*
X101777440Y-89360000D01*
X101777440Y-89245000D01*
X103233420Y-89245000D01*
X104149208Y-90160787D01*
X104149210Y-90160790D01*
X104436325Y-90352633D01*
X104492516Y-90363810D01*
X104775000Y-90420001D01*
X104775005Y-90420000D01*
X107143147Y-90420000D01*
X107231910Y-90557941D01*
X107438989Y-90699432D01*
X106863261Y-91275160D01*
X106395813Y-91274752D01*
X105868200Y-91492757D01*
X105464176Y-91896077D01*
X105245250Y-92423309D01*
X105244752Y-92994187D01*
X105462757Y-93521800D01*
X105866077Y-93925824D01*
X106393309Y-94144750D01*
X106863581Y-94145160D01*
X106970000Y-94251579D01*
X106970000Y-94387560D01*
X106855000Y-94387560D01*
X106619683Y-94431838D01*
X106403559Y-94570910D01*
X106258569Y-94783110D01*
X106207560Y-95035000D01*
X106207560Y-96735000D01*
X106251838Y-96970317D01*
X106390910Y-97186441D01*
X106603110Y-97331431D01*
X106855000Y-97382440D01*
X108855000Y-97382440D01*
X109090317Y-97338162D01*
X109306441Y-97199090D01*
X109451431Y-96986890D01*
X109502440Y-96735000D01*
X109502440Y-96170750D01*
X110220000Y-96170750D01*
X110220000Y-96861310D01*
X110316673Y-97094699D01*
X110495302Y-97273327D01*
X110728691Y-97370000D01*
X111569250Y-97370000D01*
X111728000Y-97211250D01*
X111728000Y-96012000D01*
X111982000Y-96012000D01*
X111982000Y-97211250D01*
X112140750Y-97370000D01*
X112981309Y-97370000D01*
X113214698Y-97273327D01*
X113393327Y-97094699D01*
X113490000Y-96861310D01*
X113490000Y-96170750D01*
X116380000Y-96170750D01*
X116380000Y-96861310D01*
X116476673Y-97094699D01*
X116655302Y-97273327D01*
X116888691Y-97370000D01*
X117729250Y-97370000D01*
X117888000Y-97211250D01*
X117888000Y-96012000D01*
X116538750Y-96012000D01*
X116380000Y-96170750D01*
X113490000Y-96170750D01*
X113331250Y-96012000D01*
X111982000Y-96012000D01*
X111728000Y-96012000D01*
X110378750Y-96012000D01*
X110220000Y-96170750D01*
X109502440Y-96170750D01*
X109502440Y-95035000D01*
X109478674Y-94908690D01*
X110220000Y-94908690D01*
X110220000Y-95599250D01*
X110378750Y-95758000D01*
X111728000Y-95758000D01*
X111728000Y-94558750D01*
X111982000Y-94558750D01*
X111982000Y-95758000D01*
X113331250Y-95758000D01*
X113490000Y-95599250D01*
X113490000Y-94908690D01*
X116380000Y-94908690D01*
X116380000Y-95599250D01*
X116538750Y-95758000D01*
X117888000Y-95758000D01*
X117888000Y-94558750D01*
X118142000Y-94558750D01*
X118142000Y-95758000D01*
X119491250Y-95758000D01*
X119650000Y-95599250D01*
X119650000Y-94908690D01*
X119553327Y-94675301D01*
X119374698Y-94496673D01*
X119141309Y-94400000D01*
X118300750Y-94400000D01*
X118142000Y-94558750D01*
X117888000Y-94558750D01*
X117729250Y-94400000D01*
X116888691Y-94400000D01*
X116655302Y-94496673D01*
X116476673Y-94675301D01*
X116380000Y-94908690D01*
X113490000Y-94908690D01*
X113393327Y-94675301D01*
X113214698Y-94496673D01*
X112981309Y-94400000D01*
X112140750Y-94400000D01*
X111982000Y-94558750D01*
X111728000Y-94558750D01*
X111569250Y-94400000D01*
X110728691Y-94400000D01*
X110495302Y-94496673D01*
X110316673Y-94675301D01*
X110220000Y-94908690D01*
X109478674Y-94908690D01*
X109458162Y-94799683D01*
X109319090Y-94583559D01*
X109106890Y-94438569D01*
X108855000Y-94387560D01*
X108740000Y-94387560D01*
X108740000Y-93885005D01*
X108740001Y-93885000D01*
X108672633Y-93546326D01*
X108672633Y-93546325D01*
X108480790Y-93259210D01*
X108480787Y-93259208D01*
X108114840Y-92893261D01*
X108115160Y-92526419D01*
X109748484Y-90893095D01*
X109749757Y-90895000D01*
X109864210Y-91066292D01*
X110863706Y-92065787D01*
X110863708Y-92065790D01*
X111150823Y-92257633D01*
X111207014Y-92268810D01*
X111489498Y-92325001D01*
X111489503Y-92325000D01*
X114425829Y-92325000D01*
X114756077Y-92655824D01*
X115283309Y-92874750D01*
X115854187Y-92875248D01*
X116381800Y-92657243D01*
X116785824Y-92253923D01*
X117004750Y-91726691D01*
X117005248Y-91155813D01*
X116787243Y-90628200D01*
X116383923Y-90224176D01*
X115856691Y-90005250D01*
X115285813Y-90004752D01*
X114758200Y-90222757D01*
X114425377Y-90555000D01*
X112463526Y-90555000D01*
X112552327Y-90466199D01*
X112649000Y-90232810D01*
X112649000Y-89820750D01*
X112490250Y-89662000D01*
X111887000Y-89662000D01*
X111887000Y-89682000D01*
X111633000Y-89682000D01*
X111633000Y-89662000D01*
X111613000Y-89662000D01*
X111613000Y-89408000D01*
X111633000Y-89408000D01*
X111633000Y-88487250D01*
X111887000Y-88487250D01*
X111887000Y-89408000D01*
X112490250Y-89408000D01*
X112649000Y-89249250D01*
X112649000Y-88837190D01*
X112569703Y-88645750D01*
X117895000Y-88645750D01*
X117895000Y-89486309D01*
X117991673Y-89719698D01*
X118170301Y-89898327D01*
X118403690Y-89995000D01*
X119094250Y-89995000D01*
X119253000Y-89836250D01*
X119253000Y-88487000D01*
X119507000Y-88487000D01*
X119507000Y-89836250D01*
X119665750Y-89995000D01*
X120356310Y-89995000D01*
X120589699Y-89898327D01*
X120768327Y-89719698D01*
X120865000Y-89486309D01*
X120865000Y-88645750D01*
X120706250Y-88487000D01*
X119507000Y-88487000D01*
X119253000Y-88487000D01*
X118053750Y-88487000D01*
X117895000Y-88645750D01*
X112569703Y-88645750D01*
X112552327Y-88603801D01*
X112373698Y-88425173D01*
X112140309Y-88328500D01*
X112045750Y-88328500D01*
X111887000Y-88487250D01*
X111633000Y-88487250D01*
X111474250Y-88328500D01*
X111379691Y-88328500D01*
X111146302Y-88425173D01*
X111119765Y-88451709D01*
X110995890Y-88367069D01*
X110744000Y-88316060D01*
X110236000Y-88316060D01*
X110000683Y-88360338D01*
X109854093Y-88454666D01*
X109725890Y-88367069D01*
X109474000Y-88316060D01*
X108966000Y-88316060D01*
X108730683Y-88360338D01*
X108584093Y-88454666D01*
X108455890Y-88367069D01*
X108204000Y-88316060D01*
X107696000Y-88316060D01*
X107460683Y-88360338D01*
X107244559Y-88499410D01*
X107141665Y-88650000D01*
X105141579Y-88650000D01*
X104225790Y-87734210D01*
X104114325Y-87659732D01*
X103938675Y-87542367D01*
X103882484Y-87531190D01*
X103600000Y-87474999D01*
X103599995Y-87475000D01*
X101777440Y-87475000D01*
X101777440Y-87360000D01*
X101753674Y-87233691D01*
X117895000Y-87233691D01*
X117895000Y-88074250D01*
X118053750Y-88233000D01*
X119253000Y-88233000D01*
X119253000Y-86883750D01*
X119507000Y-86883750D01*
X119507000Y-88233000D01*
X120706250Y-88233000D01*
X120865000Y-88074250D01*
X120865000Y-87233691D01*
X120768327Y-87000302D01*
X120589699Y-86821673D01*
X120356310Y-86725000D01*
X119665750Y-86725000D01*
X119507000Y-86883750D01*
X119253000Y-86883750D01*
X119094250Y-86725000D01*
X118403690Y-86725000D01*
X118170301Y-86821673D01*
X117991673Y-87000302D01*
X117895000Y-87233691D01*
X101753674Y-87233691D01*
X101733162Y-87124683D01*
X101594090Y-86908559D01*
X101381890Y-86763569D01*
X101130000Y-86712560D01*
X99530000Y-86712560D01*
X99294683Y-86756838D01*
X99078559Y-86895910D01*
X98933569Y-87108110D01*
X98882560Y-87360000D01*
X98882560Y-87504328D01*
X98691325Y-87542367D01*
X98404210Y-87734210D01*
X98404208Y-87734213D01*
X98330000Y-87808421D01*
X97405000Y-86883420D01*
X97405000Y-86234171D01*
X97735824Y-85903923D01*
X97954750Y-85376691D01*
X97955248Y-84805813D01*
X97737243Y-84278200D01*
X97333923Y-83874176D01*
X96806691Y-83655250D01*
X96235813Y-83654752D01*
X95708200Y-83872757D01*
X95304176Y-84276077D01*
X95085250Y-84803309D01*
X95084752Y-85374187D01*
X95088615Y-85383536D01*
X93595000Y-83889920D01*
X93595000Y-83837683D01*
X93611440Y-83756500D01*
X93611440Y-82613500D01*
X93567162Y-82378183D01*
X93429982Y-82165000D01*
X95375829Y-82165000D01*
X95706077Y-82495824D01*
X96233309Y-82714750D01*
X96804187Y-82715248D01*
X97331800Y-82497243D01*
X97735824Y-82093923D01*
X97954750Y-81566691D01*
X97955248Y-80995813D01*
X97913593Y-80895000D01*
X110456921Y-80895000D01*
X109864210Y-81487710D01*
X109855000Y-81501494D01*
X109845790Y-81487710D01*
X109845787Y-81487708D01*
X109595789Y-81237709D01*
X109546838Y-81205001D01*
X109308674Y-81045866D01*
X109252483Y-81034689D01*
X108969999Y-80978498D01*
X108969994Y-80978499D01*
X105461506Y-80978499D01*
X105461501Y-80978498D01*
X105179017Y-81034689D01*
X105122826Y-81045866D01*
X105019041Y-81115213D01*
X104490813Y-81114752D01*
X103963200Y-81332757D01*
X103559176Y-81736077D01*
X103340250Y-82263309D01*
X103339752Y-82834187D01*
X103557757Y-83361800D01*
X103961077Y-83765824D01*
X104488309Y-83984750D01*
X105059187Y-83985248D01*
X105586800Y-83767243D01*
X105883810Y-83470750D01*
X107061000Y-83470750D01*
X107061000Y-83882810D01*
X107157673Y-84116199D01*
X107336302Y-84294827D01*
X107569691Y-84391500D01*
X107664250Y-84391500D01*
X107823000Y-84232750D01*
X107823000Y-83312000D01*
X107219750Y-83312000D01*
X107061000Y-83470750D01*
X105883810Y-83470750D01*
X105990824Y-83363923D01*
X106209750Y-82836691D01*
X106209827Y-82748499D01*
X107061000Y-82748499D01*
X107061000Y-82899250D01*
X107219750Y-83058000D01*
X107823000Y-83058000D01*
X107823000Y-83038000D01*
X108077000Y-83038000D01*
X108077000Y-83058000D01*
X108097000Y-83058000D01*
X108097000Y-83312000D01*
X108077000Y-83312000D01*
X108077000Y-84232750D01*
X108235750Y-84391500D01*
X108330309Y-84391500D01*
X108563698Y-84294827D01*
X108590235Y-84268291D01*
X108714110Y-84352931D01*
X108966000Y-84403940D01*
X109474000Y-84403940D01*
X109709317Y-84359662D01*
X109855907Y-84265334D01*
X109984110Y-84352931D01*
X110236000Y-84403940D01*
X110360980Y-84403940D01*
X109924920Y-84840000D01*
X103361579Y-84840000D01*
X102255790Y-83734210D01*
X102100890Y-83630710D01*
X101968675Y-83542367D01*
X101912484Y-83531190D01*
X101777440Y-83504327D01*
X101777440Y-83360000D01*
X101733162Y-83124683D01*
X101594090Y-82908559D01*
X101381890Y-82763569D01*
X101130000Y-82712560D01*
X99530000Y-82712560D01*
X99294683Y-82756838D01*
X99078559Y-82895910D01*
X98933569Y-83108110D01*
X98882560Y-83360000D01*
X98882560Y-85360000D01*
X98926838Y-85595317D01*
X99065910Y-85811441D01*
X99278110Y-85956431D01*
X99530000Y-86007440D01*
X101130000Y-86007440D01*
X101365317Y-85963162D01*
X101581441Y-85824090D01*
X101687414Y-85668993D01*
X102369208Y-86350787D01*
X102369210Y-86350790D01*
X102496822Y-86436057D01*
X102656326Y-86542634D01*
X102995000Y-86610001D01*
X102995005Y-86610000D01*
X110291495Y-86610000D01*
X110291500Y-86610001D01*
X110573984Y-86553810D01*
X110630175Y-86542633D01*
X110917290Y-86350790D01*
X112385787Y-84882292D01*
X112385790Y-84882290D01*
X112577633Y-84595175D01*
X112603684Y-84464210D01*
X112645001Y-84256500D01*
X112645000Y-84256495D01*
X112645000Y-83837683D01*
X112661440Y-83756500D01*
X112661440Y-82613500D01*
X112617162Y-82378183D01*
X112479982Y-82165000D01*
X117743420Y-82165000D01*
X118328833Y-82750412D01*
X118294683Y-82756838D01*
X118078559Y-82895910D01*
X117933569Y-83108110D01*
X117882560Y-83360000D01*
X117882560Y-85360000D01*
X117926838Y-85595317D01*
X118065910Y-85811441D01*
X118278110Y-85956431D01*
X118530000Y-86007440D01*
X120230000Y-86007440D01*
X120465317Y-85963162D01*
X120681441Y-85824090D01*
X120826431Y-85611890D01*
X120877440Y-85360000D01*
X120877440Y-83470750D01*
X126111000Y-83470750D01*
X126111000Y-83882810D01*
X126207673Y-84116199D01*
X126386302Y-84294827D01*
X126619691Y-84391500D01*
X126714250Y-84391500D01*
X126873000Y-84232750D01*
X126873000Y-83312000D01*
X126269750Y-83312000D01*
X126111000Y-83470750D01*
X120877440Y-83470750D01*
X120877440Y-83360000D01*
X120833162Y-83124683D01*
X120694090Y-82908559D01*
X120481890Y-82763569D01*
X120265000Y-82719648D01*
X120265000Y-82550005D01*
X120265001Y-82550000D01*
X120252508Y-82487190D01*
X126111000Y-82487190D01*
X126111000Y-82899250D01*
X126269750Y-83058000D01*
X126873000Y-83058000D01*
X126873000Y-82137250D01*
X126714250Y-81978500D01*
X126619691Y-81978500D01*
X126386302Y-82075173D01*
X126207673Y-82253801D01*
X126111000Y-82487190D01*
X120252508Y-82487190D01*
X120197633Y-82211325D01*
X120134156Y-82116325D01*
X120005790Y-81924210D01*
X120005787Y-81924208D01*
X118735790Y-80654210D01*
X118708221Y-80635789D01*
X118448675Y-80462367D01*
X118392484Y-80451190D01*
X118110000Y-80394999D01*
X118109995Y-80395000D01*
X115166580Y-80395000D01*
X116195787Y-79365792D01*
X116195790Y-79365790D01*
X116387633Y-79078675D01*
X116406447Y-78984093D01*
X116455001Y-78740000D01*
X116455000Y-78739995D01*
X116455000Y-78659432D01*
X116620054Y-78549147D01*
X116941961Y-78067378D01*
X117055000Y-77499093D01*
X117055000Y-77440907D01*
X116941961Y-76872622D01*
X116620054Y-76390853D01*
X116138285Y-76068946D01*
X115570000Y-75955907D01*
X115001715Y-76068946D01*
X114519946Y-76390853D01*
X114492150Y-76432452D01*
X114483162Y-76384683D01*
X114344090Y-76168559D01*
X114131890Y-76023569D01*
X113880000Y-75972560D01*
X112180000Y-75972560D01*
X111944683Y-76016838D01*
X111728559Y-76155910D01*
X111583569Y-76368110D01*
X111539648Y-76585000D01*
X102700854Y-76585000D01*
X102663162Y-76384683D01*
X102524090Y-76168559D01*
X102311890Y-76023569D01*
X102060000Y-75972560D01*
X100060000Y-75972560D01*
X99824683Y-76016838D01*
X99608559Y-76155910D01*
X99463569Y-76368110D01*
X99412560Y-76620000D01*
X99412560Y-78320000D01*
X99456838Y-78555317D01*
X99595910Y-78771441D01*
X99808110Y-78916431D01*
X100060000Y-78967440D01*
X102060000Y-78967440D01*
X102295317Y-78923162D01*
X102511441Y-78784090D01*
X102656431Y-78571890D01*
X102700352Y-78355000D01*
X111539146Y-78355000D01*
X111576838Y-78555317D01*
X111715910Y-78771441D01*
X111928110Y-78916431D01*
X112180000Y-78967440D01*
X113880000Y-78967440D01*
X114115317Y-78923162D01*
X114171251Y-78887170D01*
X113933420Y-79125000D01*
X92616579Y-79125000D01*
X93386579Y-78355000D01*
X95419146Y-78355000D01*
X95456838Y-78555317D01*
X95595910Y-78771441D01*
X95808110Y-78916431D01*
X96060000Y-78967440D01*
X98060000Y-78967440D01*
X98295317Y-78923162D01*
X98511441Y-78784090D01*
X98656431Y-78571890D01*
X98707440Y-78320000D01*
X98707440Y-76620000D01*
X98663162Y-76384683D01*
X98524090Y-76168559D01*
X98311890Y-76023569D01*
X98060000Y-75972560D01*
X96060000Y-75972560D01*
X95824683Y-76016838D01*
X95608559Y-76155910D01*
X95463569Y-76368110D01*
X95419648Y-76585000D01*
X93020005Y-76585000D01*
X93020000Y-76584999D01*
X92737516Y-76641190D01*
X92681325Y-76652367D01*
X92394210Y-76844210D01*
X92394208Y-76844213D01*
X90170000Y-79068420D01*
X87945790Y-76844210D01*
X87658675Y-76652367D01*
X87602484Y-76641190D01*
X87466331Y-76614107D01*
X87423162Y-76384683D01*
X87284090Y-76168559D01*
X87071890Y-76023569D01*
X86820000Y-75972560D01*
X84820000Y-75972560D01*
X84584683Y-76016838D01*
X84368559Y-76155910D01*
X84223569Y-76368110D01*
X84172560Y-76620000D01*
X84172560Y-78320000D01*
X84216838Y-78555317D01*
X84355910Y-78771441D01*
X84568110Y-78916431D01*
X84820000Y-78967440D01*
X86820000Y-78967440D01*
X87055317Y-78923162D01*
X87271441Y-78784090D01*
X87316526Y-78718106D01*
X89285000Y-80686579D01*
X89285000Y-81980443D01*
X89280309Y-81978500D01*
X89185750Y-81978500D01*
X89027000Y-82137250D01*
X89027000Y-83058000D01*
X89047000Y-83058000D01*
X89047000Y-83312000D01*
X89027000Y-83312000D01*
X89027000Y-83332000D01*
X88773000Y-83332000D01*
X88773000Y-83312000D01*
X88169750Y-83312000D01*
X88064299Y-83417451D01*
X87134039Y-82487190D01*
X88011000Y-82487190D01*
X88011000Y-82899250D01*
X88169750Y-83058000D01*
X88773000Y-83058000D01*
X88773000Y-82137250D01*
X88614250Y-81978500D01*
X88519691Y-81978500D01*
X88286302Y-82075173D01*
X88107673Y-82253801D01*
X88011000Y-82487190D01*
X87134039Y-82487190D01*
X86433440Y-81786591D01*
X86524750Y-81566691D01*
X86525248Y-80995813D01*
X86307243Y-80468200D01*
X85903923Y-80064176D01*
X85376691Y-79845250D01*
X84805813Y-79844752D01*
X84278200Y-80062757D01*
X83874176Y-80466077D01*
X83655250Y-80993309D01*
X83654752Y-81564187D01*
X83872757Y-82091800D01*
X84276077Y-82495824D01*
X84803309Y-82714750D01*
X84858487Y-82714798D01*
X89285000Y-87141310D01*
X89285000Y-88342588D01*
X89154000Y-88316060D01*
X88646000Y-88316060D01*
X88410683Y-88360338D01*
X88194559Y-88499410D01*
X88091665Y-88650000D01*
X85975000Y-88650000D01*
X85975000Y-86234171D01*
X86305824Y-85903923D01*
X86524750Y-85376691D01*
X86525248Y-84805813D01*
X86307243Y-84278200D01*
X85903923Y-83874176D01*
X85376691Y-83655250D01*
X84805813Y-83654752D01*
X84278200Y-83872757D01*
X83874176Y-84276077D01*
X83655250Y-84803309D01*
X83654752Y-85374187D01*
X83872757Y-85901800D01*
X84205000Y-86234623D01*
X84205000Y-88650000D01*
X83256579Y-88650000D01*
X82092440Y-87485860D01*
X82092440Y-86090000D01*
X82048162Y-85854683D01*
X81909090Y-85638559D01*
X81696890Y-85493569D01*
X81445000Y-85442560D01*
X79845000Y-85442560D01*
X79609683Y-85486838D01*
X79393559Y-85625910D01*
X79248569Y-85838110D01*
X79197560Y-86090000D01*
X79197560Y-86205000D01*
X76661579Y-86205000D01*
X76400539Y-85943960D01*
X76444093Y-85725000D01*
X76331054Y-85156715D01*
X76009147Y-84674946D01*
X75965223Y-84645597D01*
X76139698Y-84573327D01*
X76318327Y-84394699D01*
X76415000Y-84161310D01*
X76415000Y-83470750D01*
X76320000Y-83375750D01*
X79210000Y-83375750D01*
X79210000Y-84216309D01*
X79306673Y-84449698D01*
X79485301Y-84628327D01*
X79718690Y-84725000D01*
X80359250Y-84725000D01*
X80518000Y-84566250D01*
X80518000Y-83217000D01*
X80772000Y-83217000D01*
X80772000Y-84566250D01*
X80930750Y-84725000D01*
X81571310Y-84725000D01*
X81804699Y-84628327D01*
X81983327Y-84449698D01*
X82080000Y-84216309D01*
X82080000Y-83375750D01*
X81921250Y-83217000D01*
X80772000Y-83217000D01*
X80518000Y-83217000D01*
X79368750Y-83217000D01*
X79210000Y-83375750D01*
X76320000Y-83375750D01*
X76256250Y-83312000D01*
X75057000Y-83312000D01*
X75057000Y-83332000D01*
X74803000Y-83332000D01*
X74803000Y-83312000D01*
X73603750Y-83312000D01*
X73445000Y-83470750D01*
X73445000Y-84161310D01*
X73541673Y-84394699D01*
X73720302Y-84573327D01*
X73894777Y-84645597D01*
X73850853Y-84674946D01*
X73528946Y-85156715D01*
X73415907Y-85725000D01*
X71882000Y-85725000D01*
X71882000Y-82208690D01*
X73445000Y-82208690D01*
X73445000Y-82899250D01*
X73603750Y-83058000D01*
X74803000Y-83058000D01*
X74803000Y-81858750D01*
X75057000Y-81858750D01*
X75057000Y-83058000D01*
X76256250Y-83058000D01*
X76415000Y-82899250D01*
X76415000Y-82208690D01*
X76318327Y-81975301D01*
X76306717Y-81963691D01*
X79210000Y-81963691D01*
X79210000Y-82804250D01*
X79368750Y-82963000D01*
X80518000Y-82963000D01*
X80518000Y-81613750D01*
X80772000Y-81613750D01*
X80772000Y-82963000D01*
X81921250Y-82963000D01*
X82080000Y-82804250D01*
X82080000Y-81963691D01*
X81983327Y-81730302D01*
X81804699Y-81551673D01*
X81571310Y-81455000D01*
X80930750Y-81455000D01*
X80772000Y-81613750D01*
X80518000Y-81613750D01*
X80359250Y-81455000D01*
X79718690Y-81455000D01*
X79485301Y-81551673D01*
X79306673Y-81730302D01*
X79210000Y-81963691D01*
X76306717Y-81963691D01*
X76139698Y-81796673D01*
X75906309Y-81700000D01*
X75215750Y-81700000D01*
X75057000Y-81858750D01*
X74803000Y-81858750D01*
X74644250Y-81700000D01*
X73953691Y-81700000D01*
X73720302Y-81796673D01*
X73541673Y-81975301D01*
X73445000Y-82208690D01*
X71882000Y-82208690D01*
X71882000Y-76642619D01*
X72694613Y-76642619D01*
X73034155Y-77464372D01*
X73662321Y-78093636D01*
X74483481Y-78434611D01*
X75372619Y-78435387D01*
X76194372Y-78095845D01*
X76535061Y-77755750D01*
X80185000Y-77755750D01*
X80185000Y-78446310D01*
X80281673Y-78679699D01*
X80460302Y-78858327D01*
X80693691Y-78955000D01*
X81534250Y-78955000D01*
X81693000Y-78796250D01*
X81693000Y-77597000D01*
X81947000Y-77597000D01*
X81947000Y-78796250D01*
X82105750Y-78955000D01*
X82946309Y-78955000D01*
X83179698Y-78858327D01*
X83358327Y-78679699D01*
X83455000Y-78446310D01*
X83455000Y-77755750D01*
X83296250Y-77597000D01*
X81947000Y-77597000D01*
X81693000Y-77597000D01*
X80343750Y-77597000D01*
X80185000Y-77755750D01*
X76535061Y-77755750D01*
X76823636Y-77467679D01*
X77164611Y-76646519D01*
X77164744Y-76493690D01*
X80185000Y-76493690D01*
X80185000Y-77184250D01*
X80343750Y-77343000D01*
X81693000Y-77343000D01*
X81693000Y-76143750D01*
X81947000Y-76143750D01*
X81947000Y-77343000D01*
X83296250Y-77343000D01*
X83455000Y-77184250D01*
X83455000Y-76493690D01*
X83358327Y-76260301D01*
X83179698Y-76081673D01*
X82946309Y-75985000D01*
X82105750Y-75985000D01*
X81947000Y-76143750D01*
X81693000Y-76143750D01*
X81534250Y-75985000D01*
X80693691Y-75985000D01*
X80460302Y-76081673D01*
X80281673Y-76260301D01*
X80185000Y-76493690D01*
X77164744Y-76493690D01*
X77165387Y-75757381D01*
X76825845Y-74935628D01*
X76197679Y-74306364D01*
X75376519Y-73965389D01*
X74487381Y-73964613D01*
X73665628Y-74304155D01*
X73036364Y-74932321D01*
X72695389Y-75753481D01*
X72694613Y-76642619D01*
X71882000Y-76642619D01*
X71882000Y-73152000D01*
X145288000Y-73152000D01*
X145288000Y-112268000D01*
G36*
X129286000Y-90753940D02*
X129794000Y-90753940D01*
X129925000Y-90729291D01*
X129925000Y-94874806D01*
X129892560Y-95035000D01*
X129892560Y-96735000D01*
X129936838Y-96970317D01*
X130075910Y-97186441D01*
X130288110Y-97331431D01*
X130540000Y-97382440D01*
X130655000Y-97382440D01*
X130655000Y-101218421D01*
X126442672Y-105430748D01*
X126409090Y-105378559D01*
X126196890Y-105233569D01*
X125945000Y-105182560D01*
X124245000Y-105182560D01*
X124009683Y-105226838D01*
X123793559Y-105365910D01*
X123648569Y-105578110D01*
X123634914Y-105645541D01*
X123605054Y-105600853D01*
X123123285Y-105278946D01*
X122555000Y-105165907D01*
X121986715Y-105278946D01*
X121504946Y-105600853D01*
X121285000Y-105930026D01*
X121065054Y-105600853D01*
X120900000Y-105490568D01*
X120900000Y-98101580D01*
X121619139Y-97382440D01*
X123015000Y-97382440D01*
X123250317Y-97338162D01*
X123466441Y-97199090D01*
X123611431Y-96986890D01*
X123662440Y-96735000D01*
X123662440Y-96170750D01*
X125905000Y-96170750D01*
X125905000Y-96861310D01*
X126001673Y-97094699D01*
X126180302Y-97273327D01*
X126413691Y-97370000D01*
X127254250Y-97370000D01*
X127413000Y-97211250D01*
X127413000Y-96012000D01*
X127667000Y-96012000D01*
X127667000Y-97211250D01*
X127825750Y-97370000D01*
X128666309Y-97370000D01*
X128899698Y-97273327D01*
X129078327Y-97094699D01*
X129175000Y-96861310D01*
X129175000Y-96170750D01*
X129016250Y-96012000D01*
X127667000Y-96012000D01*
X127413000Y-96012000D01*
X126063750Y-96012000D01*
X125905000Y-96170750D01*
X123662440Y-96170750D01*
X123662440Y-95035000D01*
X123638674Y-94908690D01*
X125905000Y-94908690D01*
X125905000Y-95599250D01*
X126063750Y-95758000D01*
X127413000Y-95758000D01*
X127413000Y-94558750D01*
X127667000Y-94558750D01*
X127667000Y-95758000D01*
X129016250Y-95758000D01*
X129175000Y-95599250D01*
X129175000Y-94908690D01*
X129078327Y-94675301D01*
X128899698Y-94496673D01*
X128666309Y-94400000D01*
X127825750Y-94400000D01*
X127667000Y-94558750D01*
X127413000Y-94558750D01*
X127254250Y-94400000D01*
X126413691Y-94400000D01*
X126180302Y-94496673D01*
X126001673Y-94675301D01*
X125905000Y-94908690D01*
X123638674Y-94908690D01*
X123618162Y-94799683D01*
X123479090Y-94583559D01*
X123266890Y-94438569D01*
X123015000Y-94387560D01*
X122900000Y-94387560D01*
X122900000Y-91741501D01*
X128019994Y-91741501D01*
X128019999Y-91741502D01*
X128310713Y-91683674D01*
X128358674Y-91674134D01*
X128645789Y-91482291D01*
X128645790Y-91482290D01*
X128895787Y-91232292D01*
X128895790Y-91232290D01*
X129087633Y-90945175D01*
X129101955Y-90873172D01*
X129131881Y-90722730D01*
X129286000Y-90753940D01*
X129286000Y-90753940D01*
G37*
X129286000Y-90753940D02*
X129794000Y-90753940D01*
X129925000Y-90729291D01*
X129925000Y-94874806D01*
X129892560Y-95035000D01*
X129892560Y-96735000D01*
X129936838Y-96970317D01*
X130075910Y-97186441D01*
X130288110Y-97331431D01*
X130540000Y-97382440D01*
X130655000Y-97382440D01*
X130655000Y-101218421D01*
X126442672Y-105430748D01*
X126409090Y-105378559D01*
X126196890Y-105233569D01*
X125945000Y-105182560D01*
X124245000Y-105182560D01*
X124009683Y-105226838D01*
X123793559Y-105365910D01*
X123648569Y-105578110D01*
X123634914Y-105645541D01*
X123605054Y-105600853D01*
X123123285Y-105278946D01*
X122555000Y-105165907D01*
X121986715Y-105278946D01*
X121504946Y-105600853D01*
X121285000Y-105930026D01*
X121065054Y-105600853D01*
X120900000Y-105490568D01*
X120900000Y-98101580D01*
X121619139Y-97382440D01*
X123015000Y-97382440D01*
X123250317Y-97338162D01*
X123466441Y-97199090D01*
X123611431Y-96986890D01*
X123662440Y-96735000D01*
X123662440Y-96170750D01*
X125905000Y-96170750D01*
X125905000Y-96861310D01*
X126001673Y-97094699D01*
X126180302Y-97273327D01*
X126413691Y-97370000D01*
X127254250Y-97370000D01*
X127413000Y-97211250D01*
X127413000Y-96012000D01*
X127667000Y-96012000D01*
X127667000Y-97211250D01*
X127825750Y-97370000D01*
X128666309Y-97370000D01*
X128899698Y-97273327D01*
X129078327Y-97094699D01*
X129175000Y-96861310D01*
X129175000Y-96170750D01*
X129016250Y-96012000D01*
X127667000Y-96012000D01*
X127413000Y-96012000D01*
X126063750Y-96012000D01*
X125905000Y-96170750D01*
X123662440Y-96170750D01*
X123662440Y-95035000D01*
X123638674Y-94908690D01*
X125905000Y-94908690D01*
X125905000Y-95599250D01*
X126063750Y-95758000D01*
X127413000Y-95758000D01*
X127413000Y-94558750D01*
X127667000Y-94558750D01*
X127667000Y-95758000D01*
X129016250Y-95758000D01*
X129175000Y-95599250D01*
X129175000Y-94908690D01*
X129078327Y-94675301D01*
X128899698Y-94496673D01*
X128666309Y-94400000D01*
X127825750Y-94400000D01*
X127667000Y-94558750D01*
X127413000Y-94558750D01*
X127254250Y-94400000D01*
X126413691Y-94400000D01*
X126180302Y-94496673D01*
X126001673Y-94675301D01*
X125905000Y-94908690D01*
X123638674Y-94908690D01*
X123618162Y-94799683D01*
X123479090Y-94583559D01*
X123266890Y-94438569D01*
X123015000Y-94387560D01*
X122900000Y-94387560D01*
X122900000Y-91741501D01*
X128019994Y-91741501D01*
X128019999Y-91741502D01*
X128310713Y-91683674D01*
X128358674Y-91674134D01*
X128645789Y-91482291D01*
X128645790Y-91482290D01*
X128895787Y-91232292D01*
X128895790Y-91232290D01*
X129087633Y-90945175D01*
X129101955Y-90873172D01*
X129131881Y-90722730D01*
X129286000Y-90753940D01*
M02*
